<svg width="134" height="19" viewBox="0 0 134 19" fill="none" xmlns="http://www.w3.org/2000/svg">
<path d="M6.908 0.959999H10.268L16.532 18H13.124L11.54 13.752H5.588L4.028 18H0.62L6.908 0.959999ZM10.94 11.424L8.588 4.392L6.14 11.424H10.94ZM23.09 18.24C22.066 18.24 21.146 18.072 20.33 17.736C19.514 17.384 18.818 16.904 18.242 16.296C17.666 15.672 17.218 14.968 16.898 14.184C16.594 13.4 16.442 12.576 16.442 11.712C16.442 10.528 16.706 9.448 17.234 8.472C17.778 7.48 18.546 6.688 19.538 6.096C20.53 5.504 21.706 5.208 23.066 5.208C24.426 5.208 25.594 5.504 26.57 6.096C27.546 6.688 28.274 7.464 28.754 8.424L25.61 9.384C25.338 8.92 24.978 8.568 24.53 8.328C24.082 8.072 23.586 7.944 23.042 7.944C22.434 7.944 21.874 8.104 21.362 8.424C20.866 8.728 20.474 9.168 20.186 9.744C19.898 10.304 19.754 10.96 19.754 11.712C19.754 12.448 19.898 13.104 20.186 13.68C20.49 14.24 20.89 14.688 21.386 15.024C21.882 15.344 22.434 15.504 23.042 15.504C23.426 15.504 23.786 15.44 24.122 15.312C24.474 15.184 24.786 15.008 25.058 14.784C25.33 14.56 25.53 14.304 25.658 14.016L28.802 14.976C28.514 15.6 28.09 16.16 27.53 16.656C26.986 17.152 26.338 17.544 25.586 17.832C24.85 18.104 24.018 18.24 23.09 18.24ZM36.0397 18.24C35.0157 18.24 34.0957 18.072 33.2797 17.736C32.4637 17.384 31.7677 16.904 31.1917 16.296C30.6157 15.672 30.1677 14.968 29.8477 14.184C29.5437 13.4 29.3917 12.576 29.3917 11.712C29.3917 10.528 29.6557 9.448 30.1837 8.472C30.7277 7.48 31.4957 6.688 32.4877 6.096C33.4797 5.504 34.6557 5.208 36.0157 5.208C37.3757 5.208 38.5437 5.504 39.5197 6.096C40.4957 6.688 41.2237 7.464 41.7037 8.424L38.5597 9.384C38.2877 8.92 37.9277 8.568 37.4797 8.328C37.0317 8.072 36.5357 7.944 35.9917 7.944C35.3837 7.944 34.8237 8.104 34.3117 8.424C33.8157 8.728 33.4237 9.168 33.1357 9.744C32.8477 10.304 32.7037 10.96 32.7037 11.712C32.7037 12.448 32.8477 13.104 33.1357 13.68C33.4397 14.24 33.8397 14.688 34.3357 15.024C34.8317 15.344 35.3837 15.504 35.9917 15.504C36.3757 15.504 36.7357 15.44 37.0717 15.312C37.4237 15.184 37.7357 15.008 38.0077 14.784C38.2797 14.56 38.4797 14.304 38.6077 14.016L41.7517 14.976C41.4637 15.6 41.0397 16.16 40.4797 16.656C39.9357 17.152 39.2877 17.544 38.5357 17.832C37.7997 18.104 36.9677 18.24 36.0397 18.24ZM48.9654 18.24C47.9574 18.24 47.0454 18.072 46.2294 17.736C45.4134 17.384 44.7174 16.912 44.1414 16.32C43.5654 15.712 43.1174 15.024 42.7974 14.256C42.4934 13.472 42.3414 12.648 42.3414 11.784C42.3414 10.584 42.6054 9.488 43.1334 8.496C43.6774 7.504 44.4454 6.712 45.4374 6.12C46.4454 5.512 47.6294 5.208 48.9894 5.208C50.3654 5.208 51.5414 5.512 52.5174 6.12C53.4934 6.712 54.2374 7.504 54.7494 8.496C55.2774 9.472 55.5414 10.528 55.5414 11.664C55.5414 11.856 55.5334 12.056 55.5174 12.264C55.5014 12.456 55.4854 12.616 55.4694 12.744H45.7494C45.8134 13.384 45.9974 13.944 46.3014 14.424C46.6214 14.904 47.0214 15.272 47.5014 15.528C47.9974 15.768 48.5254 15.888 49.0854 15.888C49.7254 15.888 50.3254 15.736 50.8854 15.432C51.4614 15.112 51.8534 14.696 52.0614 14.184L54.8214 14.952C54.5174 15.592 54.0774 16.16 53.5014 16.656C52.9414 17.152 52.2774 17.544 51.5094 17.832C50.7414 18.104 49.8934 18.24 48.9654 18.24ZM45.6774 10.704H52.2534C52.1894 10.064 52.0054 9.512 51.7014 9.048C51.4134 8.568 51.0294 8.2 50.5494 7.944C50.0694 7.672 49.5334 7.536 48.9414 7.536C48.3654 7.536 47.8374 7.672 47.3574 7.944C46.8934 8.2 46.5094 8.568 46.2054 9.048C45.9174 9.512 45.7414 10.064 45.6774 10.704ZM56.9966 0.48H60.2126V13.968C60.2126 14.544 60.3086 14.936 60.5006 15.144C60.6926 15.336 60.9566 15.432 61.2926 15.432C61.5486 15.432 61.8126 15.4 62.0846 15.336C62.3566 15.272 62.5966 15.192 62.8046 15.096L63.2366 17.544C62.8046 17.752 62.3006 17.912 61.7246 18.024C61.1486 18.136 60.6286 18.192 60.1646 18.192C59.1566 18.192 58.3726 17.928 57.8126 17.4C57.2686 16.856 56.9966 16.088 56.9966 15.096V0.48Z" fill="#111111"/>
<path d="M71.7417 18.12C70.4937 18.12 69.3577 17.88 68.3337 17.4C67.3257 16.92 66.4537 16.272 65.7177 15.456C64.9977 14.624 64.4377 13.696 64.0377 12.672C63.6377 11.632 63.4377 10.568 63.4377 9.48C63.4377 8.344 63.6457 7.264 64.0617 6.24C64.4937 5.2 65.0777 4.28 65.8137 3.48C66.5657 2.664 67.4457 2.024 68.4537 1.56C69.4777 1.08 70.5977 0.839999 71.8137 0.839999C73.0457 0.839999 74.1657 1.088 75.1737 1.584C76.1977 2.08 77.0697 2.744 77.7897 3.576C78.5097 4.408 79.0697 5.336 79.4697 6.36C79.8697 7.384 80.0697 8.44 80.0697 9.528C80.0697 10.648 79.8617 11.728 79.4457 12.768C79.0297 13.792 78.4457 14.712 77.6937 15.528C76.9577 16.328 76.0777 16.96 75.0537 17.424C74.0457 17.888 72.9417 18.12 71.7417 18.12ZM66.7977 9.48C66.7977 10.216 66.9097 10.928 67.1337 11.616C67.3577 12.304 67.6777 12.92 68.0937 13.464C68.5257 13.992 69.0457 14.416 69.6537 14.736C70.2777 15.04 70.9817 15.192 71.7657 15.192C72.5657 15.192 73.2777 15.032 73.9017 14.712C74.5257 14.376 75.0457 13.936 75.4617 13.392C75.8777 12.832 76.1897 12.216 76.3977 11.544C76.6217 10.856 76.7337 10.168 76.7337 9.48C76.7337 8.744 76.6137 8.04 76.3737 7.368C76.1497 6.68 75.8217 6.072 75.3897 5.544C74.9737 5 74.4537 4.576 73.8297 4.272C73.2217 3.952 72.5337 3.792 71.7657 3.792C70.9497 3.792 70.2297 3.96 69.6057 4.296C68.9977 4.616 68.4857 5.048 68.0697 5.592C67.6537 6.136 67.3337 6.744 67.1097 7.416C66.9017 8.088 66.7977 8.776 66.7977 9.48ZM93.3892 18H90.1732V10.944C90.1732 9.936 89.9972 9.2 89.6452 8.736C89.2932 8.272 88.8052 8.04 88.1812 8.04C87.7492 8.04 87.3092 8.152 86.8612 8.376C86.4292 8.6 86.0372 8.912 85.6852 9.312C85.3332 9.696 85.0772 10.144 84.9172 10.656V18H81.7012V5.424H84.6052V7.752C84.9252 7.208 85.3332 6.752 85.8292 6.384C86.3252 6 86.8932 5.712 87.5332 5.52C88.1892 5.312 88.8772 5.208 89.5972 5.208C90.3812 5.208 91.0212 5.352 91.5172 5.64C92.0292 5.912 92.4132 6.288 92.6692 6.768C92.9412 7.232 93.1252 7.76 93.2212 8.352C93.3332 8.944 93.3892 9.544 93.3892 10.152V18ZM101.538 18.24C100.53 18.24 99.6176 18.072 98.8016 17.736C97.9856 17.384 97.2896 16.912 96.7136 16.32C96.1376 15.712 95.6896 15.024 95.3696 14.256C95.0656 13.472 94.9136 12.648 94.9136 11.784C94.9136 10.584 95.1776 9.488 95.7056 8.496C96.2496 7.504 97.0176 6.712 98.0096 6.12C99.0176 5.512 100.202 5.208 101.562 5.208C102.938 5.208 104.114 5.512 105.09 6.12C106.066 6.712 106.81 7.504 107.322 8.496C107.85 9.472 108.114 10.528 108.114 11.664C108.114 11.856 108.106 12.056 108.09 12.264C108.074 12.456 108.058 12.616 108.042 12.744H98.3216C98.3856 13.384 98.5696 13.944 98.8736 14.424C99.1936 14.904 99.5936 15.272 100.074 15.528C100.57 15.768 101.098 15.888 101.658 15.888C102.298 15.888 102.898 15.736 103.458 15.432C104.034 15.112 104.426 14.696 104.634 14.184L107.394 14.952C107.09 15.592 106.65 16.16 106.074 16.656C105.514 17.152 104.85 17.544 104.082 17.832C103.314 18.104 102.466 18.24 101.538 18.24ZM98.2496 10.704H104.826C104.762 10.064 104.578 9.512 104.274 9.048C103.986 8.568 103.602 8.2 103.122 7.944C102.642 7.672 102.106 7.536 101.514 7.536C100.938 7.536 100.41 7.672 99.9296 7.944C99.4656 8.2 99.0816 8.568 98.7776 9.048C98.4896 9.512 98.3136 10.064 98.2496 10.704Z" fill="#F4A900"/>
<path d="M119.072 0.959999H122.432L128.696 18H125.288L123.704 13.752H117.752L116.192 18H112.784L119.072 0.959999ZM123.104 11.424L120.752 4.392L118.304 11.424H123.104ZM130.085 18V0.959999H133.397V18H130.085Z" fill="#444444"/>
</svg>
