<svg  viewBox="0 0 292 180" fill="none" xmlns="http://www.w3.org/2000/svg">
<circle cx="202" cy="90" r="89" fill="#F48400" fill-opacity="0.1" stroke="#F48400" stroke-width="2"/>
<circle cx="90" cy="90" r="89" fill="#F48400" fill-opacity="0.1" stroke="#F48400" stroke-width="2"/>
<path d="M27.7941 67.484C27.7141 67.396 27.5981 67.304 27.4461 67.208C27.2941 67.104 27.1141 67.008 26.9061 66.92C26.6981 66.832 26.4741 66.76 26.2341 66.704C25.9941 66.648 25.7461 66.62 25.4901 66.62C24.9301 66.62 24.5141 66.724 24.2421 66.932C23.9701 67.14 23.8341 67.428 23.8341 67.796C23.8341 68.068 23.9101 68.284 24.0621 68.444C24.2141 68.596 24.4461 68.724 24.7581 68.828C25.0701 68.932 25.4621 69.044 25.9341 69.164C26.5101 69.3 27.0101 69.464 27.4341 69.656C27.8581 69.84 28.1821 70.088 28.4061 70.4C28.6301 70.712 28.7421 71.124 28.7421 71.636C28.7421 72.068 28.6621 72.44 28.5021 72.752C28.3421 73.064 28.1181 73.32 27.8301 73.52C27.5421 73.712 27.2101 73.856 26.8341 73.952C26.4581 74.04 26.0541 74.084 25.6221 74.084C25.1981 74.084 24.7741 74.04 24.3501 73.952C23.9341 73.864 23.5341 73.736 23.1501 73.568C22.7741 73.392 22.4261 73.18 22.1061 72.932L22.7181 71.78C22.8221 71.884 22.9701 72 23.1621 72.128C23.3621 72.248 23.5901 72.364 23.8461 72.476C24.1101 72.588 24.3941 72.684 24.6981 72.764C25.0101 72.836 25.3261 72.872 25.6461 72.872C26.1821 72.872 26.5901 72.78 26.8701 72.596C27.1581 72.404 27.3021 72.132 27.3021 71.78C27.3021 71.492 27.2101 71.264 27.0261 71.096C26.8421 70.92 26.5741 70.772 26.2221 70.652C25.8701 70.532 25.4501 70.412 24.9621 70.292C24.4021 70.14 23.9341 69.976 23.5581 69.8C23.1821 69.616 22.8981 69.384 22.7061 69.104C22.5221 68.816 22.4301 68.452 22.4301 68.012C22.4301 67.452 22.5661 66.98 22.8381 66.596C23.1101 66.204 23.4781 65.912 23.9421 65.72C24.4141 65.52 24.9421 65.42 25.5261 65.42C25.9101 65.42 26.2741 65.464 26.6181 65.552C26.9621 65.632 27.2821 65.744 27.5781 65.888C27.8821 66.032 28.1581 66.196 28.4061 66.38L27.7941 67.484ZM35.7783 74H34.4583V70.484C34.4583 69.916 34.3543 69.492 34.1463 69.212C33.9383 68.932 33.6463 68.792 33.2703 68.792C33.0383 68.792 32.7983 68.856 32.5503 68.984C32.3023 69.112 32.0823 69.288 31.8903 69.512C31.6983 69.728 31.5583 69.98 31.4703 70.268V74H30.1503V65.24H31.4703V68.984C31.7103 68.56 32.0383 68.228 32.4543 67.988C32.8703 67.74 33.3183 67.616 33.7983 67.616C34.1903 67.616 34.5143 67.684 34.7703 67.82C35.0263 67.956 35.2263 68.144 35.3703 68.384C35.5223 68.616 35.6263 68.888 35.6823 69.2C35.7463 69.504 35.7783 69.828 35.7783 70.172V74ZM40.3704 74.12C39.8744 74.12 39.4304 74.036 39.0384 73.868C38.6464 73.692 38.3064 73.452 38.0184 73.148C37.7384 72.844 37.5224 72.5 37.3704 72.116C37.2184 71.724 37.1424 71.308 37.1424 70.868C37.1424 70.428 37.2184 70.012 37.3704 69.62C37.5224 69.228 37.7384 68.884 38.0184 68.588C38.3064 68.284 38.6464 68.048 39.0384 67.88C39.4384 67.704 39.8824 67.616 40.3704 67.616C40.8584 67.616 41.2984 67.704 41.6904 67.88C42.0904 68.048 42.4304 68.284 42.7104 68.588C42.9984 68.884 43.2184 69.228 43.3704 69.62C43.5224 70.012 43.5984 70.428 43.5984 70.868C43.5984 71.308 43.5224 71.724 43.3704 72.116C43.2184 72.5 42.9984 72.844 42.7104 73.148C42.4304 73.452 42.0904 73.692 41.6904 73.868C41.2984 74.036 40.8584 74.12 40.3704 74.12ZM38.4984 70.88C38.4984 71.28 38.5824 71.64 38.7504 71.96C38.9184 72.28 39.1424 72.532 39.4224 72.716C39.7024 72.9 40.0184 72.992 40.3704 72.992C40.7144 72.992 41.0264 72.9 41.3064 72.716C41.5944 72.524 41.8224 72.268 41.9904 71.948C42.1584 71.62 42.2424 71.26 42.2424 70.868C42.2424 70.468 42.1584 70.108 41.9904 69.788C41.8224 69.468 41.5944 69.216 41.3064 69.032C41.0264 68.84 40.7144 68.744 40.3704 68.744C40.0184 68.744 39.7024 68.84 39.4224 69.032C39.1424 69.224 38.9184 69.48 38.7504 69.8C38.5824 70.112 38.4984 70.472 38.4984 70.88ZM48.5372 68.864C48.0252 68.872 47.5692 68.988 47.1692 69.212C46.7772 69.436 46.4972 69.752 46.3292 70.16V74H45.0092V67.724H46.2332V69.128C46.4492 68.696 46.7332 68.352 47.0852 68.096C47.4372 67.832 47.8092 67.688 48.2012 67.664C48.2812 67.664 48.3452 67.664 48.3932 67.664C48.4492 67.664 48.4972 67.668 48.5372 67.676V68.864ZM53.2295 73.676C53.1175 73.732 52.9775 73.792 52.8095 73.856C52.6415 73.92 52.4495 73.976 52.2335 74.024C52.0255 74.072 51.8095 74.096 51.5855 74.096C51.3135 74.096 51.0615 74.048 50.8295 73.952C50.5975 73.856 50.4095 73.704 50.2655 73.496C50.1295 73.28 50.0615 73.004 50.0615 72.668V68.744H49.2335V67.724H50.0615V65.66H51.3815V67.724H52.7495V68.744H51.3815V72.248C51.3975 72.464 51.4655 72.624 51.5855 72.728C51.7135 72.832 51.8695 72.884 52.0535 72.884C52.2375 72.884 52.4135 72.852 52.5815 72.788C52.7495 72.724 52.8735 72.672 52.9535 72.632L53.2295 73.676ZM54.3237 71.312V70.124H57.9117V71.312H54.3237ZM65.3914 66.668H62.5594V74H61.2034V66.668H58.3594V65.48H65.3914V66.668ZM68.1843 74.12C67.6963 74.12 67.2523 74.036 66.8523 73.868C66.4603 73.692 66.1203 73.456 65.8323 73.16C65.5443 72.856 65.3203 72.512 65.1603 72.128C65.0083 71.736 64.9323 71.32 64.9323 70.88C64.9323 70.288 65.0683 69.748 65.3403 69.26C65.6123 68.764 65.9923 68.368 66.4803 68.072C66.9683 67.768 67.5403 67.616 68.1963 67.616C68.8523 67.616 69.4163 67.768 69.8883 68.072C70.3683 68.368 70.7403 68.76 71.0043 69.248C71.2683 69.736 71.4003 70.26 71.4003 70.82C71.4003 70.916 71.3963 71.008 71.3883 71.096C71.3803 71.176 71.3723 71.244 71.3643 71.3H66.3363C66.3603 71.668 66.4603 71.992 66.6363 72.272C66.8203 72.544 67.0523 72.76 67.3323 72.92C67.6123 73.072 67.9123 73.148 68.2323 73.148C68.5843 73.148 68.9163 73.06 69.2283 72.884C69.5483 72.708 69.7643 72.476 69.8763 72.188L71.0043 72.512C70.8683 72.816 70.6603 73.092 70.3803 73.34C70.1083 73.58 69.7843 73.772 69.4083 73.916C69.0323 74.052 68.6243 74.12 68.1843 74.12ZM66.3003 70.424H70.0923C70.0683 70.064 69.9643 69.748 69.7803 69.476C69.6043 69.196 69.3763 68.98 69.0963 68.828C68.8243 68.668 68.5203 68.588 68.1843 68.588C67.8563 68.588 67.5523 68.668 67.2723 68.828C67.0003 68.98 66.7763 69.196 66.6003 69.476C66.4243 69.748 66.3243 70.064 66.3003 70.424ZM76.245 68.864C75.733 68.872 75.277 68.988 74.877 69.212C74.485 69.436 74.205 69.752 74.037 70.16V74H72.717V67.724H73.941V69.128C74.157 68.696 74.441 68.352 74.793 68.096C75.145 67.832 75.517 67.688 75.909 67.664C75.989 67.664 76.053 67.664 76.101 67.664C76.157 67.664 76.205 67.668 76.245 67.676V68.864ZM87.0453 74H85.7253V70.484C85.7253 69.9 85.6293 69.472 85.4373 69.2C85.2453 68.928 84.9653 68.792 84.5973 68.792C84.2293 68.792 83.8853 68.932 83.5653 69.212C83.2533 69.484 83.0333 69.84 82.9053 70.28V74H81.5853V70.484C81.5853 69.9 81.4893 69.472 81.2973 69.2C81.1053 68.928 80.8293 68.792 80.4693 68.792C80.1013 68.792 79.7573 68.928 79.4373 69.2C79.1253 69.472 78.9013 69.828 78.7653 70.268V74H77.4453V67.724H78.6453V68.984C78.8933 68.544 79.2173 68.208 79.6173 67.976C80.0253 67.736 80.4893 67.616 81.0093 67.616C81.5293 67.616 81.9373 67.752 82.2333 68.024C82.5373 68.296 82.7253 68.636 82.7973 69.044C83.0693 68.58 83.4013 68.228 83.7933 67.988C84.1933 67.74 84.6493 67.616 85.1613 67.616C85.5293 67.616 85.8373 67.684 86.0853 67.82C86.3333 67.956 86.5253 68.144 86.6613 68.384C86.7973 68.616 86.8933 68.888 86.9493 69.2C87.0133 69.504 87.0453 69.828 87.0453 70.172V74ZM92.1792 74V65.48H93.5232V74H92.1792ZM101.941 66.668H99.1087V74H97.7527V66.668H94.9087V65.48H101.941V66.668ZM38.4516 81.484C38.3716 81.396 38.2556 81.304 38.1036 81.208C37.9516 81.104 37.7716 81.008 37.5636 80.92C37.3556 80.832 37.1316 80.76 36.8916 80.704C36.6516 80.648 36.4036 80.62 36.1476 80.62C35.5876 80.62 35.1716 80.724 34.8996 80.932C34.6276 81.14 34.4916 81.428 34.4916 81.796C34.4916 82.068 34.5676 82.284 34.7196 82.444C34.8716 82.596 35.1036 82.724 35.4156 82.828C35.7276 82.932 36.1196 83.044 36.5916 83.164C37.1676 83.3 37.6676 83.464 38.0916 83.656C38.5156 83.84 38.8396 84.088 39.0636 84.4C39.2876 84.712 39.3996 85.124 39.3996 85.636C39.3996 86.068 39.3196 86.44 39.1596 86.752C38.9996 87.064 38.7756 87.32 38.4876 87.52C38.1996 87.712 37.8676 87.856 37.4916 87.952C37.1156 88.04 36.7116 88.084 36.2796 88.084C35.8556 88.084 35.4316 88.04 35.0076 87.952C34.5916 87.864 34.1916 87.736 33.8076 87.568C33.4316 87.392 33.0836 87.18 32.7636 86.932L33.3756 85.78C33.4796 85.884 33.6276 86 33.8196 86.128C34.0196 86.248 34.2476 86.364 34.5036 86.476C34.7676 86.588 35.0516 86.684 35.3556 86.764C35.6676 86.836 35.9836 86.872 36.3036 86.872C36.8396 86.872 37.2476 86.78 37.5276 86.596C37.8156 86.404 37.9596 86.132 37.9596 85.78C37.9596 85.492 37.8676 85.264 37.6836 85.096C37.4996 84.92 37.2316 84.772 36.8796 84.652C36.5276 84.532 36.1076 84.412 35.6196 84.292C35.0596 84.14 34.5916 83.976 34.2156 83.8C33.8396 83.616 33.5556 83.384 33.3636 83.104C33.1796 82.816 33.0876 82.452 33.0876 82.012C33.0876 81.452 33.2236 80.98 33.4956 80.596C33.7676 80.204 34.1356 79.912 34.5996 79.72C35.0716 79.52 35.5996 79.42 36.1836 79.42C36.5676 79.42 36.9316 79.464 37.2756 79.552C37.6196 79.632 37.9396 79.744 38.2356 79.888C38.5396 80.032 38.8156 80.196 39.0636 80.38L38.4516 81.484ZM44.1826 87.676C44.0706 87.732 43.9306 87.792 43.7626 87.856C43.5946 87.92 43.4026 87.976 43.1866 88.024C42.9786 88.072 42.7626 88.096 42.5386 88.096C42.2666 88.096 42.0146 88.048 41.7826 87.952C41.5506 87.856 41.3626 87.704 41.2186 87.496C41.0826 87.28 41.0146 87.004 41.0146 86.668V82.744H40.1866V81.724H41.0146V79.66H42.3346V81.724H43.7026V82.744H42.3346V86.248C42.3506 86.464 42.4186 86.624 42.5386 86.728C42.6666 86.832 42.8226 86.884 43.0066 86.884C43.1906 86.884 43.3666 86.852 43.5346 86.788C43.7026 86.724 43.8266 86.672 43.9066 86.632L44.1826 87.676ZM44.8808 86.164C44.8808 85.764 44.9928 85.416 45.2168 85.12C45.4488 84.816 45.7648 84.584 46.1648 84.424C46.5648 84.256 47.0288 84.172 47.5568 84.172C47.8368 84.172 48.1208 84.192 48.4088 84.232C48.7048 84.272 48.9648 84.336 49.1888 84.424V84.028C49.1888 83.588 49.0568 83.244 48.7928 82.996C48.5288 82.748 48.1488 82.624 47.6528 82.624C47.3008 82.624 46.9688 82.688 46.6568 82.816C46.3448 82.936 46.0128 83.108 45.6608 83.332L45.2168 82.444C45.6328 82.164 46.0488 81.956 46.4648 81.82C46.8888 81.684 47.3328 81.616 47.7968 81.616C48.6368 81.616 49.2968 81.84 49.7768 82.288C50.2648 82.728 50.5088 83.356 50.5088 84.172V86.512C50.5088 86.664 50.5328 86.772 50.5808 86.836C50.6368 86.9 50.7288 86.936 50.8568 86.944V88C50.7368 88.024 50.6288 88.04 50.5328 88.048C50.4368 88.056 50.3568 88.06 50.2928 88.06C50.0128 88.06 49.8008 87.992 49.6568 87.856C49.5128 87.72 49.4288 87.56 49.4048 87.376L49.3688 87.016C49.0968 87.368 48.7488 87.64 48.3248 87.832C47.9008 88.024 47.4728 88.12 47.0408 88.12C46.6248 88.12 46.2528 88.036 45.9248 87.868C45.5968 87.692 45.3408 87.456 45.1568 87.16C44.9728 86.864 44.8808 86.532 44.8808 86.164ZM48.8768 86.548C48.9728 86.444 49.0488 86.34 49.1048 86.236C49.1608 86.132 49.1888 86.04 49.1888 85.96V85.24C48.9648 85.152 48.7288 85.088 48.4808 85.048C48.2328 85 47.9888 84.976 47.7488 84.976C47.2688 84.976 46.8768 85.072 46.5728 85.264C46.2768 85.456 46.1288 85.72 46.1288 86.056C46.1288 86.24 46.1768 86.416 46.2728 86.584C46.3768 86.752 46.5208 86.888 46.7048 86.992C46.8968 87.096 47.1328 87.148 47.4128 87.148C47.7008 87.148 47.9768 87.092 48.2408 86.98C48.5048 86.868 48.7168 86.724 48.8768 86.548ZM52.6751 88V82.9H51.8351V81.88H52.6751V81.784C52.6751 81.384 52.7591 81.016 52.9271 80.68C53.0951 80.344 53.3351 80.076 53.6471 79.876C53.9671 79.668 54.3431 79.564 54.7751 79.564C55.0711 79.564 55.3431 79.6 55.5911 79.672C55.8391 79.744 56.0831 79.836 56.3231 79.948L56.0111 80.968C55.8351 80.864 55.6671 80.792 55.5071 80.752C55.3551 80.712 55.1991 80.692 55.0391 80.692C54.8631 80.692 54.7111 80.724 54.5831 80.788C54.4551 80.844 54.3471 80.924 54.2591 81.028C54.1711 81.124 54.1031 81.236 54.0551 81.364C54.0151 81.484 53.9951 81.608 53.9951 81.736V81.88H55.6031V82.9H53.9951V88H52.6751ZM55.6871 82.9H54.8471V81.88H55.6871V81.628C55.6871 81.3 55.7391 80.988 55.8431 80.692C55.9471 80.388 56.1031 80.12 56.3111 79.888C56.5191 79.648 56.7711 79.46 57.0671 79.324C57.3711 79.188 57.7231 79.12 58.1231 79.12C58.4191 79.12 58.6951 79.152 58.9511 79.216C59.2071 79.28 59.4431 79.368 59.6591 79.48C59.8831 79.584 60.0831 79.696 60.2591 79.816L59.7191 80.8C59.5351 80.64 59.3071 80.508 59.0351 80.404C58.7711 80.3 58.4911 80.248 58.1951 80.248C57.9311 80.248 57.7071 80.312 57.5231 80.44C57.3471 80.568 57.2151 80.736 57.1271 80.944C57.0471 81.152 57.0071 81.368 57.0071 81.592V81.88H60.2951V88H58.9751V82.9H57.0071V88H55.6871V82.9ZM67.7339 88H66.4139V84.484C66.4139 83.9 66.3179 83.472 66.1259 83.2C65.9419 82.928 65.6659 82.792 65.2979 82.792C65.0419 82.792 64.7859 82.856 64.5299 82.984C64.2819 83.112 64.0579 83.288 63.8579 83.512C63.6579 83.728 63.5139 83.98 63.4259 84.268V88H62.1059V81.724H63.3059V82.984C63.4659 82.704 63.6739 82.464 63.9299 82.264C64.1939 82.056 64.4899 81.896 64.8179 81.784C65.1459 81.672 65.4939 81.616 65.8619 81.616C66.2379 81.616 66.5459 81.684 66.7859 81.82C67.0339 81.956 67.2259 82.144 67.3619 82.384C67.5059 82.616 67.6019 82.888 67.6499 83.2C67.7059 83.504 67.7339 83.828 67.7339 84.172V88ZM71.9901 88.06C71.5661 88.06 71.1781 87.976 70.8261 87.808C70.4741 87.632 70.1701 87.396 69.9141 87.1C69.6661 86.804 69.4701 86.464 69.3261 86.08C69.1901 85.696 69.1221 85.292 69.1221 84.868C69.1221 84.42 69.1941 84 69.3381 83.608C69.4821 83.216 69.6821 82.872 69.9381 82.576C70.2021 82.272 70.5101 82.036 70.8621 81.868C71.2141 81.7 71.6061 81.616 72.0381 81.616C72.5421 81.616 72.9821 81.736 73.3581 81.976C73.7421 82.216 74.0581 82.528 74.3061 82.912V81.724H75.4701V87.82C75.4701 88.428 75.3221 88.944 75.0261 89.368C74.7381 89.792 74.3421 90.116 73.8381 90.34C73.3341 90.564 72.7661 90.676 72.1341 90.676C71.4381 90.676 70.8621 90.556 70.4061 90.316C69.9501 90.076 69.5621 89.748 69.2421 89.332L69.9861 88.636C70.2261 88.972 70.5341 89.228 70.9101 89.404C71.2941 89.58 71.7021 89.668 72.1341 89.668C72.4941 89.668 72.8261 89.6 73.1301 89.464C73.4421 89.336 73.6901 89.132 73.8741 88.852C74.0581 88.58 74.1501 88.236 74.1501 87.82V86.86C73.9261 87.236 73.6181 87.532 73.2261 87.748C72.8341 87.956 72.4221 88.06 71.9901 88.06ZM72.4221 86.992C72.6221 86.992 72.8141 86.96 72.9981 86.896C73.1821 86.824 73.3501 86.732 73.5021 86.62C73.6621 86.5 73.7981 86.368 73.9101 86.224C74.0221 86.072 74.1021 85.912 74.1501 85.744V84.1C74.0461 83.828 73.8981 83.592 73.7061 83.392C73.5141 83.184 73.2981 83.024 73.0581 82.912C72.8181 82.8 72.5741 82.744 72.3261 82.744C72.0381 82.744 71.7781 82.808 71.5461 82.936C71.3221 83.056 71.1301 83.22 70.9701 83.428C70.8101 83.628 70.6861 83.856 70.5981 84.112C70.5101 84.368 70.4661 84.632 70.4661 84.904C70.4661 85.192 70.5141 85.46 70.6101 85.708C70.7141 85.956 70.8541 86.18 71.0301 86.38C71.2061 86.572 71.4141 86.724 71.6541 86.836C71.8941 86.94 72.1501 86.992 72.4221 86.992ZM80.0418 86.164C80.0418 85.764 80.1538 85.416 80.3778 85.12C80.6098 84.816 80.9258 84.584 81.3258 84.424C81.7258 84.256 82.1898 84.172 82.7178 84.172C82.9978 84.172 83.2818 84.192 83.5698 84.232C83.8658 84.272 84.1258 84.336 84.3498 84.424V84.028C84.3498 83.588 84.2178 83.244 83.9538 82.996C83.6898 82.748 83.3098 82.624 82.8138 82.624C82.4618 82.624 82.1298 82.688 81.8178 82.816C81.5058 82.936 81.1738 83.108 80.8218 83.332L80.3778 82.444C80.7938 82.164 81.2098 81.956 81.6258 81.82C82.0498 81.684 82.4938 81.616 82.9578 81.616C83.7978 81.616 84.4578 81.84 84.9378 82.288C85.4258 82.728 85.6698 83.356 85.6698 84.172V86.512C85.6698 86.664 85.6938 86.772 85.7418 86.836C85.7978 86.9 85.8898 86.936 86.0178 86.944V88C85.8978 88.024 85.7898 88.04 85.6938 88.048C85.5978 88.056 85.5178 88.06 85.4538 88.06C85.1738 88.06 84.9618 87.992 84.8178 87.856C84.6738 87.72 84.5898 87.56 84.5658 87.376L84.5298 87.016C84.2578 87.368 83.9098 87.64 83.4858 87.832C83.0618 88.024 82.6338 88.12 82.2018 88.12C81.7858 88.12 81.4138 88.036 81.0858 87.868C80.7578 87.692 80.5018 87.456 80.3178 87.16C80.1338 86.864 80.0418 86.532 80.0418 86.164ZM84.0378 86.548C84.1338 86.444 84.2098 86.34 84.2658 86.236C84.3218 86.132 84.3498 86.04 84.3498 85.96V85.24C84.1258 85.152 83.8898 85.088 83.6418 85.048C83.3938 85 83.1498 84.976 82.9098 84.976C82.4298 84.976 82.0378 85.072 81.7338 85.264C81.4378 85.456 81.2898 85.72 81.2898 86.056C81.2898 86.24 81.3378 86.416 81.4338 86.584C81.5378 86.752 81.6818 86.888 81.8658 86.992C82.0578 87.096 82.2938 87.148 82.5738 87.148C82.8618 87.148 83.1378 87.092 83.4018 86.98C83.6658 86.868 83.8778 86.724 84.0378 86.548ZM93.1392 88H91.8192V84.484C91.8192 83.9 91.7232 83.472 91.5312 83.2C91.3472 82.928 91.0712 82.792 90.7032 82.792C90.4472 82.792 90.1912 82.856 89.9352 82.984C89.6872 83.112 89.4632 83.288 89.2632 83.512C89.0632 83.728 88.9192 83.98 88.8312 84.268V88H87.5112V81.724H88.7112V82.984C88.8712 82.704 89.0792 82.464 89.3352 82.264C89.5992 82.056 89.8952 81.896 90.2232 81.784C90.5512 81.672 90.8992 81.616 91.2672 81.616C91.6432 81.616 91.9512 81.684 92.1912 81.82C92.4392 81.956 92.6312 82.144 92.7672 82.384C92.9112 82.616 93.0072 82.888 93.0552 83.2C93.1112 83.504 93.1392 83.828 93.1392 84.172V88ZM94.5154 84.868C94.5154 84.268 94.6354 83.724 94.8754 83.236C95.1234 82.74 95.4594 82.348 95.8834 82.06C96.3074 81.764 96.7954 81.616 97.3474 81.616C97.8274 81.616 98.2594 81.74 98.6434 81.988C99.0354 82.236 99.3394 82.544 99.5554 82.912V79.24H100.875V86.512C100.875 86.664 100.903 86.772 100.959 86.836C101.015 86.9 101.107 86.936 101.235 86.944V88C100.987 88.04 100.795 88.06 100.659 88.06C100.411 88.06 100.199 87.988 100.023 87.844C99.8554 87.7 99.7674 87.528 99.7594 87.328L99.7474 86.86C99.5074 87.26 99.1834 87.572 98.7754 87.796C98.3674 88.012 97.9434 88.12 97.5034 88.12C97.0714 88.12 96.6714 88.036 96.3034 87.868C95.9434 87.7 95.6274 87.464 95.3554 87.16C95.0914 86.856 94.8834 86.508 94.7314 86.116C94.5874 85.724 94.5154 85.308 94.5154 84.868ZM99.5554 85.744V84.1C99.4674 83.844 99.3234 83.616 99.1234 83.416C98.9314 83.208 98.7114 83.044 98.4634 82.924C98.2234 82.804 97.9834 82.744 97.7434 82.744C97.4634 82.744 97.2074 82.804 96.9754 82.924C96.7514 83.044 96.5554 83.204 96.3874 83.404C96.2274 83.604 96.1034 83.832 96.0154 84.088C95.9274 84.344 95.8834 84.612 95.8834 84.892C95.8834 85.18 95.9314 85.452 96.0274 85.708C96.1234 85.956 96.2594 86.18 96.4354 86.38C96.6194 86.572 96.8274 86.724 97.0594 86.836C97.2994 86.94 97.5594 86.992 97.8394 86.992C98.0154 86.992 98.1914 86.96 98.3674 86.896C98.5514 86.832 98.7234 86.744 98.8834 86.632C99.0514 86.52 99.1914 86.388 99.3034 86.236C99.4234 86.084 99.5074 85.92 99.5554 85.744ZM42.4992 102V93.48H46.2072C46.5912 93.48 46.9432 93.56 47.2632 93.72C47.5832 93.88 47.8592 94.092 48.0912 94.356C48.3312 94.62 48.5152 94.916 48.6432 95.244C48.7792 95.572 48.8472 95.908 48.8472 96.252C48.8472 96.628 48.7792 96.988 48.6432 97.332C48.5072 97.676 48.3112 97.972 48.0552 98.22C47.8072 98.468 47.5152 98.648 47.1792 98.76L49.1832 102H47.6712L45.8232 99.036H43.8432V102H42.4992ZM43.8432 97.848H46.1952C46.4432 97.848 46.6632 97.776 46.8552 97.632C47.0472 97.488 47.1992 97.296 47.3112 97.056C47.4232 96.808 47.4792 96.54 47.4792 96.252C47.4792 95.956 47.4152 95.692 47.2872 95.46C47.1592 95.22 46.9912 95.028 46.7832 94.884C46.5832 94.74 46.3632 94.668 46.1232 94.668H43.8432V97.848ZM53.1496 102.12C52.6616 102.12 52.2176 102.036 51.8176 101.868C51.4256 101.692 51.0856 101.456 50.7976 101.16C50.5096 100.856 50.2856 100.512 50.1256 100.128C49.9736 99.736 49.8976 99.32 49.8976 98.88C49.8976 98.288 50.0336 97.748 50.3056 97.26C50.5776 96.764 50.9576 96.368 51.4456 96.072C51.9336 95.768 52.5056 95.616 53.1616 95.616C53.8176 95.616 54.3816 95.768 54.8536 96.072C55.3336 96.368 55.7056 96.76 55.9696 97.248C56.2336 97.736 56.3656 98.26 56.3656 98.82C56.3656 98.916 56.3616 99.008 56.3536 99.096C56.3456 99.176 56.3376 99.244 56.3296 99.3H51.3016C51.3256 99.668 51.4256 99.992 51.6016 100.272C51.7856 100.544 52.0176 100.76 52.2976 100.92C52.5776 101.072 52.8776 101.148 53.1976 101.148C53.5496 101.148 53.8816 101.06 54.1936 100.884C54.5136 100.708 54.7296 100.476 54.8416 100.188L55.9696 100.512C55.8336 100.816 55.6256 101.092 55.3456 101.34C55.0736 101.58 54.7496 101.772 54.3736 101.916C53.9976 102.052 53.5896 102.12 53.1496 102.12ZM51.2656 98.424H55.0576C55.0336 98.064 54.9296 97.748 54.7456 97.476C54.5696 97.196 54.3416 96.98 54.0616 96.828C53.7896 96.668 53.4856 96.588 53.1496 96.588C52.8216 96.588 52.5176 96.668 52.2376 96.828C51.9656 96.98 51.7416 97.196 51.5656 97.476C51.3896 97.748 51.2896 98.064 51.2656 98.424ZM60.5263 102.12C60.0383 102.12 59.5943 102.036 59.1943 101.868C58.8023 101.692 58.4623 101.452 58.1743 101.148C57.8863 100.844 57.6623 100.496 57.5023 100.104C57.3503 99.712 57.2743 99.296 57.2743 98.856C57.2743 98.264 57.4063 97.724 57.6703 97.236C57.9423 96.748 58.3183 96.356 58.7983 96.06C59.2863 95.764 59.8623 95.616 60.5263 95.616C61.1663 95.616 61.7223 95.76 62.1943 96.048C62.6743 96.328 63.0263 96.704 63.2503 97.176L61.9663 97.584C61.8223 97.32 61.6183 97.116 61.3543 96.972C61.0983 96.82 60.8143 96.744 60.5023 96.744C60.1503 96.744 59.8303 96.836 59.5423 97.02C59.2623 97.196 59.0383 97.444 58.8703 97.764C58.7103 98.076 58.6303 98.44 58.6303 98.856C58.6303 99.256 58.7143 99.62 58.8823 99.948C59.0503 100.268 59.2743 100.524 59.5543 100.716C59.8423 100.9 60.1623 100.992 60.5143 100.992C60.7303 100.992 60.9383 100.956 61.1383 100.884C61.3463 100.804 61.5263 100.7 61.6783 100.572C61.8303 100.436 61.9383 100.288 62.0023 100.128L63.2983 100.512C63.1623 100.824 62.9583 101.1 62.6863 101.34C62.4223 101.58 62.1063 101.772 61.7383 101.916C61.3783 102.052 60.9743 102.12 60.5263 102.12ZM68.1534 96.864C67.6414 96.872 67.1854 96.988 66.7854 97.212C66.3934 97.436 66.1134 97.752 65.9454 98.16V102H64.6254V95.724H65.8494V97.128C66.0654 96.696 66.3494 96.352 66.7014 96.096C67.0534 95.832 67.4254 95.688 67.8174 95.664C67.8974 95.664 67.9614 95.664 68.0094 95.664C68.0654 95.664 68.1134 95.668 68.1534 95.676V96.864ZM69.2937 99.564V95.724H70.6137V99.3C70.6137 99.86 70.7137 100.284 70.9137 100.572C71.1217 100.852 71.4217 100.992 71.8137 100.992C72.0617 100.992 72.3017 100.94 72.5337 100.836C72.7737 100.732 72.9897 100.58 73.1817 100.38C73.3817 100.172 73.5417 99.924 73.6617 99.636V95.724H74.9817V100.512C74.9817 100.664 75.0097 100.772 75.0657 100.836C75.1217 100.9 75.2137 100.936 75.3417 100.944V102C75.2057 102.024 75.0937 102.04 75.0057 102.048C74.9177 102.056 74.8337 102.06 74.7537 102.06C74.5137 102.06 74.3137 101.996 74.1537 101.868C73.9937 101.732 73.9017 101.56 73.8777 101.352L73.8537 100.728C73.5737 101.184 73.2097 101.532 72.7617 101.772C72.3137 102.004 71.8217 102.12 71.2857 102.12C70.6297 102.12 70.1337 101.904 69.7977 101.472C69.4617 101.04 69.2937 100.404 69.2937 99.564ZM76.9062 102V95.724H78.2262V102H76.9062ZM76.9062 94.692V93.24H78.2262V94.692H76.9062ZM83.5445 101.676C83.4325 101.732 83.2925 101.792 83.1245 101.856C82.9565 101.92 82.7645 101.976 82.5485 102.024C82.3405 102.072 82.1245 102.096 81.9005 102.096C81.6285 102.096 81.3765 102.048 81.1445 101.952C80.9125 101.856 80.7245 101.704 80.5805 101.496C80.4445 101.28 80.3765 101.004 80.3765 100.668V96.744H79.5485V95.724H80.3765V93.66H81.6965V95.724H83.0645V96.744H81.6965V100.248C81.7125 100.464 81.7805 100.624 81.9005 100.728C82.0285 100.832 82.1845 100.884 82.3685 100.884C82.5525 100.884 82.7285 100.852 82.8965 100.788C83.0645 100.724 83.1885 100.672 83.2685 100.632L83.5445 101.676ZM84.6987 102V95.724H86.0187V102H84.6987ZM84.6987 94.692V93.24H86.0187V94.692H84.6987ZM93.473 102H92.153V98.484C92.153 97.9 92.057 97.472 91.865 97.2C91.681 96.928 91.405 96.792 91.037 96.792C90.781 96.792 90.525 96.856 90.269 96.984C90.021 97.112 89.797 97.288 89.597 97.512C89.397 97.728 89.253 97.98 89.165 98.268V102H87.845V95.724H89.045V96.984C89.205 96.704 89.413 96.464 89.669 96.264C89.933 96.056 90.229 95.896 90.557 95.784C90.885 95.672 91.233 95.616 91.601 95.616C91.977 95.616 92.285 95.684 92.525 95.82C92.773 95.956 92.965 96.144 93.101 96.384C93.245 96.616 93.341 96.888 93.389 97.2C93.445 97.504 93.473 97.828 93.473 98.172V102ZM97.7291 102.06C97.3051 102.06 96.9171 101.976 96.5651 101.808C96.2131 101.632 95.9091 101.396 95.6531 101.1C95.4051 100.804 95.2091 100.464 95.0651 100.08C94.9291 99.696 94.8611 99.292 94.8611 98.868C94.8611 98.42 94.9331 98 95.0771 97.608C95.2211 97.216 95.4211 96.872 95.6771 96.576C95.9411 96.272 96.2491 96.036 96.6011 95.868C96.9531 95.7 97.3451 95.616 97.7771 95.616C98.2811 95.616 98.7211 95.736 99.0971 95.976C99.4811 96.216 99.7971 96.528 100.045 96.912V95.724H101.209V101.82C101.209 102.428 101.061 102.944 100.765 103.368C100.477 103.792 100.081 104.116 99.5771 104.34C99.0731 104.564 98.5051 104.676 97.8731 104.676C97.1771 104.676 96.6011 104.556 96.1451 104.316C95.6891 104.076 95.3011 103.748 94.9811 103.332L95.7251 102.636C95.9651 102.972 96.2731 103.228 96.6491 103.404C97.0331 103.58 97.4411 103.668 97.8731 103.668C98.2331 103.668 98.5651 103.6 98.8691 103.464C99.1811 103.336 99.4291 103.132 99.6131 102.852C99.7971 102.58 99.8891 102.236 99.8891 101.82V100.86C99.6651 101.236 99.3571 101.532 98.9651 101.748C98.5731 101.956 98.1611 102.06 97.7291 102.06ZM98.1611 100.992C98.3611 100.992 98.5531 100.96 98.7371 100.896C98.9211 100.824 99.0891 100.732 99.2411 100.62C99.4011 100.5 99.5371 100.368 99.6491 100.224C99.7611 100.072 99.8411 99.912 99.8891 99.744V98.1C99.7851 97.828 99.6371 97.592 99.4451 97.392C99.2531 97.184 99.0371 97.024 98.7971 96.912C98.5571 96.8 98.3131 96.744 98.0651 96.744C97.7771 96.744 97.5171 96.808 97.2851 96.936C97.0611 97.056 96.8691 97.22 96.7091 97.428C96.5491 97.628 96.4251 97.856 96.3371 98.112C96.2491 98.368 96.2051 98.632 96.2051 98.904C96.2051 99.192 96.2531 99.46 96.3491 99.708C96.4531 99.956 96.5931 100.18 96.7691 100.38C96.9451 100.572 97.1531 100.724 97.3931 100.836C97.6331 100.94 97.8891 100.992 98.1611 100.992ZM66.4417 109.976V116H65.0977V107.48H66.2017L71.0257 113.636V107.492H72.3817V116H71.2057L66.4417 109.976ZM77.1074 116.12C76.6194 116.12 76.1754 116.036 75.7754 115.868C75.3834 115.692 75.0434 115.456 74.7554 115.16C74.4674 114.856 74.2434 114.512 74.0834 114.128C73.9314 113.736 73.8554 113.32 73.8554 112.88C73.8554 112.288 73.9914 111.748 74.2634 111.26C74.5354 110.764 74.9154 110.368 75.4034 110.072C75.8914 109.768 76.4634 109.616 77.1194 109.616C77.7754 109.616 78.3394 109.768 78.8114 110.072C79.2914 110.368 79.6634 110.76 79.9274 111.248C80.1914 111.736 80.3234 112.26 80.3234 112.82C80.3234 112.916 80.3194 113.008 80.3114 113.096C80.3034 113.176 80.2954 113.244 80.2874 113.3H75.2594C75.2834 113.668 75.3834 113.992 75.5594 114.272C75.7434 114.544 75.9754 114.76 76.2554 114.92C76.5354 115.072 76.8354 115.148 77.1554 115.148C77.5074 115.148 77.8394 115.06 78.1514 114.884C78.4714 114.708 78.6874 114.476 78.7994 114.188L79.9274 114.512C79.7914 114.816 79.5834 115.092 79.3034 115.34C79.0314 115.58 78.7074 115.772 78.3314 115.916C77.9554 116.052 77.5474 116.12 77.1074 116.12ZM75.2234 112.424H79.0154C78.9914 112.064 78.8874 111.748 78.7034 111.476C78.5274 111.196 78.2994 110.98 78.0194 110.828C77.7474 110.668 77.4434 110.588 77.1074 110.588C76.7794 110.588 76.4754 110.668 76.1954 110.828C75.9234 110.98 75.6994 111.196 75.5234 111.476C75.3474 111.748 75.2474 112.064 75.2234 112.424ZM84.4841 116.12C83.9961 116.12 83.5521 116.036 83.1521 115.868C82.7601 115.692 82.4201 115.456 82.1321 115.16C81.8441 114.856 81.6201 114.512 81.4601 114.128C81.3081 113.736 81.2321 113.32 81.2321 112.88C81.2321 112.288 81.3681 111.748 81.6401 111.26C81.9121 110.764 82.2921 110.368 82.7801 110.072C83.2681 109.768 83.8401 109.616 84.4961 109.616C85.1521 109.616 85.7161 109.768 86.1881 110.072C86.6681 110.368 87.0401 110.76 87.3041 111.248C87.5681 111.736 87.7001 112.26 87.7001 112.82C87.7001 112.916 87.6961 113.008 87.6881 113.096C87.6801 113.176 87.6721 113.244 87.6641 113.3H82.6361C82.6601 113.668 82.7601 113.992 82.9361 114.272C83.1201 114.544 83.3521 114.76 83.6321 114.92C83.9121 115.072 84.2121 115.148 84.5321 115.148C84.8841 115.148 85.2161 115.06 85.5281 114.884C85.8481 114.708 86.0641 114.476 86.1761 114.188L87.3041 114.512C87.1681 114.816 86.9601 115.092 86.6801 115.34C86.4081 115.58 86.0841 115.772 85.7081 115.916C85.3321 116.052 84.9241 116.12 84.4841 116.12ZM82.6001 112.424H86.3921C86.3681 112.064 86.2641 111.748 86.0801 111.476C85.9041 111.196 85.6761 110.98 85.3961 110.828C85.1241 110.668 84.8201 110.588 84.4841 110.588C84.1561 110.588 83.8521 110.668 83.5721 110.828C83.3001 110.98 83.0761 111.196 82.9001 111.476C82.7241 111.748 82.6241 112.064 82.6001 112.424ZM88.6208 112.868C88.6208 112.268 88.7408 111.724 88.9808 111.236C89.2288 110.74 89.5648 110.348 89.9888 110.06C90.4128 109.764 90.9008 109.616 91.4528 109.616C91.9328 109.616 92.3648 109.74 92.7488 109.988C93.1408 110.236 93.4448 110.544 93.6608 110.912V107.24H94.9808V114.512C94.9808 114.664 95.0088 114.772 95.0648 114.836C95.1208 114.9 95.2128 114.936 95.3408 114.944V116C95.0928 116.04 94.9008 116.06 94.7648 116.06C94.5168 116.06 94.3048 115.988 94.1288 115.844C93.9608 115.7 93.8728 115.528 93.8648 115.328L93.8528 114.86C93.6128 115.26 93.2888 115.572 92.8808 115.796C92.4728 116.012 92.0488 116.12 91.6088 116.12C91.1768 116.12 90.7768 116.036 90.4088 115.868C90.0488 115.7 89.7328 115.464 89.4608 115.16C89.1968 114.856 88.9888 114.508 88.8368 114.116C88.6928 113.724 88.6208 113.308 88.6208 112.868ZM93.6608 113.744V112.1C93.5728 111.844 93.4288 111.616 93.2288 111.416C93.0368 111.208 92.8168 111.044 92.5688 110.924C92.3288 110.804 92.0888 110.744 91.8488 110.744C91.5688 110.744 91.3128 110.804 91.0808 110.924C90.8568 111.044 90.6608 111.204 90.4928 111.404C90.3328 111.604 90.2088 111.832 90.1208 112.088C90.0328 112.344 89.9888 112.612 89.9888 112.892C89.9888 113.18 90.0368 113.452 90.1328 113.708C90.2288 113.956 90.3648 114.18 90.5408 114.38C90.7248 114.572 90.9328 114.724 91.1648 114.836C91.4048 114.94 91.6648 114.992 91.9448 114.992C92.1208 114.992 92.2968 114.96 92.4728 114.896C92.6568 114.832 92.8288 114.744 92.9888 114.632C93.1568 114.52 93.2968 114.388 93.4088 114.236C93.5288 114.084 93.6128 113.92 93.6608 113.744ZM99.1295 116.12C98.6015 116.12 98.1015 116.036 97.6295 115.868C97.1575 115.692 96.7535 115.432 96.4175 115.088L96.9095 114.2C97.2695 114.52 97.6295 114.752 97.9895 114.896C98.3575 115.04 98.7215 115.112 99.0815 115.112C99.4495 115.112 99.7495 115.044 99.9815 114.908C100.213 114.764 100.329 114.556 100.329 114.284C100.329 114.084 100.269 113.936 100.149 113.84C100.029 113.744 99.8535 113.66 99.6215 113.588C99.3975 113.516 99.1255 113.436 98.8055 113.348C98.3575 113.212 97.9815 113.072 97.6775 112.928C97.3735 112.776 97.1455 112.592 96.9935 112.376C96.8415 112.16 96.7655 111.884 96.7655 111.548C96.7655 111.14 96.8695 110.792 97.0775 110.504C97.2855 110.216 97.5735 109.996 97.9415 109.844C98.3175 109.692 98.7495 109.616 99.2375 109.616C99.6935 109.616 100.113 109.688 100.497 109.832C100.889 109.968 101.233 110.184 101.529 110.48L100.965 111.356C100.685 111.1 100.397 110.912 100.101 110.792C99.8135 110.672 99.5015 110.612 99.1655 110.612C98.9735 110.612 98.7895 110.636 98.6135 110.684C98.4375 110.724 98.2895 110.804 98.1695 110.924C98.0575 111.036 98.0015 111.196 98.0015 111.404C98.0015 111.572 98.0495 111.708 98.1455 111.812C98.2415 111.916 98.3855 112.004 98.5775 112.076C98.7695 112.148 99.0055 112.228 99.2855 112.316C99.7735 112.46 100.189 112.604 100.533 112.748C100.877 112.884 101.141 113.064 101.325 113.288C101.517 113.504 101.613 113.804 101.613 114.188C101.613 114.796 101.385 115.272 100.929 115.616C100.481 115.952 99.8815 116.12 99.1295 116.12Z" fill="#F48400"/>
<path d="M194.5 84.06C193.884 84.06 193.328 83.94 192.832 83.7C192.336 83.46 191.908 83.136 191.548 82.728C191.188 82.312 190.908 81.848 190.708 81.336C190.516 80.816 190.42 80.284 190.42 79.74C190.42 79.172 190.524 78.632 190.732 78.12C190.94 77.6 191.228 77.14 191.596 76.74C191.964 76.332 192.396 76.012 192.892 75.78C193.396 75.54 193.94 75.42 194.524 75.42C195.132 75.42 195.684 75.544 196.18 75.792C196.684 76.04 197.112 76.372 197.464 76.788C197.824 77.204 198.1 77.668 198.292 78.18C198.492 78.692 198.592 79.216 198.592 79.752C198.592 80.32 198.488 80.864 198.28 81.384C198.08 81.896 197.796 82.356 197.428 82.764C197.06 83.164 196.624 83.48 196.12 83.712C195.624 83.944 195.084 84.06 194.5 84.06ZM191.788 79.74C191.788 80.14 191.852 80.528 191.98 80.904C192.108 81.28 192.288 81.616 192.52 81.912C192.76 82.2 193.048 82.428 193.384 82.596C193.72 82.764 194.096 82.848 194.512 82.848C194.944 82.848 195.328 82.76 195.664 82.584C196 82.408 196.28 82.172 196.504 81.876C196.736 81.572 196.912 81.236 197.032 80.868C197.152 80.492 197.212 80.116 197.212 79.74C197.212 79.34 197.148 78.956 197.02 78.588C196.9 78.212 196.72 77.88 196.48 77.592C196.24 77.296 195.952 77.064 195.616 76.896C195.288 76.728 194.92 76.644 194.512 76.644C194.08 76.644 193.696 76.732 193.36 76.908C193.024 77.084 192.74 77.32 192.508 77.616C192.276 77.912 192.096 78.244 191.968 78.612C191.848 78.98 191.788 79.356 191.788 79.74ZM199.995 81.564V77.724H201.315V81.3C201.315 81.86 201.415 82.284 201.615 82.572C201.823 82.852 202.123 82.992 202.515 82.992C202.763 82.992 203.003 82.94 203.235 82.836C203.475 82.732 203.691 82.58 203.883 82.38C204.083 82.172 204.243 81.924 204.363 81.636V77.724H205.683V82.512C205.683 82.664 205.711 82.772 205.767 82.836C205.823 82.9 205.915 82.936 206.043 82.944V84C205.907 84.024 205.795 84.04 205.707 84.048C205.619 84.056 205.535 84.06 205.455 84.06C205.215 84.06 205.015 83.996 204.855 83.868C204.695 83.732 204.603 83.56 204.579 83.352L204.555 82.728C204.275 83.184 203.911 83.532 203.463 83.772C203.015 84.004 202.523 84.12 201.987 84.12C201.331 84.12 200.835 83.904 200.499 83.472C200.163 83.04 199.995 82.404 199.995 81.564ZM211.136 78.864C210.624 78.872 210.168 78.988 209.768 79.212C209.376 79.436 209.096 79.752 208.928 80.16V84H207.608V77.724H208.832V79.128C209.048 78.696 209.332 78.352 209.684 78.096C210.036 77.832 210.408 77.688 210.8 77.664C210.88 77.664 210.944 77.664 210.992 77.664C211.048 77.664 211.096 77.668 211.136 77.676V78.864ZM215.44 84V75.48H216.784V82.812H221.356V84H215.44ZM225.281 84.12C224.785 84.12 224.341 84.036 223.949 83.868C223.557 83.692 223.217 83.452 222.929 83.148C222.649 82.844 222.433 82.5 222.281 82.116C222.129 81.724 222.053 81.308 222.053 80.868C222.053 80.428 222.129 80.012 222.281 79.62C222.433 79.228 222.649 78.884 222.929 78.588C223.217 78.284 223.557 78.048 223.949 77.88C224.349 77.704 224.793 77.616 225.281 77.616C225.769 77.616 226.209 77.704 226.601 77.88C227.001 78.048 227.341 78.284 227.621 78.588C227.909 78.884 228.129 79.228 228.281 79.62C228.433 80.012 228.509 80.428 228.509 80.868C228.509 81.308 228.433 81.724 228.281 82.116C228.129 82.5 227.909 82.844 227.621 83.148C227.341 83.452 227.001 83.692 226.601 83.868C226.209 84.036 225.769 84.12 225.281 84.12ZM223.409 80.88C223.409 81.28 223.493 81.64 223.661 81.96C223.829 82.28 224.053 82.532 224.333 82.716C224.613 82.9 224.929 82.992 225.281 82.992C225.625 82.992 225.937 82.9 226.217 82.716C226.505 82.524 226.733 82.268 226.901 81.948C227.069 81.62 227.153 81.26 227.153 80.868C227.153 80.468 227.069 80.108 226.901 79.788C226.733 79.468 226.505 79.216 226.217 79.032C225.937 78.84 225.625 78.744 225.281 78.744C224.929 78.744 224.613 78.84 224.333 79.032C224.053 79.224 223.829 79.48 223.661 79.8C223.493 80.112 223.409 80.472 223.409 80.88ZM232.763 84.12C232.275 84.12 231.831 84.036 231.431 83.868C231.039 83.692 230.699 83.452 230.411 83.148C230.123 82.844 229.899 82.496 229.739 82.104C229.587 81.712 229.511 81.296 229.511 80.856C229.511 80.264 229.643 79.724 229.907 79.236C230.179 78.748 230.555 78.356 231.035 78.06C231.523 77.764 232.099 77.616 232.763 77.616C233.403 77.616 233.959 77.76 234.431 78.048C234.911 78.328 235.263 78.704 235.487 79.176L234.203 79.584C234.059 79.32 233.855 79.116 233.591 78.972C233.335 78.82 233.051 78.744 232.739 78.744C232.387 78.744 232.067 78.836 231.779 79.02C231.499 79.196 231.275 79.444 231.107 79.764C230.947 80.076 230.867 80.44 230.867 80.856C230.867 81.256 230.951 81.62 231.119 81.948C231.287 82.268 231.511 82.524 231.791 82.716C232.079 82.9 232.399 82.992 232.751 82.992C232.967 82.992 233.175 82.956 233.375 82.884C233.583 82.804 233.763 82.7 233.915 82.572C234.067 82.436 234.175 82.288 234.239 82.128L235.535 82.512C235.399 82.824 235.195 83.1 234.923 83.34C234.659 83.58 234.343 83.772 233.975 83.916C233.615 84.052 233.211 84.12 232.763 84.12ZM236.407 82.164C236.407 81.764 236.519 81.416 236.743 81.12C236.975 80.816 237.291 80.584 237.691 80.424C238.091 80.256 238.555 80.172 239.083 80.172C239.363 80.172 239.647 80.192 239.935 80.232C240.231 80.272 240.491 80.336 240.715 80.424V80.028C240.715 79.588 240.583 79.244 240.319 78.996C240.055 78.748 239.675 78.624 239.179 78.624C238.827 78.624 238.495 78.688 238.183 78.816C237.871 78.936 237.539 79.108 237.187 79.332L236.743 78.444C237.159 78.164 237.575 77.956 237.991 77.82C238.415 77.684 238.859 77.616 239.323 77.616C240.163 77.616 240.823 77.84 241.303 78.288C241.791 78.728 242.035 79.356 242.035 80.172V82.512C242.035 82.664 242.059 82.772 242.107 82.836C242.163 82.9 242.255 82.936 242.383 82.944V84C242.263 84.024 242.155 84.04 242.059 84.048C241.963 84.056 241.883 84.06 241.819 84.06C241.539 84.06 241.327 83.992 241.183 83.856C241.039 83.72 240.955 83.56 240.931 83.376L240.895 83.016C240.623 83.368 240.275 83.64 239.851 83.832C239.427 84.024 238.999 84.12 238.567 84.12C238.151 84.12 237.779 84.036 237.451 83.868C237.123 83.692 236.867 83.456 236.683 83.16C236.499 82.864 236.407 82.532 236.407 82.164ZM240.403 82.548C240.499 82.444 240.575 82.34 240.631 82.236C240.687 82.132 240.715 82.04 240.715 81.96V81.24C240.491 81.152 240.255 81.088 240.007 81.048C239.759 81 239.515 80.976 239.275 80.976C238.795 80.976 238.403 81.072 238.099 81.264C237.803 81.456 237.655 81.72 237.655 82.056C237.655 82.24 237.703 82.416 237.799 82.584C237.903 82.752 238.047 82.888 238.231 82.992C238.423 83.096 238.659 83.148 238.939 83.148C239.227 83.148 239.503 83.092 239.767 82.98C240.031 82.868 240.243 82.724 240.403 82.548ZM243.888 75.24H245.208V82.188C245.208 82.508 245.256 82.712 245.352 82.8C245.448 82.888 245.568 82.932 245.712 82.932C245.872 82.932 246.02 82.916 246.156 82.884C246.3 82.852 246.424 82.812 246.528 82.764L246.72 83.808C246.528 83.888 246.3 83.956 246.036 84.012C245.772 84.068 245.536 84.096 245.328 84.096C244.88 84.096 244.528 83.972 244.272 83.724C244.016 83.468 243.888 83.116 243.888 82.668V75.24ZM250.134 82.164C250.134 81.764 250.246 81.416 250.47 81.12C250.702 80.816 251.018 80.584 251.418 80.424C251.818 80.256 252.282 80.172 252.81 80.172C253.09 80.172 253.374 80.192 253.662 80.232C253.958 80.272 254.218 80.336 254.442 80.424V80.028C254.442 79.588 254.31 79.244 254.046 78.996C253.782 78.748 253.402 78.624 252.906 78.624C252.554 78.624 252.222 78.688 251.91 78.816C251.598 78.936 251.266 79.108 250.914 79.332L250.47 78.444C250.886 78.164 251.302 77.956 251.718 77.82C252.142 77.684 252.586 77.616 253.05 77.616C253.89 77.616 254.55 77.84 255.03 78.288C255.518 78.728 255.762 79.356 255.762 80.172V82.512C255.762 82.664 255.786 82.772 255.834 82.836C255.89 82.9 255.982 82.936 256.11 82.944V84C255.99 84.024 255.882 84.04 255.786 84.048C255.69 84.056 255.61 84.06 255.546 84.06C255.266 84.06 255.054 83.992 254.91 83.856C254.766 83.72 254.682 83.56 254.658 83.376L254.622 83.016C254.35 83.368 254.002 83.64 253.578 83.832C253.154 84.024 252.726 84.12 252.294 84.12C251.878 84.12 251.506 84.036 251.178 83.868C250.85 83.692 250.594 83.456 250.41 83.16C250.226 82.864 250.134 82.532 250.134 82.164ZM254.13 82.548C254.226 82.444 254.302 82.34 254.358 82.236C254.414 82.132 254.442 82.04 254.442 81.96V81.24C254.218 81.152 253.982 81.088 253.734 81.048C253.486 81 253.242 80.976 253.002 80.976C252.522 80.976 252.13 81.072 251.826 81.264C251.53 81.456 251.382 81.72 251.382 82.056C251.382 82.24 251.43 82.416 251.526 82.584C251.63 82.752 251.774 82.888 251.958 82.992C252.15 83.096 252.386 83.148 252.666 83.148C252.954 83.148 253.23 83.092 253.494 82.98C253.758 82.868 253.97 82.724 254.13 82.548ZM263.232 84H261.912V80.484C261.912 79.9 261.816 79.472 261.624 79.2C261.44 78.928 261.164 78.792 260.796 78.792C260.54 78.792 260.284 78.856 260.028 78.984C259.78 79.112 259.556 79.288 259.356 79.512C259.156 79.728 259.012 79.98 258.924 80.268V84H257.604V77.724H258.804V78.984C258.964 78.704 259.172 78.464 259.428 78.264C259.692 78.056 259.988 77.896 260.316 77.784C260.644 77.672 260.992 77.616 261.36 77.616C261.736 77.616 262.044 77.684 262.284 77.82C262.532 77.956 262.724 78.144 262.86 78.384C263.004 78.616 263.1 78.888 263.148 79.2C263.204 79.504 263.232 79.828 263.232 80.172V84ZM264.608 80.868C264.608 80.268 264.728 79.724 264.968 79.236C265.216 78.74 265.552 78.348 265.976 78.06C266.4 77.764 266.888 77.616 267.44 77.616C267.92 77.616 268.352 77.74 268.736 77.988C269.128 78.236 269.432 78.544 269.648 78.912V75.24H270.968V82.512C270.968 82.664 270.996 82.772 271.052 82.836C271.108 82.9 271.2 82.936 271.328 82.944V84C271.08 84.04 270.888 84.06 270.752 84.06C270.504 84.06 270.292 83.988 270.116 83.844C269.948 83.7 269.86 83.528 269.852 83.328L269.84 82.86C269.6 83.26 269.276 83.572 268.868 83.796C268.46 84.012 268.036 84.12 267.596 84.12C267.164 84.12 266.764 84.036 266.396 83.868C266.036 83.7 265.72 83.464 265.448 83.16C265.184 82.856 264.976 82.508 264.824 82.116C264.68 81.724 264.608 81.308 264.608 80.868ZM269.648 81.744V80.1C269.56 79.844 269.416 79.616 269.216 79.416C269.024 79.208 268.804 79.044 268.556 78.924C268.316 78.804 268.076 78.744 267.836 78.744C267.556 78.744 267.3 78.804 267.068 78.924C266.844 79.044 266.648 79.204 266.48 79.404C266.32 79.604 266.196 79.832 266.108 80.088C266.02 80.344 265.976 80.612 265.976 80.892C265.976 81.18 266.024 81.452 266.12 81.708C266.216 81.956 266.352 82.18 266.528 82.38C266.712 82.572 266.92 82.724 267.152 82.836C267.392 82.94 267.652 82.992 267.932 82.992C268.108 82.992 268.284 82.96 268.46 82.896C268.644 82.832 268.816 82.744 268.976 82.632C269.144 82.52 269.284 82.388 269.396 82.236C269.516 82.084 269.6 81.92 269.648 81.744ZM192.304 91.976V98H190.96V89.48H192.064L196.888 95.636V89.492H198.244V98H197.068L192.304 91.976ZM202.97 98.12C202.482 98.12 202.038 98.036 201.638 97.868C201.246 97.692 200.906 97.456 200.618 97.16C200.33 96.856 200.106 96.512 199.946 96.128C199.794 95.736 199.718 95.32 199.718 94.88C199.718 94.288 199.854 93.748 200.126 93.26C200.398 92.764 200.778 92.368 201.266 92.072C201.754 91.768 202.326 91.616 202.982 91.616C203.638 91.616 204.202 91.768 204.674 92.072C205.154 92.368 205.526 92.76 205.79 93.248C206.054 93.736 206.186 94.26 206.186 94.82C206.186 94.916 206.182 95.008 206.174 95.096C206.166 95.176 206.158 95.244 206.15 95.3H201.122C201.146 95.668 201.246 95.992 201.422 96.272C201.606 96.544 201.838 96.76 202.118 96.92C202.398 97.072 202.698 97.148 203.018 97.148C203.37 97.148 203.702 97.06 204.014 96.884C204.334 96.708 204.55 96.476 204.662 96.188L205.79 96.512C205.654 96.816 205.446 97.092 205.166 97.34C204.894 97.58 204.57 97.772 204.194 97.916C203.818 98.052 203.41 98.12 202.97 98.12ZM201.086 94.424H204.878C204.854 94.064 204.75 93.748 204.566 93.476C204.39 93.196 204.162 92.98 203.882 92.828C203.61 92.668 203.306 92.588 202.97 92.588C202.642 92.588 202.338 92.668 202.058 92.828C201.786 92.98 201.562 93.196 201.386 93.476C201.21 93.748 201.11 94.064 201.086 94.424ZM207.046 96.164C207.046 95.764 207.158 95.416 207.382 95.12C207.614 94.816 207.93 94.584 208.33 94.424C208.73 94.256 209.194 94.172 209.722 94.172C210.002 94.172 210.286 94.192 210.574 94.232C210.87 94.272 211.13 94.336 211.354 94.424V94.028C211.354 93.588 211.222 93.244 210.958 92.996C210.694 92.748 210.314 92.624 209.818 92.624C209.466 92.624 209.134 92.688 208.822 92.816C208.51 92.936 208.178 93.108 207.826 93.332L207.382 92.444C207.798 92.164 208.214 91.956 208.63 91.82C209.054 91.684 209.498 91.616 209.962 91.616C210.802 91.616 211.462 91.84 211.942 92.288C212.43 92.728 212.674 93.356 212.674 94.172V96.512C212.674 96.664 212.698 96.772 212.746 96.836C212.802 96.9 212.894 96.936 213.022 96.944V98C212.902 98.024 212.794 98.04 212.698 98.048C212.602 98.056 212.522 98.06 212.458 98.06C212.178 98.06 211.966 97.992 211.822 97.856C211.678 97.72 211.594 97.56 211.57 97.376L211.534 97.016C211.262 97.368 210.914 97.64 210.49 97.832C210.066 98.024 209.638 98.12 209.206 98.12C208.79 98.12 208.418 98.036 208.09 97.868C207.762 97.692 207.506 97.456 207.322 97.16C207.138 96.864 207.046 96.532 207.046 96.164ZM211.042 96.548C211.138 96.444 211.214 96.34 211.27 96.236C211.326 96.132 211.354 96.04 211.354 95.96V95.24C211.13 95.152 210.894 95.088 210.646 95.048C210.398 95 210.154 94.976 209.914 94.976C209.434 94.976 209.042 95.072 208.738 95.264C208.442 95.456 208.294 95.72 208.294 96.056C208.294 96.24 208.342 96.416 208.438 96.584C208.542 96.752 208.686 96.888 208.87 96.992C209.062 97.096 209.298 97.148 209.578 97.148C209.866 97.148 210.142 97.092 210.406 96.98C210.67 96.868 210.882 96.724 211.042 96.548ZM218.044 92.864C217.532 92.872 217.076 92.988 216.676 93.212C216.284 93.436 216.004 93.752 215.836 94.16V98H214.516V91.724H215.74V93.128C215.956 92.696 216.24 92.352 216.592 92.096C216.944 91.832 217.316 91.688 217.708 91.664C217.788 91.664 217.852 91.664 217.9 91.664C217.956 91.664 218.004 91.668 218.044 91.676V92.864ZM221.476 98.12C220.948 98.12 220.448 98.036 219.976 97.868C219.504 97.692 219.1 97.432 218.764 97.088L219.256 96.2C219.616 96.52 219.976 96.752 220.336 96.896C220.704 97.04 221.068 97.112 221.428 97.112C221.796 97.112 222.096 97.044 222.328 96.908C222.56 96.764 222.676 96.556 222.676 96.284C222.676 96.084 222.616 95.936 222.496 95.84C222.376 95.744 222.2 95.66 221.968 95.588C221.744 95.516 221.472 95.436 221.152 95.348C220.704 95.212 220.328 95.072 220.024 94.928C219.72 94.776 219.492 94.592 219.34 94.376C219.188 94.16 219.112 93.884 219.112 93.548C219.112 93.14 219.216 92.792 219.424 92.504C219.632 92.216 219.92 91.996 220.288 91.844C220.664 91.692 221.096 91.616 221.584 91.616C222.04 91.616 222.46 91.688 222.844 91.832C223.236 91.968 223.58 92.184 223.876 92.48L223.312 93.356C223.032 93.1 222.744 92.912 222.448 92.792C222.16 92.672 221.848 92.612 221.512 92.612C221.32 92.612 221.136 92.636 220.96 92.684C220.784 92.724 220.636 92.804 220.516 92.924C220.404 93.036 220.348 93.196 220.348 93.404C220.348 93.572 220.396 93.708 220.492 93.812C220.588 93.916 220.732 94.004 220.924 94.076C221.116 94.148 221.352 94.228 221.632 94.316C222.12 94.46 222.536 94.604 222.88 94.748C223.224 94.884 223.488 95.064 223.672 95.288C223.864 95.504 223.96 95.804 223.96 96.188C223.96 96.796 223.732 97.272 223.276 97.616C222.828 97.952 222.228 98.12 221.476 98.12ZM231.007 98H229.687V94.484C229.687 93.916 229.583 93.492 229.375 93.212C229.167 92.932 228.875 92.792 228.499 92.792C228.267 92.792 228.027 92.856 227.779 92.984C227.531 93.112 227.311 93.288 227.119 93.512C226.927 93.728 226.787 93.98 226.699 94.268V98H225.379V89.24H226.699V92.984C226.939 92.56 227.267 92.228 227.683 91.988C228.099 91.74 228.547 91.616 229.027 91.616C229.419 91.616 229.743 91.684 229.999 91.82C230.255 91.956 230.455 92.144 230.599 92.384C230.751 92.616 230.855 92.888 230.911 93.2C230.975 93.504 231.007 93.828 231.007 94.172V98ZM235.599 98.12C235.103 98.12 234.659 98.036 234.267 97.868C233.875 97.692 233.535 97.452 233.247 97.148C232.967 96.844 232.751 96.5 232.599 96.116C232.447 95.724 232.371 95.308 232.371 94.868C232.371 94.428 232.447 94.012 232.599 93.62C232.751 93.228 232.967 92.884 233.247 92.588C233.535 92.284 233.875 92.048 234.267 91.88C234.667 91.704 235.111 91.616 235.599 91.616C236.087 91.616 236.527 91.704 236.919 91.88C237.319 92.048 237.659 92.284 237.939 92.588C238.227 92.884 238.447 93.228 238.599 93.62C238.751 94.012 238.827 94.428 238.827 94.868C238.827 95.308 238.751 95.724 238.599 96.116C238.447 96.5 238.227 96.844 237.939 97.148C237.659 97.452 237.319 97.692 236.919 97.868C236.527 98.036 236.087 98.12 235.599 98.12ZM233.727 94.88C233.727 95.28 233.811 95.64 233.979 95.96C234.147 96.28 234.371 96.532 234.651 96.716C234.931 96.9 235.247 96.992 235.599 96.992C235.943 96.992 236.255 96.9 236.535 96.716C236.823 96.524 237.051 96.268 237.219 95.948C237.387 95.62 237.471 95.26 237.471 94.868C237.471 94.468 237.387 94.108 237.219 93.788C237.051 93.468 236.823 93.216 236.535 93.032C236.255 92.84 235.943 92.744 235.599 92.744C235.247 92.744 234.931 92.84 234.651 93.032C234.371 93.224 234.147 93.48 233.979 93.8C233.811 94.112 233.727 94.472 233.727 94.88ZM243.766 92.864C243.254 92.872 242.798 92.988 242.398 93.212C242.006 93.436 241.726 93.752 241.558 94.16V98H240.238V91.724H241.462V93.128C241.678 92.696 241.962 92.352 242.314 92.096C242.666 91.832 243.038 91.688 243.43 91.664C243.51 91.664 243.574 91.664 243.622 91.664C243.678 91.664 243.726 91.668 243.766 91.676V92.864ZM247.704 98.12C247.216 98.12 246.772 98.036 246.372 97.868C245.98 97.692 245.64 97.456 245.352 97.16C245.064 96.856 244.84 96.512 244.68 96.128C244.528 95.736 244.452 95.32 244.452 94.88C244.452 94.288 244.588 93.748 244.86 93.26C245.132 92.764 245.512 92.368 246 92.072C246.488 91.768 247.06 91.616 247.716 91.616C248.372 91.616 248.936 91.768 249.408 92.072C249.888 92.368 250.26 92.76 250.524 93.248C250.788 93.736 250.92 94.26 250.92 94.82C250.92 94.916 250.916 95.008 250.908 95.096C250.9 95.176 250.892 95.244 250.884 95.3H245.856C245.88 95.668 245.98 95.992 246.156 96.272C246.34 96.544 246.572 96.76 246.852 96.92C247.132 97.072 247.432 97.148 247.752 97.148C248.104 97.148 248.436 97.06 248.748 96.884C249.068 96.708 249.284 96.476 249.396 96.188L250.524 96.512C250.388 96.816 250.18 97.092 249.9 97.34C249.628 97.58 249.304 97.772 248.928 97.916C248.552 98.052 248.144 98.12 247.704 98.12ZM245.82 94.424H249.612C249.588 94.064 249.484 93.748 249.3 93.476C249.124 93.196 248.896 92.98 248.616 92.828C248.344 92.668 248.04 92.588 247.704 92.588C247.376 92.588 247.072 92.668 246.792 92.828C246.52 92.98 246.296 93.196 246.12 93.476C245.944 93.748 245.844 94.064 245.82 94.424ZM197.212 104.668H194.38V112H193.024V104.668H190.18V103.48H197.212V104.668ZM196.846 110.164C196.846 109.764 196.958 109.416 197.182 109.12C197.414 108.816 197.73 108.584 198.13 108.424C198.53 108.256 198.994 108.172 199.522 108.172C199.802 108.172 200.086 108.192 200.374 108.232C200.67 108.272 200.93 108.336 201.154 108.424V108.028C201.154 107.588 201.022 107.244 200.758 106.996C200.494 106.748 200.114 106.624 199.618 106.624C199.266 106.624 198.934 106.688 198.622 106.816C198.31 106.936 197.978 107.108 197.626 107.332L197.182 106.444C197.598 106.164 198.014 105.956 198.43 105.82C198.854 105.684 199.298 105.616 199.762 105.616C200.602 105.616 201.262 105.84 201.742 106.288C202.23 106.728 202.474 107.356 202.474 108.172V110.512C202.474 110.664 202.498 110.772 202.546 110.836C202.602 110.9 202.694 110.936 202.822 110.944V112C202.702 112.024 202.594 112.04 202.498 112.048C202.402 112.056 202.322 112.06 202.258 112.06C201.978 112.06 201.766 111.992 201.622 111.856C201.478 111.72 201.394 111.56 201.37 111.376L201.334 111.016C201.062 111.368 200.714 111.64 200.29 111.832C199.866 112.024 199.438 112.12 199.006 112.12C198.59 112.12 198.218 112.036 197.89 111.868C197.562 111.692 197.306 111.456 197.122 111.16C196.938 110.864 196.846 110.532 196.846 110.164ZM200.842 110.548C200.938 110.444 201.014 110.34 201.07 110.236C201.126 110.132 201.154 110.04 201.154 109.96V109.24C200.93 109.152 200.694 109.088 200.446 109.048C200.198 109 199.954 108.976 199.714 108.976C199.234 108.976 198.842 109.072 198.538 109.264C198.242 109.456 198.094 109.72 198.094 110.056C198.094 110.24 198.142 110.416 198.238 110.584C198.342 110.752 198.486 110.888 198.67 110.992C198.862 111.096 199.098 111.148 199.378 111.148C199.666 111.148 199.942 111.092 200.206 110.98C200.47 110.868 200.682 110.724 200.842 110.548ZM204.327 103.24H205.647V110.188C205.647 110.508 205.695 110.712 205.791 110.8C205.887 110.888 206.007 110.932 206.151 110.932C206.311 110.932 206.459 110.916 206.595 110.884C206.739 110.852 206.863 110.812 206.967 110.764L207.159 111.808C206.967 111.888 206.739 111.956 206.475 112.012C206.211 112.068 205.975 112.096 205.767 112.096C205.319 112.096 204.967 111.972 204.711 111.724C204.455 111.468 204.327 111.116 204.327 110.668V103.24ZM211.008 112.12C210.52 112.12 210.076 112.036 209.676 111.868C209.284 111.692 208.944 111.456 208.656 111.16C208.368 110.856 208.144 110.512 207.984 110.128C207.832 109.736 207.756 109.32 207.756 108.88C207.756 108.288 207.892 107.748 208.164 107.26C208.436 106.764 208.816 106.368 209.304 106.072C209.792 105.768 210.364 105.616 211.02 105.616C211.676 105.616 212.24 105.768 212.712 106.072C213.192 106.368 213.564 106.76 213.828 107.248C214.092 107.736 214.224 108.26 214.224 108.82C214.224 108.916 214.22 109.008 214.212 109.096C214.204 109.176 214.196 109.244 214.188 109.3H209.16C209.184 109.668 209.284 109.992 209.46 110.272C209.644 110.544 209.876 110.76 210.156 110.92C210.436 111.072 210.736 111.148 211.056 111.148C211.408 111.148 211.74 111.06 212.052 110.884C212.372 110.708 212.588 110.476 212.7 110.188L213.828 110.512C213.692 110.816 213.484 111.092 213.204 111.34C212.932 111.58 212.608 111.772 212.232 111.916C211.856 112.052 211.448 112.12 211.008 112.12ZM209.124 108.424H212.916C212.892 108.064 212.788 107.748 212.604 107.476C212.428 107.196 212.2 106.98 211.92 106.828C211.648 106.668 211.344 106.588 211.008 106.588C210.68 106.588 210.376 106.668 210.096 106.828C209.824 106.98 209.6 107.196 209.424 107.476C209.248 107.748 209.148 108.064 209.124 108.424ZM221.169 112H219.849V108.484C219.849 107.9 219.753 107.472 219.561 107.2C219.377 106.928 219.101 106.792 218.733 106.792C218.477 106.792 218.221 106.856 217.965 106.984C217.717 107.112 217.493 107.288 217.293 107.512C217.093 107.728 216.949 107.98 216.861 108.268V112H215.541V105.724H216.741V106.984C216.901 106.704 217.109 106.464 217.365 106.264C217.629 106.056 217.925 105.896 218.253 105.784C218.581 105.672 218.929 105.616 219.297 105.616C219.673 105.616 219.981 105.684 220.221 105.82C220.469 105.956 220.661 106.144 220.797 106.384C220.941 106.616 221.037 106.888 221.085 107.2C221.141 107.504 221.169 107.828 221.169 108.172V112ZM226.386 111.676C226.274 111.732 226.134 111.792 225.966 111.856C225.798 111.92 225.606 111.976 225.39 112.024C225.182 112.072 224.966 112.096 224.742 112.096C224.47 112.096 224.218 112.048 223.986 111.952C223.754 111.856 223.566 111.704 223.422 111.496C223.286 111.28 223.218 111.004 223.218 110.668V106.744H222.39V105.724H223.218V103.66H224.538V105.724H225.906V106.744H224.538V110.248C224.554 110.464 224.622 110.624 224.742 110.728C224.87 110.832 225.026 110.884 225.21 110.884C225.394 110.884 225.57 110.852 225.738 110.788C225.906 110.724 226.03 110.672 226.11 110.632L226.386 111.676Z" fill="#F48400"/>
<path d="M126.363 87V80.942L123.997 85.453H122.996L120.63 80.942V87H118.836V77.77H120.76L123.49 83.022L126.246 77.77H128.157V87H126.363ZM130.045 87V80.188H131.787V87H130.045ZM130.045 79.239V77.51H131.787V79.239H130.045ZM139.82 87H138.078V83.178C138.078 82.632 137.982 82.2333 137.792 81.982C137.601 81.7307 137.337 81.605 136.999 81.605C136.765 81.605 136.526 81.6657 136.284 81.787C136.05 81.9083 135.837 82.0773 135.647 82.294C135.456 82.502 135.317 82.7447 135.231 83.022V87H133.489V80.188H135.062V81.449C135.235 81.1543 135.456 80.9073 135.725 80.708C135.993 80.5 136.301 80.344 136.648 80.24C137.003 80.1273 137.376 80.071 137.766 80.071C138.19 80.071 138.537 80.149 138.806 80.305C139.083 80.4523 139.291 80.656 139.43 80.916C139.577 81.1673 139.677 81.4533 139.729 81.774C139.789 82.0947 139.82 82.4197 139.82 82.749V87ZM141.464 87V80.188H143.206V87H141.464ZM141.464 79.239V77.51H143.206V79.239H141.464ZM155.49 87H153.748V83.178C153.748 82.6407 153.652 82.2463 153.462 81.995C153.28 81.735 153.024 81.605 152.695 81.605C152.357 81.605 152.032 81.7393 151.72 82.008C151.416 82.268 151.2 82.6103 151.07 83.035V87H149.328V83.178C149.328 82.632 149.232 82.2333 149.042 81.982C148.86 81.7307 148.604 81.605 148.275 81.605C147.937 81.605 147.612 81.735 147.3 81.995C146.996 82.255 146.78 82.5973 146.65 83.022V87H144.908V80.188H146.481V81.449C146.741 81.007 147.087 80.669 147.521 80.435C147.954 80.1923 148.452 80.071 149.016 80.071C149.579 80.071 150.017 80.2097 150.329 80.487C150.649 80.7643 150.853 81.1067 150.94 81.514C151.217 81.046 151.568 80.6907 151.993 80.448C152.426 80.1967 152.911 80.071 153.449 80.071C153.873 80.071 154.216 80.149 154.476 80.305C154.744 80.4523 154.952 80.656 155.1 80.916C155.247 81.1673 155.347 81.4533 155.399 81.774C155.459 82.0947 155.49 82.4197 155.49 82.749V87ZM157.136 87V80.188H158.878V87H157.136ZM157.136 79.239V77.51H158.878V79.239H157.136ZM160.125 85.934L163.882 81.41H160.281V80.188H165.754V81.254L162.023 85.778H165.819V87H160.125V85.934ZM170.166 87.13C169.62 87.13 169.126 87.039 168.684 86.857C168.242 86.6663 167.865 86.4107 167.553 86.09C167.241 85.7607 166.998 85.388 166.825 84.972C166.66 84.5473 166.578 84.101 166.578 83.633C166.578 82.983 166.721 82.3893 167.007 81.852C167.301 81.3147 167.717 80.8857 168.255 80.565C168.801 80.2357 169.442 80.071 170.179 80.071C170.924 80.071 171.561 80.2357 172.09 80.565C172.618 80.8857 173.021 81.3147 173.299 81.852C173.585 82.3807 173.728 82.9527 173.728 83.568C173.728 83.672 173.723 83.7803 173.715 83.893C173.706 83.997 173.697 84.0837 173.689 84.153H168.424C168.458 84.4997 168.558 84.803 168.723 85.063C168.896 85.323 169.113 85.5223 169.373 85.661C169.641 85.791 169.927 85.856 170.231 85.856C170.577 85.856 170.902 85.7737 171.206 85.609C171.518 85.4357 171.73 85.2103 171.843 84.933L173.338 85.349C173.173 85.6957 172.935 86.0033 172.623 86.272C172.319 86.5407 171.96 86.753 171.544 86.909C171.128 87.0563 170.668 87.13 170.166 87.13ZM168.385 83.048H171.947C171.912 82.7013 171.812 82.4023 171.648 82.151C171.492 81.891 171.284 81.6917 171.024 81.553C170.764 81.4057 170.473 81.332 170.153 81.332C169.841 81.332 169.555 81.4057 169.295 81.553C169.043 81.6917 168.835 81.891 168.671 82.151C168.515 82.4023 168.419 82.7013 168.385 83.048ZM128.858 97.32C128.858 96.7567 128.958 96.2063 129.157 95.669C129.365 95.123 129.664 94.629 130.054 94.187C130.444 93.7363 130.921 93.381 131.484 93.121C132.048 92.8523 132.689 92.718 133.408 92.718C134.258 92.718 134.99 92.9043 135.605 93.277C136.229 93.6497 136.693 94.135 136.996 94.733L135.618 95.682C135.462 95.3353 135.259 95.0623 135.007 94.863C134.756 94.655 134.487 94.512 134.201 94.434C133.915 94.3473 133.634 94.304 133.356 94.304C132.906 94.304 132.511 94.395 132.173 94.577C131.844 94.759 131.567 94.9973 131.341 95.292C131.116 95.5867 130.947 95.916 130.834 96.28C130.73 96.644 130.678 97.008 130.678 97.372C130.678 97.7793 130.743 98.1737 130.873 98.555C131.003 98.9277 131.185 99.2613 131.419 99.556C131.662 99.842 131.948 100.072 132.277 100.245C132.615 100.41 132.984 100.492 133.382 100.492C133.668 100.492 133.959 100.444 134.253 100.349C134.548 100.254 134.821 100.102 135.072 99.894C135.324 99.686 135.519 99.4173 135.657 99.088L137.126 99.933C136.944 100.392 136.645 100.782 136.229 101.103C135.822 101.424 135.363 101.666 134.851 101.831C134.34 101.996 133.833 102.078 133.33 102.078C132.672 102.078 132.069 101.944 131.523 101.675C130.977 101.398 130.505 101.034 130.106 100.583C129.716 100.124 129.409 99.6123 129.183 99.049C128.967 98.477 128.858 97.9007 128.858 97.32ZM141.411 102.13C140.856 102.13 140.358 102.039 139.916 101.857C139.474 101.666 139.097 101.406 138.785 101.077C138.482 100.748 138.248 100.371 138.083 99.946C137.918 99.5213 137.836 99.075 137.836 98.607C137.836 98.1303 137.918 97.6797 138.083 97.255C138.248 96.8303 138.482 96.4533 138.785 96.124C139.097 95.7947 139.474 95.539 139.916 95.357C140.358 95.1663 140.856 95.071 141.411 95.071C141.966 95.071 142.46 95.1663 142.893 95.357C143.335 95.539 143.712 95.7947 144.024 96.124C144.336 96.4533 144.57 96.8303 144.726 97.255C144.891 97.6797 144.973 98.1303 144.973 98.607C144.973 99.075 144.891 99.5213 144.726 99.946C144.57 100.371 144.336 100.748 144.024 101.077C143.721 101.406 143.348 101.666 142.906 101.857C142.464 102.039 141.966 102.13 141.411 102.13ZM139.63 98.607C139.63 99.0057 139.708 99.361 139.864 99.673C140.02 99.9763 140.232 100.215 140.501 100.388C140.77 100.561 141.073 100.648 141.411 100.648C141.74 100.648 142.039 100.561 142.308 100.388C142.577 100.206 142.789 99.9633 142.945 99.66C143.11 99.348 143.192 98.9927 143.192 98.594C143.192 98.204 143.11 97.853 142.945 97.541C142.789 97.229 142.577 96.9863 142.308 96.813C142.039 96.6397 141.74 96.553 141.411 96.553C141.073 96.553 140.77 96.644 140.501 96.826C140.232 96.9993 140.02 97.242 139.864 97.554C139.708 97.8573 139.63 98.2083 139.63 98.607ZM148.788 102.13C148.207 102.13 147.653 102.035 147.124 101.844C146.595 101.653 146.14 101.372 145.759 100.999L146.383 99.868C146.79 100.197 147.189 100.44 147.579 100.596C147.978 100.752 148.359 100.83 148.723 100.83C149.061 100.83 149.33 100.769 149.529 100.648C149.737 100.527 149.841 100.345 149.841 100.102C149.841 99.9373 149.785 99.8117 149.672 99.725C149.559 99.6297 149.395 99.5473 149.178 99.478C148.97 99.4087 148.714 99.3307 148.411 99.244C147.908 99.0793 147.488 98.919 147.15 98.763C146.812 98.607 146.556 98.412 146.383 98.178C146.218 97.9353 146.136 97.6277 146.136 97.255C146.136 96.8043 146.249 96.4187 146.474 96.098C146.708 95.7687 147.029 95.513 147.436 95.331C147.852 95.149 148.337 95.058 148.892 95.058C149.377 95.058 149.837 95.136 150.27 95.292C150.703 95.4393 151.098 95.682 151.453 96.02L150.751 97.125C150.404 96.8563 150.075 96.6613 149.763 96.54C149.451 96.41 149.135 96.345 148.814 96.345C148.632 96.345 148.459 96.3667 148.294 96.41C148.138 96.4533 148.008 96.527 147.904 96.631C147.809 96.7263 147.761 96.865 147.761 97.047C147.761 97.2117 147.804 97.3417 147.891 97.437C147.986 97.5237 148.125 97.6017 148.307 97.671C148.498 97.7403 148.727 97.8183 148.996 97.905C149.542 98.061 150.001 98.2213 150.374 98.386C150.755 98.5507 151.041 98.7543 151.232 98.997C151.423 99.231 151.518 99.556 151.518 99.972C151.518 100.648 151.271 101.177 150.777 101.558C150.283 101.939 149.62 102.13 148.788 102.13ZM156.877 101.649C156.729 101.71 156.552 101.779 156.344 101.857C156.136 101.935 155.91 101.996 155.668 102.039C155.434 102.091 155.195 102.117 154.953 102.117C154.632 102.117 154.337 102.061 154.069 101.948C153.8 101.835 153.583 101.658 153.419 101.415C153.263 101.164 153.185 100.839 153.185 100.44V96.527H152.288V95.188H153.185V92.978H154.927V95.188H156.357V96.527H154.927V99.855C154.935 100.089 155 100.258 155.122 100.362C155.243 100.466 155.395 100.518 155.577 100.518C155.759 100.518 155.936 100.488 156.11 100.427C156.283 100.366 156.422 100.314 156.526 100.271L156.877 101.649ZM160.423 102.13C159.842 102.13 159.288 102.035 158.759 101.844C158.23 101.653 157.775 101.372 157.394 100.999L158.018 99.868C158.425 100.197 158.824 100.44 159.214 100.596C159.613 100.752 159.994 100.83 160.358 100.83C160.696 100.83 160.965 100.769 161.164 100.648C161.372 100.527 161.476 100.345 161.476 100.102C161.476 99.9373 161.42 99.8117 161.307 99.725C161.194 99.6297 161.03 99.5473 160.813 99.478C160.605 99.4087 160.349 99.3307 160.046 99.244C159.543 99.0793 159.123 98.919 158.785 98.763C158.447 98.607 158.191 98.412 158.018 98.178C157.853 97.9353 157.771 97.6277 157.771 97.255C157.771 96.8043 157.884 96.4187 158.109 96.098C158.343 95.7687 158.664 95.513 159.071 95.331C159.487 95.149 159.972 95.058 160.527 95.058C161.012 95.058 161.472 95.136 161.905 95.292C162.338 95.4393 162.733 95.682 163.088 96.02L162.386 97.125C162.039 96.8563 161.71 96.6613 161.398 96.54C161.086 96.41 160.77 96.345 160.449 96.345C160.267 96.345 160.094 96.3667 159.929 96.41C159.773 96.4533 159.643 96.527 159.539 96.631C159.444 96.7263 159.396 96.865 159.396 97.047C159.396 97.2117 159.439 97.3417 159.526 97.437C159.621 97.5237 159.76 97.6017 159.942 97.671C160.133 97.7403 160.362 97.8183 160.631 97.905C161.177 98.061 161.636 98.2213 162.009 98.386C162.39 98.5507 162.676 98.7543 162.867 98.997C163.058 99.231 163.153 99.556 163.153 99.972C163.153 100.648 162.906 101.177 162.412 101.558C161.918 101.939 161.255 102.13 160.423 102.13Z" fill="#111111"/>
</svg>
