<?xml version="1.0" encoding="UTF-8"?>
<svg id="Layer_1" data-name="Layer 1" xmlns="http://www.w3.org/2000/svg" viewBox="0 0 1013.16 385.59">
  <defs>
    <style>
      .cls-1 {
        letter-spacing: -.02em;
      }

      .cls-2 {
        font-family: BalooThambi2-ExtraBold, 'Baloo Thambi 2';
        font-size: 226.14px;
        font-weight: 700;
      }

      .cls-2, .cls-3 {
        fill: #fff;
      }

      .cls-4 {
        letter-spacing: 0em;
      }

      .cls-5 {
        letter-spacing: 0em;
      }

      .cls-6 {
        letter-spacing: -.01em;
      }

      .cls-7 {
        opacity: .2;
      }

      .cls-8 {
        opacity: .6;
      }

      .cls-9 {
        fill: #002157;
        font-family: Lato-Regular, Lato;
        font-size: 47.25px;
      }

      .cls-10 {
        fill: #fa509c;
      }

      .cls-10, .cls-11, .cls-12, .cls-13, .cls-14, .cls-15, .cls-16, .cls-3, .cls-17, .cls-18, .cls-19, .cls-20 {
        stroke-width: 0px;
      }

      .cls-11 {
        fill: #42f4d2;
      }

      .cls-12 {
        fill: #d5b3f5;
      }

      .cls-13 {
        fill: #ae531e;
      }

      .cls-14 {
        fill: #ff9331;
      }

      .cls-15 {
        fill: #f2d4d4;
      }

      .cls-16 {
        fill: #ffb012;
      }

      .cls-17 {
        fill: #ff0068;
      }

      .cls-18 {
        fill: #ff48a0;
      }

      .cls-19 {
        fill: #02daff;
      }

      .cls-20 {
        fill: #000072;
      }
    </style>
  </defs>
  <g>
    <path class="cls-19" d="m330.66,192.11c0,23.49-5.9,45.6-16.31,64.94-19.95,37.06-56.44,63.89-99.6,70.61h0c-6.93,1.08-14.04,1.64-21.27,1.64-4.95,0-9.83-.26-14.64-.78-41.08-4.36-76.74-26.84-98.84-59.3-14.97-21.98-23.71-48.53-23.71-77.12,0-75.77,61.42-137.19,137.19-137.19s137.19,61.42,137.19,137.19Z"/>
    <g>
      <path class="cls-14" d="m319.43,246.06c-5.32,11.83-14.44,25.97-20.17,32.9-13.1,15.85-29.69,28.72-48.6,37.4-.29.14-.58.27-.87.4-.09.04-.18.08-.27.12-8.7,3.91-17.87,6.93-27.42,8.95-.64.14-1.29.27-1.94.4-.74.15-1.48.29-2.22.42-1.06.19-2.12.37-3.19.54h0c-.45-.03-21.62-1.24-30.54-13.62-1.96-2.72-3.52-7.12-4.37-12.62-2.6-16.9,1.51-44.13,21.32-64.67,3.38-3.5,7.22-6.81,11.56-9.84l67.09-11.54s6.02.27,13.49,4.5c9.02,5.1,16.93,8.4,26.12,26.67Z"/>
      <g class="cls-8">
        <path class="cls-3" d="m319.43,245.86c-.38.85-.79,1.71-1.21,2.58-7.99-13.64-15.16-16.75-23.22-21.31-7.47-4.22-13.49-4.49-13.49-4.49l-67.09,11.54c-4.34,3.03-8.18,6.33-11.56,9.84-19.26,19.96-23.69,46.26-21.52,63.24-4.95-15.56-2.79-47.74,19.83-71.18,3.38-3.5,7.22-6.81,11.56-9.84l67.09-11.54s6.02.27,13.48,4.49c9.03,5.11,16.94,8.4,26.12,26.67Z"/>
      </g>
      <path class="cls-15" d="m299.26,278.96c-19.76,23.92-47.47,41.03-79.09,47.27-2.52-6.46-3.93-13.64-3.93-21.19,0-28.48,19.95-51.57,44.56-51.57,16.39,0,30.71,10.24,38.45,25.5Z"/>
      <path class="cls-20" d="m214.76,329.19s-.08,0-.12,0c-.92-.05-22.67-1.42-32.06-14.45-4.69-6.51-6.59-20.19-4.72-34.04,2.33-17.35,10.1-33.62,21.86-45.81,3.55-3.69,7.54-7.08,11.86-10.09.24-.17.52-.28.81-.33l67.09-11.54c.28-.05.56-.04.84.03.21.05,5.26,1.36,13.3,4.4,7.64,2.89,18.63,10.06,27.6,27.79.25.5.28,1.07.09,1.59-3.96,10.77-14.37,26.06-20.5,33.48-20.44,24.75-48.94,41.78-80.25,47.96-1.76.35-3.56.67-5.49.97-.1.02-.21.02-.31.02Zm-1.25-100.86c-3.96,2.8-7.63,5.94-10.9,9.33-11.18,11.58-18.56,27.06-20.78,43.57-1.99,14.82.68,26.54,4,31.16,7.94,11.02,26.55,12.63,28.83,12.78,1.8-.28,3.48-.58,5.12-.91,30.4-6,58.08-22.55,77.94-46.58,5.63-6.81,15.54-21.31,19.52-31.5-8.31-16.01-18.18-22.48-25.04-25.07-6.54-2.48-11.13-3.79-12.47-4.16l-66.21,11.39Z"/>
      <path class="cls-11" d="m292.9,221.59c-8.65,12.88-29.92,25.11-52.13,25.11-15.48,0-29.27-2.41-39.61-10.43,3.38-3.51,7.22-6.81,11.56-9.84l67.09-11.53s6.03,1.82,13.09,6.69Z"/>
      <path class="cls-20" d="m236.58,248.85c-13.5,0-27.77-4.21-36.63-10.99-.45-.35-.74-.87-.78-1.44s.16-1.13.56-1.54c3.55-3.69,7.54-7.08,11.85-10.09.24-.17.52-.28.81-.33l67.09-11.53c.08-.01.16-.02.24-.03.31-.02,7.7-.32,15.23,4.88.87.6,1.12,1.77.58,2.67-9.67,16.2-29.58,26.49-54.61,28.24-1.43.1-2.88.15-4.34.15Zm-32.32-12.84c7.97,5.25,21.68,9.72,36.38,8.69,22.83-1.6,41.06-10.55,50.41-24.65-5.37-3.11-10.27-3.17-11.03-3.15l-66.51,11.43c-3.31,2.34-6.41,4.91-9.25,7.68Z"/>
      <circle class="cls-16" cx="249.79" cy="251.96" r="9.01"/>
      <g class="cls-8">
        <path class="cls-3" d="m258.8,251.64c-1.49-2.93-4.53-4.94-8.04-4.94-4.98,0-9.01,4.04-9.01,9.01,0,.11,0,.21,0,.32-.62-1.22-.97-2.6-.97-4.07,0-4.98,4.04-9.01,9.01-9.01s8.84,3.87,9.01,8.69Z"/>
      </g>
      <g class="cls-7">
        <path class="cls-20" d="m258.8,251.96c0,4.98-4.04,9.01-9.01,9.01s-9.01-4.04-9.01-9.01c0-.49.04-.96.12-1.43,1.55,2.73,4.48,4.58,7.85,4.58,4.49,0,8.22-3.28,8.9-7.59.75,1.31,1.17,2.82,1.17,4.44Z"/>
      </g>
      <path class="cls-20" d="m249.79,262.98c-6.07,0-11.02-4.94-11.02-11.02s4.94-11.02,11.02-11.02,11.02,4.94,11.02,11.02-4.94,11.02-11.02,11.02Zm0-18.03c-3.87,0-7.01,3.14-7.01,7.01s3.14,7.01,7.01,7.01,7.01-3.14,7.01-7.01-3.14-7.01-7.01-7.01Z"/>
      <path class="cls-14" d="m246.89,333.4c-7.34,7.19-22.58,6.22-28.94-6.74-1.09-2.23-1.92-4.81-2.4-7.77,0,0,0,0,0,0-.13-.75-.23-1.52-.3-2.32l-18.53-10.51s.87-.28,2.38-.68c9.2-2.46,42.3-9.73,50.33,10.41.13.32.25.65.37.99h0c2.5,7.3.81,13.01-2.9,16.64Z"/>
      <g class="cls-7">
        <path class="cls-20" d="m217.95,326.65c-1.06.19-2.12.37-3.19.54h0c-.45-.03-21.62-1.24-30.54-13.62-1.96-2.72-3.52-7.12-4.37-12.62.06-.33.14-.63.23-.91,0,0,8.66,21.6,35.47,18.85,0,0,0,0,0,0,.14.2,2.55,3.69,6.56,6.94,4.03,3.28,9.67,6.32,16.22,5.56,10.98-1.27,11.39-11.16,11.2-14.52-.04-.69-.1-1.11-.1-1.11l1.24.59c-.29.14-.58.27-.87.4,7.44,21.72-22.27,29.42-31.84,9.89Z"/>
      </g>
      <g class="cls-8">
        <path class="cls-3" d="m246.89,333.4c3.67-11.5-.74-19.23-9.47-23.82-14.38-7.57-38.32-4.22-38.32-4.22,9.2-2.46,42.3-9.73,50.33,10.41.13.32.25.65.37.99h0c2.5,7.3.81,13.01-2.9,16.64Z"/>
      </g>
      <path class="cls-20" d="m196.62,305.75c2.33-1.17,4.76-2.07,7.23-2.87,1.24-.39,2.48-.76,3.74-1.06,1.26-.32,2.53-.61,3.8-.86,2.56-.5,5.15-.83,7.77-.99,2.62-.15,5.26-.08,7.9.17,2.64.27,5.28.68,7.89,1.39,2.6.7,5.18,1.7,7.56,3.16,2.37,1.45,4.53,3.35,6.19,5.65,1.65,2.29,2.84,4.9,3.5,7.57.7,2.67,1,5.55.52,8.42-.46,2.86-1.75,5.65-3.7,7.86-1.94,2.22-4.5,3.79-7.2,4.76-2.71.97-5.61,1.3-8.45,1.07-2.84-.26-5.64-1.08-8.13-2.47-2.5-1.38-4.69-3.29-6.38-5.54-1.7-2.24-3-4.74-3.69-7.39-.15-.67-.29-1.33-.41-2-.1-.67-.12-1.35-.16-2.02l-.03-1c.02-.34.04-.67.08-1.01.07-.67.15-1.33.28-1.99.03-.17.2-.29.38-.25.1.02.18.09.23.18v.02c1.15,2.42,1.91,4.74,2.99,6.89,1.05,2.14,2.13,4.2,3.61,5.96,1.47,1.75,3.24,3.22,5.23,4.26,1.99,1.04,4.18,1.71,6.42,1.9,2.23.22,4.51-.03,6.62-.72,2.1-.7,4.06-1.84,5.51-3.44,1.46-1.59,2.43-3.58,2.82-5.74.38-2.16.18-4.47-.4-6.71-.56-2.28-1.54-4.39-2.87-6.23-1.33-1.84-3.07-3.38-5.04-4.59-3.97-2.41-8.82-3.54-13.68-3.81-2.44-.13-4.91-.11-7.38-.02-2.47.08-4.96.23-7.45.43-4.99.38-10.01,1.01-15.1,1.63h0c-.17.02-.33-.1-.35-.27-.02-.13.06-.26.17-.31Z"/>
      <path class="cls-14" d="m306.89,268.91c-.86,1.44-3.36,5.37-7.85,10.32,0,0,8.33,30.82-12.2,34.82-2.97.58-5.52.18-7.67-.97-7.78-4.14-10.19-18.01-7.61-30.01.26-1.2.57-2.39.93-3.54h0s0-.02,0-.02c1.9-6.1,5.2-11.35,9.83-14.02,11.68-6.74,22.44.89,24.53,2.53.24.19.37.3.37.3,0,0-.11.21-.35.6Z"/>
      <g class="cls-8">
        <path class="cls-3" d="m307.24,268.31s-.11.21-.35.6c-5-1.2-14.84-5.14-22.32-.08-7.33,4.96-16.9,27.79-5.4,44.26-7.78-4.14-10.19-18.01-7.61-30.01.26-1.2.57-2.39.93-3.54h0s0-.02,0-.02c1.9-6.1,5.2-11.35,9.83-14.02,11.68-6.74,22.44.89,24.53,2.53.24.19.37.3.37.3Z"/>
      </g>
      <g class="cls-7">
        <path class="cls-20" d="m299.05,279.23s8.33,30.82-12.2,34.82c-13.74,2.68-18.58-15.67-15.28-30.98l.93-3.53c-.24,1.03-6.86,30.74,11.27,27.65,18.45-3.15,12.23-33.76,12.23-33.76,2.7.13,7.37-2.85,10.87-5.41.24.19.37.3.37.3,0,0-2.5,4.63-8.19,10.92Z"/>
      </g>
      <path class="cls-20" d="m284.24,316.31c-6.05,0-10.9-3.87-13.56-10.97-4.94-13.21-1.29-34.71,10.66-41.6,14.09-8.13,27.09,2.94,27.22,3.05.71.62.89,1.64.45,2.46-.1.19-2.47,4.53-7.76,10.51.95,4.1,3.74,18.78-2.21,28.34-2.64,4.23-6.61,6.89-11.8,7.9-1.02.2-2.02.3-2.99.3Zm8.12-51.58c-2.81,0-5.88.67-9.02,2.48-9.86,5.69-13.19,25.28-8.91,36.73,1.67,4.46,5.11,9.49,12.03,8.14,4.12-.8,7.12-2.8,9.17-6.09,5.91-9.49,1.53-26.08,1.48-26.25-.18-.66,0-1.36.45-1.87,3.59-3.97,5.89-7.27,7.03-9.07-2.15-1.49-6.69-4.08-12.24-4.08Z"/>
      <path class="cls-20" d="m296.98,280.19c-.1-.75-.23-1.54-.37-2.31-.14-.77-.29-1.55-.46-2.32-.34-1.54-.72-3.07-1.3-4.57,1.14,1.14,2.16,2.43,3.12,3.74.48.66.95,1.33,1.41,2.01.46.68.91,1.35,1.35,2.08l.02.03c.59.97.29,2.23-.68,2.82-.97.59-2.23.29-2.82-.68-.15-.25-.25-.53-.29-.81Z"/>
      <path class="cls-13" d="m320.91,167.62c0,.4,0,.81-.02,1.23-.5,19.53-17.52,30.04-29.54,32.55l-40.56-84.62v-1.5c2.71-3.45,7.58-5.77,12.79-6.66,5.38-.92,11.13-.32,15.25,2.15,10.01,6.01,10.51,17.02,19.03,22.53,5.95,3.85,22.92,13.5,23.05,34.32Z"/>
      <g class="cls-8">
        <path class="cls-3" d="m320.91,168.03c0,.4,0,.81-.02,1.23-.34,13.11-8.12,22.16-16.83,27.44,7.08-5.46,12.79-13.68,13.08-24.87.01-.42.02-.83.02-1.23-.13-20.82-17.1-30.48-23.05-34.32-8.51-5.51-9.01-16.52-19.03-22.53-4.12-2.47-9.86-3.07-15.25-2.15-2.68.46-5.27,1.29-7.52,2.46,2.81-2.56,6.92-4.3,11.27-5.04,5.38-.92,11.13-.32,15.25,2.15,10.01,6.01,10.51,17.02,19.03,22.53,5.95,3.85,22.92,13.5,23.05,34.32Z"/>
      </g>
      <g class="cls-7">
        <path class="cls-20" d="m320.91,167.62c0,.4,0,.81-.02,1.23-.5,19.53-17.52,30.04-29.54,32.55l-40.56-84.62v-1.5c2.71-3.45,7.58-5.77,12.79-6.66,3.51,1.95,6.78,4.28,9.64,6.67,8.33,6.97,13.74,16.74,20.68,25.1,2.99,3.6,6.29,6.98,8.62,11.03,2.72,4.74,4.18,10.48,8.45,13.89,2.75,2.2,6.47,2.94,9.92,2.31Z"/>
      </g>
      <path class="cls-13" d="m204.93,123.86l-7.89,93.51c-4.88.77-10.98.62-17-1.01-8.95-2.43-17.75-8.13-22.17-18.93-8.21-20.06,4.64-35.59,8.92-41.41,6-8.17,2.56-18.65,9.79-27.81,4.74-6.02,15.07-9.08,22.87-7.56,1.82.35,3.5.95,4.94,1.82l.54,1.4Z"/>
      <g class="cls-7">
        <path class="cls-20" d="m204.93,123.86l-7.89,93.51c-4.88.77-10.98.62-17-1.01-3.12-2.58-5.76-5.77-7.74-9.31-4.22-7.55-5.56-16.51-4.6-25.11.7-6.31,2.57-12.43,4.44-18.51.93-3.01,1.85-6.03,2.78-9.04,1.14-3.71,2.28-7.43,3.42-11.14.89-2.9,1.79-5.83,3.25-8.5,2.65-4.85,7.01-8.58,11.84-11.28,1.94-1.08,3.96-2.01,6.02-2.84,1.82.35,3.5.95,4.94,1.82l.54,1.4Z"/>
      </g>
      <g class="cls-8">
        <path class="cls-3" d="m204.93,123.39l-.09,1.04c-7.94-2.64-19.85.4-25.06,6.99-7.23,9.17-3.79,19.65-9.79,27.81-4.28,5.82-17.12,21.35-8.91,41.41,1.04,2.54,2.33,4.81,3.8,6.81-2.84-2.78-5.27-6.25-7.01-10.51-8.21-20.06,4.64-35.59,8.92-41.41,6-8.17,2.56-18.65,9.79-27.82,5.85-7.42,20.17-10.33,27.81-5.74l.53,1.41Z"/>
      </g>
      <path class="cls-20" d="m291.35,203.39c-.76,0-1.47-.43-1.81-1.14l-40.56-84.62c-.25-.53-.25-1.11-.05-1.62-.26-.64-.18-1.4.28-1.99,6.18-7.87,21.65-10.39,30.64-4.99,5.71,3.42,8.6,8.41,11.15,12.81,2.21,3.81,4.3,7.41,7.93,9.76.31.2.65.41,1.01.65,7.03,4.47,23.49,14.95,22.94,36.64-.24,9.26-4.07,17.58-11.09,24.08-5.5,5.09-12.81,8.87-20.04,10.38-.14.03-.27.04-.41.04Zm-38.65-87.28l39.76,82.96c9.73-2.55,25.95-11.56,26.43-30.28.5-19.42-14.63-29.05-21.08-33.15-.37-.24-.72-.46-1.04-.66-4.44-2.87-6.87-7.06-9.22-11.11-2.53-4.37-4.93-8.49-9.75-11.39-7.06-4.23-19.95-2.31-25.11,3.63Z"/>
      <path class="cls-20" d="m191.07,219.83c-5.49,0-11.13-1.05-16.13-3.07-8.87-3.58-15.41-10-18.92-18.57-8.22-20.08,3.46-35.71,8.44-42.39.26-.35.5-.67.71-.96,2.56-3.49,3.24-7.59,3.95-11.94.83-5.02,1.76-10.71,5.88-15.93,6.5-8.24,21.85-11.38,30.42-6.21.64.38.98,1.07.97,1.76.37.4.58.95.53,1.53l-7.89,93.5c-.08.92-.77,1.67-1.68,1.81-2.04.32-4.15.48-6.29.48Zm4.22-97.58c-6.4,0-13.6,2.71-17.13,7.19-3.48,4.42-4.25,9.12-5.07,14.1-.76,4.62-1.54,9.4-4.68,13.66-.22.3-.47.63-.73.99-4.58,6.13-15.3,20.5-7.94,38.48,7.09,17.33,25.45,19.99,35.45,18.93l7.73-91.67c-2.12-1.14-4.8-1.67-7.63-1.67Z"/>
      <path class="cls-14" d="m305.12,187.62c-1.5,40.56-55.58,49.57-55.58,49.57,0,0-59.58,10.01-74.98-31.07-11.2-29.87,5.25-46.26,6.88-56.55,1.63-10.29,12.17-36.39,45.06-41.56,8.49-1.33,15.95-.93,22.46.58,20.36,4.72,31.31,20.29,34.62,27.46,3.75,8.12,17.79,16.76,20.95,39.23.52,3.72.75,7.81.58,12.34Z"/>
      <path class="cls-13" d="m304.54,175.28c-7.35,5.69-16.57,9.08-26.58,9.08-23.99,0-43.44-19.45-43.44-43.44,0-12.85,5.58-24.39,14.45-32.35,20.36,4.72,31.31,20.29,34.62,27.46,3.75,8.12,17.79,16.76,20.95,39.23Z"/>
      <g class="cls-8">
        <path class="cls-3" d="m305.12,186.59c0,.17-.02.34-.03.51-.1-2.13-.29-4.16-.56-6.08-3.16-22.47-17.2-31.12-20.95-39.23-2.94-6.38-11.93-19.4-28.2-25.53,0,.02,0,.03,0,.05-.34,1.19-2.65,1.57-5.19.86-2.51-.71-4.28-2.22-3.98-3.4-5.84-1.03-12.39-1.16-19.7-.02-32.89,5.17-43.44,31.27-45.06,41.56-1.14,7.21-9.55,17.41-10.64,33.14-1.35-19.65,9.34-31.71,10.64-39.9,1.63-10.29,12.17-36.39,45.06-41.56,8.49-1.33,15.95-.93,22.46.58,20.36,4.72,31.31,20.29,34.62,27.46,3.75,8.12,17.79,16.76,20.95,39.23.52,3.72.75,7.81.58,12.34Z"/>
      </g>
      <g class="cls-7">
        <path class="cls-20" d="m305.51,188.43c-1.5,40.56-55.58,49.57-55.58,49.57,0,0-59.58,10.01-74.98-31.07-4.03-10.75-4.48-19.75-3.32-27.35.39,4.89,1.52,10.25,3.72,16.13,15.39,41.08,74.98,31.07,74.98,31.07,0,0,49.82-8.3,55.15-44.83.1,2.05.12,4.21.04,6.48Z"/>
      </g>
      <path class="cls-20" d="m234.05,240.28c-4.9,0-10.58-.31-16.53-1.24-22.76-3.56-38.26-14.7-44.83-32.22-8.56-22.85-1.38-38.38,3.38-48.65,1.62-3.49,3.01-6.51,3.4-8.92,2.01-12.73,14.37-38.14,46.73-43.22,8.15-1.28,15.97-1.08,23.22.6,24.81,5.75,34.91,26.26,35.99,28.58,1.03,2.24,3.07,4.69,5.43,7.52,5.66,6.79,13.41,16.1,15.68,32.27.56,3.99.76,8.26.6,12.69h0c-.64,17.34-10.81,31.75-29.41,41.69-13.84,7.39-27.27,9.69-27.84,9.79-.4.07-6.77,1.11-15.82,1.11Zm2.51-131.07c-3.17,0-6.42.26-9.74.78-30.08,4.73-41.54,28.16-43.4,39.89-.47,2.96-1.97,6.21-3.72,9.98-4.74,10.25-11.24,24.28-3.27,45.56,6.11,16.31,20.14,26.29,41.69,29.66,16.31,2.55,30.93.16,31.07.13.13-.02,13.44-2.31,26.7-9.42,17.46-9.36,26.61-22.23,27.21-38.25h0c.15-4.2-.04-8.23-.56-11.98-2.11-15.04-9.14-23.48-14.79-30.27-2.54-3.05-4.74-5.69-5.99-8.41-3.58-7.75-14.61-22.03-33.25-26.35-3.82-.89-7.82-1.33-11.96-1.33Zm68.56,78.41h0,0Z"/>
      <path class="cls-20" d="m230.65,176.72l14.92-1.68c1.69-.19,2.8,1.71,1.81,3.09l-6.67,9.24c-.68.95-2.04,1.09-2.91.3l-8.25-7.56c-1.24-1.13-.57-3.2,1.1-3.39Z"/>
      <g>
        <path class="cls-20" d="m239.29,183.11c.96,2.11,1.16,4.55.76,6.91-.4,2.36-1.44,4.64-2.92,6.56-1.48,1.94-3.44,3.49-5.59,4.61-2.15,1.13-4.5,1.8-6.91,2.14-2.37.28-4.85.14-7.2-.49-2.36-.62-4.59-1.75-6.47-3.3-.45-.41-.9-.82-1.34-1.24-.41-.45-.8-.91-1.19-1.38-.35-.5-.71-.98-1.03-1.49-.29-.53-.58-1.06-.82-1.61-.94-2.21-1.26-4.69-.66-6.97.05-.19.25-.3.44-.25.1.03.18.09.22.17h0c1.09,2,2.08,3.71,3.22,5.27.29.39.6.75.87,1.14l.92,1.07c.33.34.69.65,1.01.98l1.08.9c1.49,1.13,3.15,2.02,4.93,2.6,1.79.57,3.67.8,5.59.6,1.86-.21,3.71-.8,5.32-1.77,1.62-.96,3.01-2.24,4.22-3.66,1.21-1.43,2.21-3.04,3-4.82.81-1.78,1.39-3.71,1.86-5.88h0c.04-.19.23-.31.42-.27.11.02.2.1.24.2Z"/>
        <path class="cls-20" d="m271.98,179.45c.97,2.14,1.17,4.63.75,7.02-.13.59-.28,1.18-.44,1.78-.22.57-.42,1.15-.67,1.71-.29.54-.56,1.1-.87,1.63-.35.5-.68,1.03-1.06,1.52-1.53,1.94-3.55,3.49-5.76,4.58-1.1.55-2.26.99-3.44,1.32-.59.14-1.19.34-1.78.42l-.89.15-.44.07c-.22.02-.45.04-.67.05h.18c-.17,0-.37.02-.51.02h-.43s-.86.05-.86.05c-.14,0-.28.01-.43.01l-.45-.03-.89-.05c-1.19-.1-2.37-.31-3.52-.64-2.31-.65-4.49-1.79-6.31-3.35-.45-.39-.87-.82-1.31-1.23-.4-.45-.77-.92-1.15-1.37-.34-.49-.69-.98-1-1.48-.28-.52-.55-1.06-.8-1.59-.9-2.18-1.21-4.62-.61-6.86.05-.19.25-.31.44-.25.1.03.18.09.22.17h0c1.07,1.97,2.05,3.66,3.17,5.2.29.38.59.74.85,1.12.32.35.6.71.91,1.06l.99.97c.36.29.69.61,1.05.89,1.45,1.12,3.08,2.02,4.82,2.61.87.29,1.77.51,2.69.63l.69.07.35.04c.12,0,.24,0,.36,0h.73s.37,0,.37,0h.28s.17-.02.17-.02h.01s.09-.01.14-.01l.37-.06.73-.11c.5-.05.94-.23,1.41-.34.92-.27,1.8-.66,2.63-1.13,1.66-.94,3.1-2.22,4.34-3.66.32-.35.59-.75.89-1.12.29-.38.54-.79.82-1.18l.73-1.25c.21-.43.42-.88.65-1.32.82-1.8,1.41-3.76,1.89-5.96h0c.04-.19.23-.31.42-.27.11.02.2.1.24.2Z"/>
      </g>
      <path class="cls-20" d="m256.39,197.71l-5.1,24.71-15.52,1-10.06-22.31c8.36-1.59,14.2-9.38,13.24-17.97.98,8.79,8.7,15.16,17.43,14.56Z"/>
      <path class="cls-20" d="m235.77,225.42c-.78,0-1.5-.46-1.83-1.18l-10.06-22.31c-.25-.56-.23-1.2.05-1.75s.8-.93,1.4-1.04c7.35-1.4,12.46-8.33,11.63-15.77,0,0,0,0,0-.01-.12-1.1.67-2.09,1.77-2.21,1.1-.12,2.09.67,2.21,1.77,0,0,0,0,0,.01.86,7.7,7.59,13.31,15.31,12.77.63-.04,1.23.21,1.65.68.41.47.58,1.11.45,1.72l-5.1,24.71c-.18.88-.93,1.54-1.83,1.59l-15.52,1s-.09,0-.13,0Zm-7.26-22.98l8.52,18.89,12.61-.81,4.29-20.82c-5.83-.41-10.98-3.55-14.07-8.25-1.93,5.08-6.05,9.21-11.36,11Z"/>
      <path class="cls-18" d="m244.97,233.08h0c-4.25.56-8.15-2.44-8.7-6.69l-1.36-10.43c-.56-4.25,2.44-8.15,6.69-8.7h0c4.25-.56,8.15,2.44,8.7,6.69l1.36,10.43c.56,4.25-2.44,8.15-6.69,8.7Z"/>
      <path class="cls-20" d="m243.94,235.15c-2.14,0-4.21-.7-5.93-2.02-2.07-1.59-3.39-3.89-3.73-6.47l-1.36-10.43c-.7-5.34,3.08-10.25,8.41-10.95,5.34-.7,10.25,3.08,10.95,8.41l1.36,10.43c.7,5.34-3.08,10.25-8.41,10.95,0,0,0,0,0,0-.43.06-.86.08-1.29.08Zm1.03-2.07h0,0Zm-2.37-23.88c-.25,0-.5.02-.75.05-3.15.41-5.37,3.31-4.96,6.46l1.36,10.43c.2,1.53.98,2.88,2.2,3.82,1.22.94,2.73,1.34,4.26,1.14h0c3.15-.41,5.37-3.31,4.96-6.46l-1.36-10.43c-.38-2.9-2.86-5.01-5.71-5.01Z"/>
      <path class="cls-20" d="m231.38,337.44c-.02-.44,0-.97.04-1.46.02-.5.06-1,.1-1.5.07-1,.18-2.02.24-3.04.07-1.02.11-2.05.11-3.09.03-1.05-.04-2.09-.05-3.19h0c0-.14.1-.24.23-.24.08,0,.16.04.2.11.59.94,1.08,1.95,1.45,3,.38,1.05.67,2.14.87,3.24.2,1.1.35,2.22.34,3.34,0,.56-.03,1.12-.1,1.68-.07.57-.16,1.1-.35,1.71-.25.83-1.13,1.29-1.95,1.04-.65-.2-1.08-.79-1.11-1.44v-.15Z"/>
      <path class="cls-20" d="m241.16,336.07c-.04-.41-.05-.91-.05-1.37-.01-.47,0-.95.01-1.42l.1-2.88c.02-.97.04-1.95.01-2.94,0-1-.06-1.99-.06-3.04h0c0-.13.1-.24.23-.24.08,0,.15.04.19.1,1.15,1.76,1.92,3.75,2.41,5.8.25,1.03.44,2.07.49,3.13.03.53.03,1.06,0,1.59-.04.54-.1,1.04-.24,1.64-.21.84-1.06,1.35-1.9,1.13-.65-.16-1.1-.72-1.17-1.35l-.02-.16Z"/>
      <path class="cls-20" d="m279.74,314.49c-.29-.48-.46-.89-.62-1.34-.16-.44-.28-.89-.38-1.35-.2-.91-.26-1.84-.28-2.77-.03-1.85.17-3.7.75-5.47.04-.12.17-.19.29-.15.07.02.12.08.15.14h0c.3.88.53,1.73.8,2.56.24.83.52,1.65.77,2.46.26.81.56,1.59.79,2.38.12.4.24.79.34,1.18.1.38.21.81.25,1.14l.03.22c.1.86-.5,1.63-1.36,1.74-.63.08-1.22-.24-1.53-.75Z"/>
      <path class="cls-20" d="m290.51,313.19c-.22-.25-.35-.43-.5-.65-.14-.21-.27-.42-.39-.64-.24-.43-.44-.88-.61-1.34-.34-.91-.54-1.87-.67-2.83-.12-.96-.17-1.92-.11-2.88.05-.95.2-1.9.46-2.81.04-.12.16-.2.29-.16.07.02.13.07.15.14h0c.33.89.6,1.74.93,2.57.3.83.65,1.62.98,2.4.34.78.74,1.52,1.08,2.27.17.37.35.74.51,1.11.09.18.16.37.24.55.07.18.17.38.19.51l.09.41c.19.83-.34,1.65-1.16,1.84-.57.13-1.13-.08-1.49-.49Z"/>
      <g>
        <ellipse class="cls-20" cx="214.43" cy="168.62" rx="10.67" ry="7.27" transform="translate(21.04 361.01) rotate(-83.03)"/>
        <ellipse class="cls-3" cx="216.43" cy="166.89" rx="3.12" ry="2.12" transform="translate(24.52 361.48) rotate(-83.03)"/>
      </g>
      <g>
        <ellipse class="cls-20" cx="257.95" cy="162.92" rx="7.27" ry="10.67" transform="translate(-31.19 65.56) rotate(-13.67)"/>
        <ellipse class="cls-3" cx="255.76" cy="161.43" rx="2.12" ry="3.12" transform="translate(-30.9 65) rotate(-13.67)"/>
      </g>
    </g>
    <g>
      <path class="cls-12" d="m154.16,175.35s18.53-26.04,28.04-21.03c9.51,5.01-2,50.57-2,50.57l-26.04-29.54Z"/>
      <path class="cls-12" d="m118.73,169.2l-34.79,18.46s1.16-10.17,3.47-21.16c2.65-12.55,6.81-26.16,12.5-26.87,5.36-.67,10.07,6.79,13.45,14.38,3.34,7.53,5.37,15.19,5.37,15.19Z"/>
      <path class="cls-12" d="m178.82,328.04c-41.08-4.36-76.74-26.84-98.84-59.3.99-1.38,2.01-2.83,3.02-4.33,2.54-3.74,5.1-7.82,7.48-12.07,2.5-4.49,4.79-9.18,6.59-13.9l61.59,5.51,3.17,14.06,4.84,21.49s9.09,9.09,12.29,25.08c1.34,6.67,1.66,14.55-.15,23.47Z"/>
      <g class="cls-7">
        <path class="cls-20" d="m178.82,328.04c-41.08-4.36-76.74-26.84-98.84-59.3.99-1.38,2.01-2.83,3.02-4.33.23.45.47.89.76,1.31,3.71,5.48,9.24,9.77,15.57,11.78,5.92,1.88,12.59,1.97,17.69,5.52,5.19,3.61,7.77,10.17,13.03,13.68,6.73,4.48,15.6,2.74,23.66,2.12,1.07-.09,2.21-.13,3.14.41.9.51,1.43,1.46,2.02,2.31,4.32,6.18,14.08,7.6,19.97,2.89.04.05.08.09.12.13,1.34,6.67,1.66,14.55-.15,23.47Z"/>
      </g>
      <path class="cls-20" d="m178.82,330.05c-.07,0-.14,0-.21-.01-40.64-4.31-77.19-26.24-100.28-60.16-.47-.7-.46-1.61.03-2.3,3.98-5.54,7.47-10.99,10.38-16.21,2.66-4.78,4.84-9.37,6.47-13.64.32-.84,1.15-1.36,2.05-1.28l61.59,5.51c.87.08,1.58.71,1.78,1.55l7.89,35.01c2.83,3.05,18.09,21.15,12.28,49.92-.19.94-1.02,1.61-1.96,1.61Zm-96.4-61.28c22.11,31.79,56.5,52.49,94.77,57.08,4.78-27.82-11.77-44.76-11.94-44.93-.27-.27-.45-.61-.54-.98l-7.69-34.13-58.64-5.24c-1.63,4.04-3.7,8.32-6.16,12.74-2.78,4.99-6.08,10.18-9.8,15.45Z"/>
      <path class="cls-17" d="m161.83,258.01c-8.07,8.04-23.43,12.1-40.13,9.54-13.29-2.04-24.53-7.83-31.22-15.21,2.5-4.49,4.79-9.18,6.59-13.9l61.59,5.51,3.17,14.06Z"/>
      <path class="cls-20" d="m131.7,270.32c-3.36,0-6.8-.26-10.29-.8-13.31-2.04-25.12-7.81-32.4-15.84-.58-.64-.68-1.57-.27-2.32,2.66-4.78,4.84-9.37,6.47-13.64.32-.84,1.15-1.36,2.05-1.28l61.59,5.51c.87.08,1.58.71,1.78,1.55l3.17,14.06c.15.67-.05,1.37-.54,1.86-7.04,7.01-18.6,10.89-31.55,10.89Zm-38.75-18.3c6.74,6.82,17.24,11.73,29.07,13.54,14.97,2.29,29.57-.93,37.62-8.23l-2.6-11.53-58.64-5.24c-1.47,3.65-3.3,7.49-5.45,11.45Z"/>
      <circle class="cls-16" cx="123.61" cy="271.99" r="8.51"/>
      <g class="cls-8">
        <path class="cls-3" d="m132.13,271.99c0,1.09-.21,2.13-.58,3.08-.39-4.34-4.04-7.73-8.47-7.73-3.61,0-6.7,2.25-7.93,5.43-.03-.26-.04-.52-.04-.78,0-4.7,3.81-8.51,8.51-8.51s8.51,3.81,8.51,8.51Z"/>
      </g>
      <g class="cls-7">
        <path class="cls-20" d="m132.13,271.99c0,4.7-3.81,8.51-8.51,8.51s-8.51-3.81-8.51-8.51c0-1.2.25-2.35.7-3.39.96,3.66,4.28,6.35,8.24,6.35,3.5,0,6.5-2.11,7.81-5.13.18.69.28,1.42.28,2.17Z"/>
      </g>
      <path class="cls-20" d="m123.61,282.5c-5.8,0-10.51-4.72-10.51-10.51s4.72-10.51,10.51-10.51,10.51,4.72,10.51,10.51-4.72,10.51-10.51,10.51Zm0-17.02c-3.59,0-6.51,2.92-6.51,6.51s2.92,6.51,6.51,6.51,6.51-2.92,6.51-6.51-2.92-6.51-6.51-6.51Z"/>
      <path class="cls-12" d="m124.04,308.5c-.62,4.44-2.46,8.46-5.93,11.06-12.02,9.01-18.75-13.5-15.38-25.03l-5.95-5.58s.11-.14.33-.38c1.35-1.5,6.86-6.86,15.5-5.57,7.12,1.07,12.98,14.56,11.44,25.49Z"/>
      <g class="cls-7">
        <path class="cls-20" d="m124.04,308.5c-.62,4.44-2.46,8.46-5.93,11.06-12.02,9.01-18.75-13.5-15.38-25.03l-5.95-5.58s.11-.14.33-.38c3.1.15,7.1,1.22,10.68,4.88,0,0-3.22,18.04,4.75,20.61,4.68,1.51,8.86-2.22,11.51-5.56Z"/>
      </g>
      <g class="cls-8">
        <path class="cls-3" d="m120.12,317.69c4.41-11.32-2.09-28.88-10.26-30.1-5.12-.77-9.13.8-11.84,2.52l-1.23-1.16s5.81-7.46,15.82-5.95c9.39,1.41,16.58,24.41,7.52,34.69Z"/>
      </g>
      <path class="cls-20" d="m112.74,323.44c-1.67,0-3.29-.51-4.78-1.55-6.49-4.49-9.26-18.06-7.25-26.77l-5.16-4.84c-.68-.64-.77-1.7-.19-2.44.26-.34,6.58-8.27,17.52-6.63,5.24.79,10.02,6.85,12.19,15.44,2.05,8.11,1.58,18.77-5.86,24.35-2.16,1.62-4.35,2.43-6.46,2.43Zm-13.39-34.56l4.62,4.33c.5.47.69,1.18.5,1.83-2.32,7.94.59,20.43,5.55,23.87,2.07,1.44,4.36,1.17,7-.8,6.03-4.52,6.2-13.9,4.52-20.56-1.76-6.95-5.54-12.19-9.21-12.74-6.51-.98-11,2.23-12.99,4.08Z"/>
      <path class="cls-12" d="m166.78,326.22l-13.83-3.48s-5.3,9.84-13.81,5.33c-3.28-1.74-5.41-6.18-6.12-11.33-1.5-10.68,3.02-24.4,15.64-23.22,9.81.92,14.41,12.98,16.49,22.19,1.32,5.83,1.63,10.51,1.63,10.51Z"/>
      <g class="cls-7">
        <path class="cls-20" d="m166.78,326.22l-13.83-3.48s-5.3,9.84-13.81,5.33c-3.28-1.74-5.41-6.18-6.12-11.33.15.21,4.71,6.78,10.09,6.76,5.47-.03,11.25-4.37,12.22-9.44,0,0,3.03,7.58,9.81,1.66h0c1.32,5.82,1.63,10.5,1.63,10.5Z"/>
      </g>
      <g class="cls-8">
        <path class="cls-3" d="m166.78,326.22l-.64-.16c-1.41-8.97-5.65-26.28-17.48-27.39-10.1-.95-15.02,7.67-15.81,16.63-.91-10.44,3.76-22.91,15.81-21.78,16.02,1.5,18.13,32.7,18.13,32.7Z"/>
      </g>
      <path class="cls-20" d="m143.55,331.07c-1.63,0-3.4-.41-5.26-1.4-7-3.71-8.87-16.37-6.17-25.42,2.6-8.72,8.69-13.29,16.7-12.54,17.36,1.63,19.67,33.05,19.76,34.38.04.58-.2,1.14-.65,1.51-.45.37-1.04.51-1.61.37l-12.53-3.16c-1.94,2.87-5.57,6.25-10.25,6.25Zm3.6-35.81c-7.41,0-10.41,6.19-11.56,10.03-2.5,8.37-.36,18.66,4.39,21.18,6.8,3.6,11.19-4.26,11.37-4.59.4-.73,1.24-1.1,2.04-.89l11.31,2.85c-.89-7.19-4.42-27.4-16.22-28.5-.46-.04-.9-.06-1.33-.06Z"/>
      <path class="cls-20" d="m150.71,322.56c.27-.33.56-.77.83-1.18.27-.41.54-.84.79-1.27.51-.86.99-1.75,1.4-2.67.82-1.84,1.46-3.79,1.42-5.9.35.99.53,2.06.61,3.15.07,1.08.01,2.18-.09,3.26-.11,1.09-.3,2.17-.53,3.24-.12.54-.25,1.07-.39,1.61-.15.54-.29,1.05-.5,1.64l-.03.08c-.38,1.06-1.54,1.61-2.6,1.23s-1.61-1.54-1.23-2.6c.08-.22.19-.42.33-.59Z"/>
      <g>
        <path class="cls-20" d="m180.19,206.9c-.57,0-1.12-.24-1.5-.68l-26.04-29.54c-.62-.7-.67-1.73-.13-2.49.19-.27,4.79-6.71,10.66-12.64,8.42-8.51,15.13-11.54,19.94-9,3.09,1.63,6.82,6.42,3.62,29.21-1.69,11.99-4.58,23.5-4.61,23.62-.18.72-.75,1.28-1.47,1.46-.16.04-.31.06-.47.06Zm-23.47-31.67l22.42,25.43c.98-4.31,2.57-11.81,3.65-19.49,2.95-20.98-.42-24.5-1.52-25.08-5.26-2.77-17.16,9.15-24.54,19.14Z"/>
        <path class="cls-20" d="m175.69,191.38c-.55,0-1.09-.23-1.47-.65l-11.52-12.52c-.63-.68-.7-1.7-.19-2.47.09-.14,2.35-3.52,5.16-6.77,4.38-5.08,7.63-6.99,10.23-6.01,2.85,1.07,3.44,5.42,2.03,15-.88,5.96-2.23,11.64-2.29,11.88-.17.72-.73,1.29-1.44,1.47-.17.04-.34.06-.5.06Zm-8.96-14.7l7.85,8.53c1.84-8.77,2.61-16.63,1.74-18.48-1.58.21-5.88,4.67-9.59,9.95Z"/>
      </g>
      <path class="cls-20" d="m180.19,206.9c-.57,0-1.12-.24-1.5-.68l-26.04-29.54c-.62-.7-.67-1.73-.13-2.49.19-.27,4.79-6.71,10.66-12.64,8.42-8.51,15.13-11.54,19.94-9,3.09,1.63,6.82,6.42,3.62,29.21-1.69,11.99-4.58,23.5-4.61,23.62-.18.72-.75,1.28-1.47,1.46-.16.04-.31.06-.47.06Zm-23.47-31.67l22.42,25.43c.98-4.31,2.57-11.81,3.65-19.49,2.95-20.98-.42-24.5-1.52-25.08-5.26-2.77-17.16,9.15-24.54,19.14Z"/>
      <g>
        <path class="cls-20" d="m83.95,189.66c-.4,0-.79-.12-1.13-.35-.61-.42-.95-1.14-.86-1.88.01-.12,1.37-11.92,4.02-23.73,5.04-22.46,10.23-25.63,13.69-26.06,5.4-.67,10.61,4.53,15.48,15.46,3.4,7.62,5.43,15.27,5.51,15.59.24.9-.18,1.84-1,2.28l-34.79,18.45c-.29.16-.62.23-.94.23Zm16.63-48.07c-.14,0-.27,0-.41.03-1.24.15-5.63,2.26-10.27,22.93-1.7,7.57-2.86,15.14-3.46,19.52l29.95-15.89c-3.3-11.68-9.99-26.59-15.8-26.59Z"/>
        <path class="cls-20" d="m93.64,176.73c-.41,0-.81-.12-1.16-.37-.6-.43-.92-1.15-.83-1.89.03-.24.77-6.03,2.05-11.92,2.06-9.46,4.14-13.32,7.18-13.32h0c2.78,0,5.14,2.94,7.45,9.24,1.48,4.03,2.4,7.99,2.44,8.15.21.9-.23,1.83-1.05,2.24l-15.19,7.65c-.28.14-.59.21-.9.21Zm7.4-23.41c-1.47,1.45-3.51,9.06-4.88,17.9l10.35-5.21c-1.6-6.22-4.03-11.88-5.47-12.69Z"/>
      </g>
      <path class="cls-20" d="m83.95,189.66c-.4,0-.79-.12-1.13-.35-.61-.42-.95-1.14-.86-1.88.01-.12,1.37-11.92,4.02-23.73,5.04-22.46,10.23-25.63,13.69-26.06,5.4-.67,10.61,4.53,15.48,15.46,3.4,7.62,5.43,15.27,5.51,15.59.24.9-.18,1.84-1,2.28l-34.79,18.45c-.29.16-.62.23-.94.23Zm16.63-48.07c-.14,0-.27,0-.41.03-1.24.15-5.63,2.26-10.27,22.93-1.7,7.57-2.86,15.14-3.46,19.52l29.95-15.89c-3.3-11.68-9.99-26.59-15.8-26.59Z"/>
      <g>
        <path class="cls-10" d="m164.17,176.86s9.01-13.52,13.02-12.02c4.01,1.5-1.5,24.53-1.5,24.53l-11.52-12.52Z"/>
        <path class="cls-10" d="m108.83,167.07s-3.66-15.83-7.94-15.84-7.25,23.49-7.25,23.49l15.19-7.65Z"/>
      </g>
      <path class="cls-20" d="m175.69,190.67c-.36,0-.7-.15-.95-.42l-11.52-12.52c-.4-.44-.46-1.1-.12-1.6,2.25-3.37,9.94-14.24,14.55-12.51,1.72.65,3.26,2.84,1.58,14.23-.87,5.93-2.26,11.76-2.27,11.82-.11.47-.47.83-.93.95-.11.03-.22.04-.33.04Zm-9.87-13.93l9.15,9.94c.46-2.13,1.12-5.42,1.63-8.78,1.61-10.65.13-11.84.12-11.85-1.69-.64-6.95,4.98-10.9,10.69Z"/>
      <path class="cls-20" d="m93.64,176.02c-.26,0-.52-.08-.75-.24-.39-.28-.6-.75-.54-1.22,0-.06.77-6,2.04-11.86,2.45-11.24,4.65-12.76,6.49-12.76h0c4.92,0,8.29,12.89,9.2,16.84.13.58-.15,1.18-.68,1.45l-15.19,7.65c-.18.09-.38.14-.58.14Zm7.25-23.49s-1.8.59-4.05,11.13c-.71,3.33-1.25,6.64-1.57,8.79l12.07-6.07c-1.68-6.74-4.62-13.84-6.44-13.85Z"/>
      <g class="cls-7">
        <path class="cls-20" d="m118.73,169.2l-34.79,18.46s1.16-10.17,3.47-21.16c6.19-4.56,16.15-10.84,25.95-12.49,3.34,7.53,5.37,15.19,5.37,15.19Z"/>
      </g>
      <g class="cls-7">
        <path class="cls-20" d="m154.91,173.91l26.23,29.38s2.44-9.94,4.08-21.05c-4.22-6.42-11.39-15.77-20-20.71-5.75,5.9-10.3,12.39-10.3,12.39Z"/>
      </g>
      <path class="cls-12" d="m183.61,222.26c-4.5,30.36-31.3,41.42-61.66,36.91-30.36-4.5-52.79-22.86-48.29-53.23,4.5-30.36,32.77-51.32,63.13-46.82,30.36,4.5,51.32,32.77,46.82,63.13Z"/>
      <g class="cls-8">
        <path class="cls-3" d="m182.66,222.11c-.14.94-.3,1.87-.49,2.77,2.86-29.29-17.73-55.98-47.17-60.34-4.43-.66-8.81-.77-13.08-.4h0c.16,1.42-2.06,2.83-4.95,3.14-2.37.26-4.45-.29-5.21-1.28-19.53,5.51-35.19,21.55-39.4,42.5.09-.9.2-1.8.34-2.72,4.5-30.36,32.77-51.32,63.13-46.82,30.36,4.5,51.33,32.77,46.82,63.13Z"/>
      </g>
      <g class="cls-7">
        <path class="cls-20" d="m184.99,222.41c-4.5,30.36-31.3,41.42-61.66,36.92-29.19-4.33-51.04-21.46-48.69-49.75,2.03,23.51,22.38,37.82,48.69,41.72,30.36,4.5,57.16-6.55,61.66-36.92.21-1.4.36-2.8.47-4.19.29,4,.15,8.09-.47,12.22Z"/>
      </g>
      <path class="cls-20" d="m134.72,262.15c-4.2,0-8.56-.33-13.06-1-16.15-2.4-29.41-8.44-38.35-17.49-9.82-9.94-13.84-23.08-11.63-38.01,4.66-31.41,34-53.17,65.41-48.51,31.41,4.66,53.17,34,48.51,65.41h0c-2.21,14.93-9.88,26.34-22.16,33-8.07,4.37-17.83,6.6-28.72,6.6Zm-6.11-101.63c-26.09,0-49.02,19.15-52.96,45.72-4.71,31.77,20.98,47.15,46.6,50.95,25.62,3.8,54.67-3.46,59.39-35.23,4.34-29.22-15.91-56.52-45.13-60.86-2.65-.39-5.29-.58-7.9-.58Zm55.01,61.74h0,0Z"/>
      <path class="cls-20" d="m124.56,211.11l9.11.76c1.03.09,1.47,1.35.71,2.06l-5.07,4.73c-.52.49-1.35.41-1.77-.17l-4.04-5.49c-.61-.82.04-1.98,1.06-1.89Z"/>
      <g>
        <path class="cls-20" d="m109.17,215.53c.61,1.32,1.14,2.38,1.74,3.33.59.95,1.21,1.79,1.91,2.54.7.75,1.46,1.45,2.36,1.98.9.53,1.9.86,2.99.92h.33s.42,0,.42,0c.29,0,.53-.05.79-.08.51-.08,1.01-.22,1.5-.4.96-.37,1.85-.88,2.66-1.52.82-.62,1.53-1.38,2.22-2.22.71-.84,1.42-1.75,2.38-2.94h0c.14-.18.39-.21.55-.07.04.03.08.08.1.12.74,1.43.72,3.09.23,4.57-.52,1.49-1.48,2.81-2.67,3.88-1.2,1.06-2.64,1.84-4.18,2.26-.77.22-1.55.36-2.34.42-.39.02-.8.07-1.17.04l-.56-.02h-.29s-.36-.03-.36-.03c-1.52-.16-3.09-.57-4.52-1.24-1.44-.67-2.76-1.64-3.75-2.89-.99-1.25-1.66-2.75-1.87-4.3-.2-1.54.04-3.14.86-4.43.11-.18.35-.23.52-.11.06.04.11.1.14.16h0Z"/>
        <path class="cls-20" d="m129.12,217.21c.6,1.3,1.12,2.35,1.71,3.29.58.94,1.18,1.77,1.87,2.51.68.75,1.43,1.43,2.3,1.98.87.54,1.86.89,2.9.98l.16.02s.01,0,.02,0h.21s.41,0,.41,0c.28.02.53-.04.8-.06.52-.07,1.04-.2,1.53-.37.98-.36,1.9-.87,2.72-1.51.84-.63,1.56-1.39,2.26-2.24.72-.85,1.44-1.78,2.42-2.98h0c.14-.18.39-.21.55-.07.04.03.08.08.1.12.75,1.45.71,3.14.2,4.64-.54,1.51-1.54,2.84-2.75,3.91-1.23,1.05-2.71,1.82-4.28,2.22-.78.21-1.58.33-2.38.38-.4,0-.81.05-1.19.02l-.59-.03h-.29c-.15-.03-.32-.05-.47-.08l.16.02c-1.53-.2-3.04-.61-4.45-1.3-1.4-.68-2.69-1.66-3.65-2.9-.95-1.24-1.6-2.72-1.79-4.25-.18-1.52.06-3.08.87-4.36.11-.18.35-.23.52-.11.06.04.11.1.14.16h0Z"/>
      </g>
      <path class="cls-20" d="m126.43,249.38c-.24,0-.48-.01-.72-.04-3.82-.39-6.95-3.83-8.58-9.43-1.11-3.81-1.44-8.28-.97-12.93.03-.3.06-.6.1-.89.13-1.05,1.05-1.82,2.1-1.76,4.36.25,8.06-2.96,8.43-7.31,0,0,0,0,0-.01.09-1.1,1.06-1.92,2.16-1.83,1.1.09,1.92,1.06,1.83,2.16,0,0,0,0,0,.01-.36,4.36,2.76,8.15,7.11,8.62,1.07.11,1.85,1.05,1.78,2.12-.03.42-.06.84-.11,1.27-.47,4.61-1.69,8.9-3.52,12.4-2.56,4.88-6.03,7.62-9.63,7.62Zm-6.36-21.09c-.29,3.77.03,7.47.91,10.51,1.13,3.89,3.05,6.35,5.14,6.56,2.1.22,4.49-1.83,6.39-5.46,1.49-2.85,2.56-6.49,3.01-10.32-3.18-.87-5.77-2.98-7.29-5.74-1.96,2.47-4.87,4.12-8.16,4.45Z"/>
      <path class="cls-20" d="m126.43,249.38c-.24,0-.48-.01-.72-.04-3.82-.39-6.95-3.83-8.58-9.43-.14-.5-.09-1.03.15-1.49,1.78-3.39,5.26-5.49,9.09-5.49,4.51,0,8.56,3.01,9.84,7.33.15.5.1,1.04-.15,1.5-2.56,4.88-6.03,7.62-9.63,7.62Zm-5.2-9.76c1.15,3.42,2.95,5.54,4.88,5.74,1.95.2,4.15-1.54,5.98-4.7-.99-2.23-3.24-3.73-5.72-3.73-2.07,0-3.97,1.01-5.13,2.68Z"/>
      <path class="cls-20" d="m134.72,262.15c-4.2,0-8.56-.33-13.06-1-16.15-2.4-29.41-8.44-38.35-17.49-9.82-9.94-13.84-23.08-11.63-38.01,4.66-31.41,34-53.17,65.41-48.51,31.41,4.66,53.17,34,48.51,65.41h0c-2.21,14.93-9.88,26.34-22.16,33-8.07,4.37-17.83,6.6-28.72,6.6Zm-6.11-101.63c-26.09,0-49.02,19.15-52.96,45.72-4.71,31.77,20.98,47.15,46.6,50.95,25.62,3.8,54.67-3.46,59.39-35.23,4.34-29.22-15.91-56.52-45.13-60.86-2.65-.39-5.29-.58-7.9-.58Zm55.01,61.74h0,0Z"/>
      <path class="cls-20" d="m124.56,211.11l9.11.76c1.03.09,1.47,1.35.71,2.06l-5.07,4.73c-.52.49-1.35.41-1.77-.17l-4.04-5.49c-.61-.82.04-1.98,1.06-1.89Z"/>
      <path class="cls-20" d="m137.68,227.97c-.03.4-.06.8-.1,1.2-.46,4.49-1.66,8.53-3.3,11.67-2.23,4.26-5.28,6.83-8.37,6.52-3.07-.32-5.53-3.41-6.86-8-.99-3.41-1.36-7.65-.9-12.17.03-.29.06-.57.1-.85,5.4.31,10.08-3.74,10.54-9.15-.46,5.43,3.5,10.2,8.89,10.79Z"/>
      <path class="cls-18" d="m134.28,240.84c-2.23,4.26-5.28,6.83-8.37,6.52-3.07-.32-5.53-3.41-6.86-8,1.38-2.63,4.14-4.42,7.32-4.42,3.74,0,6.9,2.49,7.92,5.9Z"/>
      <path class="cls-20" d="m126.43,249.38c-.24,0-.48-.01-.72-.04-3.82-.39-6.95-3.83-8.58-9.43-1.11-3.81-1.44-8.28-.97-12.93.03-.3.06-.6.1-.89.13-1.05,1.05-1.82,2.1-1.76,4.36.25,8.06-2.96,8.43-7.31,0,0,0,0,0-.01.09-1.1,1.06-1.92,2.16-1.83,1.1.09,1.92,1.06,1.83,2.16,0,0,0,0,0,.01-.36,4.36,2.76,8.15,7.11,8.62,1.07.11,1.85,1.05,1.78,2.12-.03.42-.06.84-.11,1.27-.47,4.61-1.69,8.9-3.52,12.4-2.56,4.88-6.03,7.62-9.63,7.62Zm-6.36-21.09c-.29,3.77.03,7.47.91,10.51,1.13,3.89,3.05,6.35,5.14,6.56,2.1.22,4.49-1.83,6.39-5.46,1.49-2.85,2.56-6.49,3.01-10.32-3.18-.87-5.77-2.98-7.29-5.74-1.96,2.47-4.87,4.12-8.16,4.45Z"/>
      <g>
        <path class="cls-20" d="m83.06,210.9c-1.61-.34-3.11-.73-4.6-1.13-1.48-.39-2.95-.77-4.4-1.14-1.46-.38-2.92-.66-4.4-.96-1.49-.31-2.99-.48-4.62-.78,1.47-.73,3.11-1.12,4.75-1.18,1.64-.06,3.29.09,4.87.5,1.58.39,3.11.98,4.54,1.74,1.42.78,2.77,1.71,3.87,2.95Z"/>
        <path class="cls-20" d="m83.3,222.36c-1.64.12-3.19.15-4.73.18-1.54.03-3.04.07-4.55.12-1.51.04-2.99.17-4.5.29-1.52.12-3,.36-4.66.52,1.21-1.11,2.68-1.93,4.24-2.45,1.56-.51,3.19-.82,4.82-.86,1.63-.06,3.26.08,4.84.43,1.58.36,3.13.88,4.53,1.77Z"/>
        <path class="cls-20" d="m87.35,232.69c-1.45.77-2.86,1.42-4.25,2.07-1.39.65-2.76,1.29-4.11,1.94-1.36.64-2.67,1.36-4,2.07-1.34.72-2.6,1.54-4.05,2.36.66-1.5,1.68-2.85,2.89-3.95,1.22-1.09,2.59-2.04,4.06-2.73,1.47-.71,3.02-1.24,4.6-1.56,1.59-.31,3.22-.46,4.86-.21Z"/>
      </g>
      <g>
        <path class="cls-20" d="m175.06,219.27c1.44-.81,3.02-1.25,4.62-1.53,1.6-.26,3.23-.31,4.86-.17,1.63.13,3.24.53,4.77,1.12,1.53.6,2.95,1.5,4.1,2.67-1.64-.25-3.12-.57-4.62-.77-1.5-.2-2.97-.4-4.48-.52-1.5-.13-3-.25-4.53-.36-1.53-.12-3.08-.23-4.71-.43Z"/>
        <path class="cls-20" d="m171.1,230.03c1.61-.38,3.25-.37,4.86-.19,1.61.19,3.19.59,4.72,1.17,1.53.57,2.97,1.4,4.28,2.39,1.3.99,2.43,2.25,3.21,3.7-1.51-.69-2.84-1.41-4.23-2.01-1.39-.61-2.75-1.21-4.16-1.74-1.4-.54-2.82-1.07-4.26-1.6-1.44-.53-2.9-1.07-4.41-1.71Z"/>
        <path class="cls-20" d="m163.9,238.47c1.63.3,3.12.97,4.53,1.78,1.4.82,2.69,1.83,3.84,2.97,1.17,1.14,2.15,2.48,2.95,3.91.79,1.44,1.31,3.04,1.45,4.68-1.11-1.24-2.03-2.43-3.06-3.55-1.03-1.11-2.03-2.21-3.11-3.27-1.07-1.06-2.15-2.11-3.25-3.18-1.11-1.07-2.22-2.14-3.35-3.35Z"/>
      </g>
      <path class="cls-20" d="m138.43,328.87c-.1-.16-.13-.22-.19-.32-.05-.09-.09-.18-.13-.27-.07-.18-.14-.35-.19-.53-.11-.35-.17-.7-.21-1.05-.08-.7-.03-1.39.06-2.07.08-.68.25-1.33.44-1.97.21-.64.46-1.26.8-1.85.05-.1.17-.13.27-.08.05.03.08.07.09.12h0c.08.33.15.65.2.97.07.32.12.63.18.94.12.62.22,1.22.35,1.8l.39,1.69c.06.27.12.54.17.79l.07.38c.01.06.02.12.03.18,0,.05.02.13,0,.12.32.64.06,1.42-.58,1.74-.64.32-1.42.06-1.74-.58Z"/>
      <path class="cls-20" d="m145.33,329.01c-.33-.73-.43-1.38-.49-2.08-.06-.69,0-1.38.08-2.06.18-1.36.54-2.69,1.18-3.92.05-.1.17-.13.27-.08.05.03.09.07.1.13h0c.17.67.27,1.31.41,1.94.12.63.25,1.25.37,1.85.13.61.28,1.2.38,1.79.1.58.2,1.21.19,1.72v.19c-.01.72-.6,1.29-1.32,1.28-.52,0-.97-.32-1.17-.77Z"/>
      <path class="cls-20" d="m105.7,316.66c-.09.04-.02-.03-.02-.06l.07-.14c.06-.09.11-.2.18-.31.12-.22.26-.45.4-.69.26-.49.58-.99.85-1.54.28-.54.55-1.12.83-1.7.14-.29.27-.59.42-.89.14-.3.29-.61.45-.91h0c.05-.1.17-.14.27-.08.05.03.08.08.1.13.16.68.24,1.36.27,2.06.02.69,0,1.39-.11,2.09-.1.7-.26,1.41-.56,2.1-.15.34-.33.68-.56,1.01-.12.17-.25.32-.4.48-.07.08-.16.16-.24.23-.11.09-.16.13-.37.28-.57.44-1.38.33-1.82-.24-.44-.57-.33-1.38.24-1.82Z"/>
      <path class="cls-20" d="m111.43,320.47c-.08.02,0-.04.02-.08l.12-.14.27-.31c.18-.22.37-.46.56-.71.37-.51.77-1.04,1.13-1.64.37-.59.71-1.22,1.05-1.87l.51-1c.16-.34.34-.68.53-1.02h0c.05-.1.17-.13.26-.08.06.03.09.09.1.14.05.39.08.78.1,1.18.01.39,0,.79-.02,1.18-.06.79-.17,1.58-.39,2.37-.21.79-.49,1.58-.96,2.32-.23.37-.5.73-.82,1.05-.16.17-.34.32-.54.47-.1.08-.21.14-.32.22-.13.08-.2.12-.45.23-.64.32-1.42.06-1.74-.58-.32-.64-.06-1.42.58-1.74Z"/>
      <g>
        <ellipse class="cls-20" cx="110.45" cy="199.81" rx="10.02" ry="6.82" transform="translate(-112.38 249.53) rotate(-73.65)"/>
        <ellipse class="cls-3" cx="112.57" cy="198.51" rx="2.93" ry="1.99" transform="translate(-109.61 250.63) rotate(-73.64)"/>
      </g>
      <path class="cls-20" d="m157.61,200.97c-1.28.17-2.59.4-3.83.72-1.24.32-2.43.72-3.55,1.22-.57.23-1.1.53-1.64.81l-.77.48c-.26.15-.51.32-.75.51-1,.67-1.84,1.53-2.68,2.4l-1.79-2.75c.4-.1.66-.14.98-.18.3-.04.6-.06.9-.09.6-.04,1.19-.03,1.78,0,1.18.07,2.35.3,3.46.69,1.1.4,2.18.88,3.11,1.57.97.63,1.78,1.46,2.5,2.31.21.25.18.62-.07.83-.19.16-.44.18-.64.08l-.06-.03c-.47-.23-.9-.51-1.35-.72-.46-.21-.9-.43-1.37-.59-.92-.35-1.85-.61-2.8-.75-.94-.16-1.89-.22-2.84-.18-.47.02-.94.06-1.4.12-.23.03-.46.07-.68.11-.11.02-.22.05-.32.07l-.15.04-.11.03h-.04c-.91.26-1.85-.28-2.09-1.2-.15-.56,0-1.14.35-1.55.98-1.14,2.04-2.26,3.31-3.09.6-.46,1.29-.79,1.95-1.15.69-.29,1.38-.61,2.1-.81,1.43-.44,2.9-.67,4.35-.69,1.46,0,2.89.15,4.31.63.31.1.48.44.37.75-.07.22-.27.37-.48.4h-.06Z"/>
    </g>
  </g>
  <text class="cls-2" transform="translate(354.75 236.19)"><tspan x="0" y="0">Bal</tspan><tspan class="cls-5" x="327.22" y="0">t</tspan><tspan x="416.1" y="0">o</tspan></text>
  <text class="cls-9" transform="translate(369.47 304.68)"><tspan class="cls-6" x="0" y="0">A</tspan><tspan x="31.47" y="0">dopciones </tspan><tspan class="cls-1" x="255.76" y="0">r</tspan><tspan class="cls-4" x="271.99" y="0">esponsables</tspan></text>
</svg>