<?xml version="1.0" encoding="UTF-8"?>
<svg id="Layer_1" data-name="Layer 1" xmlns="http://www.w3.org/2000/svg" viewBox="0 0 320.84 427.37">
  <defs>
    <style>
      .cls-1 {
        letter-spacing: -.02em;
      }

      .cls-2 {
        letter-spacing: 0em;
      }

      .cls-3 {
        letter-spacing: -.01em;
      }

      .cls-4 {
        opacity: .2;
      }

      .cls-5 {
        opacity: .6;
      }

      .cls-6 {
        font-family: BalooThambi2-ExtraBold, 'Baloo Thambi 2';
        font-size: 117.31px;
        font-weight: 700;
      }

      .cls-6, .cls-7 {
        fill: #ff9331;
      }

      .cls-8 {
        fill: #fa509c;
      }

      .cls-8, .cls-9, .cls-10, .cls-11, .cls-7, .cls-12, .cls-13, .cls-14, .cls-15, .cls-16, .cls-17, .cls-18 {
        stroke-width: 0px;
      }

      .cls-9 {
        fill: #42f4d2;
      }

      .cls-10 {
        fill: #d5b3f5;
      }

      .cls-11 {
        fill: #ae531e;
      }

      .cls-12 {
        fill: #f2d4d4;
      }

      .cls-13 {
        fill: #ffb012;
      }

      .cls-14 {
        fill: #fff;
      }

      .cls-15 {
        fill: #ff0068;
      }

      .cls-16 {
        fill: #ff48a0;
      }

      .cls-17 {
        fill: #02daff;
      }

      .cls-18, .cls-19 {
        fill: #000072;
      }

      .cls-19 {
        font-family: Lato-Regular, Lato;
        font-size: 24.51px;
      }
    </style>
  </defs>
  <g>
    <path class="cls-17" d="m272.27,142.81c0,21.37-5.37,41.47-14.84,59.06-18.14,33.71-51.33,58.11-90.58,64.22h0c-6.31.98-12.77,1.49-19.35,1.49-4.5,0-8.94-.24-13.31-.71-37.36-3.96-69.79-24.41-89.89-53.93-13.61-19.99-21.57-44.13-21.57-70.13,0-68.91,55.86-124.77,124.77-124.77s124.77,55.86,124.77,124.77Z"/>
    <g>
      <path class="cls-7" d="m262.06,191.88c-4.84,10.76-13.13,23.61-18.34,29.92-11.91,14.42-27,26.11-44.2,34.02-.26.13-.53.25-.79.36-.08.04-.16.07-.24.1-7.91,3.55-16.25,6.3-24.94,8.14-.58.13-1.17.25-1.76.36-.67.13-1.34.26-2.02.38-.96.17-1.93.33-2.9.49h0c-.41-.02-19.66-1.12-27.78-12.39-1.78-2.48-3.2-6.48-3.97-11.48-2.37-15.37,1.38-40.14,19.39-58.81,3.07-3.19,6.57-6.19,10.51-8.95l61.01-10.49s5.48.25,12.27,4.09c8.21,4.64,15.4,7.64,23.76,24.25Z"/>
      <g class="cls-5">
        <path class="cls-14" d="m262.06,191.69c-.35.77-.71,1.56-1.1,2.35-7.27-12.4-13.79-15.24-21.12-19.38-6.79-3.84-12.27-4.08-12.27-4.08l-61.01,10.49c-3.95,2.75-7.44,5.76-10.51,8.95-17.52,18.16-21.54,42.08-19.57,57.51-4.5-14.15-2.54-43.41,18.04-64.73,3.07-3.19,6.57-6.19,10.51-8.95l61.01-10.49s5.48.25,12.26,4.08c8.21,4.64,15.4,7.64,23.76,24.26Z"/>
      </g>
      <path class="cls-12" d="m243.72,221.79c-17.97,21.75-43.17,37.31-71.93,42.99-2.3-5.88-3.57-12.4-3.57-19.28,0-25.91,18.15-46.9,40.53-46.9,14.9,0,27.93,9.31,34.97,23.19Z"/>
      <path class="cls-18" d="m166.87,267.48s-.07,0-.11,0c-.84-.05-20.61-1.29-29.15-13.14-4.26-5.92-5.99-18.36-4.29-30.95,2.12-15.78,9.19-30.58,19.88-41.66,3.23-3.35,6.86-6.44,10.78-9.18.22-.15.47-.26.73-.3l61.01-10.49c.25-.04.51-.03.76.03.19.05,4.79,1.24,12.09,4.01,6.95,2.63,16.94,9.15,25.1,25.28.23.45.26.98.08,1.45-3.6,9.8-13.07,23.7-18.65,30.45-18.59,22.5-44.51,37.99-72.98,43.62-1.6.32-3.23.61-4.99.88-.09.01-.19.02-.28.02Zm-1.13-91.72c-3.6,2.54-6.94,5.4-9.91,8.49-10.16,10.53-16.88,24.61-18.9,39.62-1.81,13.48.62,24.14,3.64,28.34,7.22,10.02,24.14,11.48,26.22,11.62,1.64-.26,3.16-.53,4.65-.83,27.65-5.46,52.82-20.51,70.88-42.36,5.12-6.19,14.13-19.38,17.76-28.65-7.56-14.56-16.53-20.44-22.78-22.8-5.95-2.25-10.12-3.45-11.34-3.79l-60.22,10.35Z"/>
      <path class="cls-9" d="m237.94,169.62c-7.87,11.71-27.21,22.83-47.41,22.84-14.08,0-26.62-2.2-36.02-9.48,3.07-3.19,6.56-6.19,10.51-8.95l61.02-10.49s5.49,1.65,11.9,6.09Z"/>
      <path class="cls-18" d="m186.71,194.41c-12.28,0-25.26-3.83-33.31-9.99-.41-.32-.67-.79-.71-1.31s.14-1.03.5-1.4c3.23-3.35,6.86-6.44,10.78-9.18.22-.15.47-.26.73-.3l61.02-10.49c.07-.01.15-.02.22-.02.28-.01,7-.29,13.85,4.44.79.55,1.02,1.61.53,2.43-8.8,14.73-26.9,24.09-49.66,25.69-1.3.09-2.62.14-3.95.14Zm-29.39-11.68c7.25,4.77,19.71,8.84,33.09,7.91,20.76-1.45,37.34-9.59,45.85-22.42-4.88-2.83-9.34-2.88-10.03-2.87l-60.49,10.4c-3.01,2.13-5.83,4.47-8.42,6.98Z"/>
      <circle class="cls-13" cx="198.73" cy="197.24" r="8.2"/>
      <g class="cls-5">
        <path class="cls-14" d="m206.93,196.95c-1.36-2.66-4.12-4.49-7.31-4.49-4.53,0-8.2,3.67-8.2,8.2,0,.1,0,.19,0,.29-.56-1.11-.88-2.37-.88-3.7,0-4.53,3.67-8.2,8.2-8.2s8.04,3.52,8.19,7.91Z"/>
      </g>
      <g class="cls-4">
        <path class="cls-18" d="m206.93,197.24c0,4.53-3.67,8.2-8.2,8.2s-8.2-3.67-8.2-8.2c0-.44.04-.87.1-1.3,1.41,2.49,4.08,4.16,7.14,4.16,4.08,0,7.47-2.99,8.09-6.9.68,1.19,1.06,2.57,1.06,4.03Z"/>
      </g>
      <path class="cls-18" d="m198.73,207.26c-5.52,0-10.02-4.49-10.02-10.02s4.49-10.02,10.02-10.02,10.02,4.49,10.02,10.02-4.49,10.02-10.02,10.02Zm0-16.39c-3.52,0-6.38,2.86-6.38,6.38s2.86,6.37,6.38,6.37,6.37-2.86,6.37-6.37-2.86-6.38-6.37-6.38Z"/>
      <path class="cls-7" d="m196.09,271.3c-6.68,6.53-20.54,5.66-26.32-6.13-.99-2.03-1.75-4.37-2.18-7.06,0,0,0,0,0,0-.11-.68-.2-1.38-.27-2.11l-16.85-9.56s.79-.25,2.17-.62c8.36-2.24,38.47-8.85,45.77,9.47.12.29.23.59.33.9h0c2.27,6.63.73,11.83-2.64,15.13Z"/>
      <g class="cls-4">
        <path class="cls-18" d="m169.77,265.17c-.96.17-1.93.33-2.9.49h0c-.41-.02-19.66-1.12-27.78-12.39-1.78-2.48-3.2-6.48-3.97-11.48.05-.3.12-.57.21-.83,0,0,7.87,19.64,32.26,17.14,0,0,0,0,0,0,.13.18,2.32,3.35,5.97,6.32,3.67,2.98,8.79,5.75,14.75,5.06,9.99-1.16,10.35-10.15,10.19-13.2-.03-.63-.09-1.01-.09-1.01l1.12.54c-.26.13-.53.25-.79.36,6.77,19.75-20.25,26.75-28.96,8.99Z"/>
      </g>
      <g class="cls-5">
        <path class="cls-14" d="m196.09,271.3c3.34-10.46-.68-17.48-8.61-21.66-13.07-6.88-34.85-3.84-34.85-3.84,8.36-2.24,38.47-8.85,45.77,9.47.12.29.23.59.33.9h0c2.27,6.63.73,11.83-2.64,15.13Z"/>
      </g>
      <path class="cls-18" d="m150.38,246.15c2.12-1.07,4.33-1.88,6.57-2.61,1.12-.35,2.26-.69,3.4-.97,1.14-.29,2.3-.56,3.46-.78,2.32-.45,4.68-.76,7.07-.9,2.38-.13,4.79-.07,7.19.15,2.4.25,4.8.62,7.18,1.26,2.37.64,4.71,1.54,6.87,2.87,2.16,1.32,4.12,3.05,5.63,5.14,1.5,2.08,2.58,4.46,3.18,6.88.64,2.43.91,5.05.47,7.66-.42,2.6-1.59,5.14-3.36,7.15-1.76,2.02-4.09,3.45-6.54,4.33-2.46.88-5.1,1.18-7.68.97-2.58-.23-5.13-.98-7.39-2.25-2.27-1.26-4.26-3-5.8-5.04-1.54-2.03-2.73-4.31-3.36-6.72-.13-.61-.26-1.21-.37-1.82-.09-.61-.11-1.23-.15-1.84l-.03-.91c.02-.31.04-.61.07-.92.06-.61.13-1.21.25-1.81.03-.16.18-.26.34-.23.09.02.17.08.21.16v.02c1.04,2.2,1.73,4.31,2.72,6.27.95,1.95,1.94,3.82,3.29,5.42,1.34,1.59,2.94,2.93,4.76,3.88,1.81.95,3.8,1.56,5.84,1.73,2.03.2,4.1-.03,6.02-.66,1.91-.64,3.69-1.68,5.01-3.13,1.33-1.45,2.21-3.26,2.56-5.22.35-1.97.17-4.06-.36-6.1-.51-2.07-1.4-3.99-2.61-5.67-1.21-1.68-2.79-3.07-4.58-4.17-3.61-2.2-8.02-3.22-12.45-3.47-2.22-.12-4.46-.1-6.71-.02-2.25.07-4.51.21-6.78.39-4.54.35-9.1.92-13.73,1.48h0c-.15.02-.3-.09-.31-.25-.01-.12.05-.23.15-.29Z"/>
      <path class="cls-7" d="m250.66,212.65c-.78,1.31-3.06,4.88-7.14,9.38,0,0,7.57,28.03-11.1,31.67-2.7.53-5.02.16-6.98-.88-7.08-3.76-9.27-16.37-6.92-27.29.24-1.09.52-2.17.85-3.22h0s0-.02,0-.02c1.73-5.55,4.73-10.32,8.94-12.75,10.62-6.13,20.41.81,22.31,2.3.22.17.33.27.33.27,0,0-.1.19-.31.54Z"/>
      <g class="cls-5">
        <path class="cls-14" d="m250.98,212.11s-.1.19-.31.54c-4.55-1.09-13.49-4.68-20.3-.08-6.67,4.51-15.37,25.27-4.91,40.25-7.08-3.76-9.27-16.37-6.92-27.29.24-1.09.52-2.17.85-3.22h0s0-.02,0-.02c1.73-5.55,4.73-10.32,8.94-12.75,10.62-6.13,20.41.81,22.31,2.3.22.17.33.27.33.27Z"/>
      </g>
      <g class="cls-4">
        <path class="cls-18" d="m243.53,222.04s7.57,28.03-11.1,31.67c-12.5,2.44-16.89-14.25-13.89-28.18l.85-3.21c-.21.94-6.24,27.96,10.25,25.14,16.78-2.86,11.12-30.7,11.12-30.7,2.45.11,6.7-2.59,9.89-4.92.22.17.33.27.33.27,0,0-2.28,4.21-7.45,9.93Z"/>
      </g>
      <path class="cls-18" d="m230.06,255.77c-5.51,0-9.92-3.52-12.33-9.97-4.49-12.01-1.17-31.57,9.69-37.83,12.82-7.39,24.63,2.67,24.75,2.78.64.56.81,1.49.41,2.24-.09.17-2.25,4.12-7.06,9.56.86,3.73,3.4,17.08-2.01,25.77-2.4,3.85-6.01,6.27-10.73,7.19-.93.18-1.84.27-2.72.27Zm7.38-46.91c-2.56,0-5.34.61-8.2,2.25-8.96,5.17-12,22.99-8.1,33.4,1.52,4.05,4.65,8.63,10.94,7.4,3.74-.73,6.47-2.54,8.34-5.54,5.38-8.63,1.39-23.72,1.35-23.87-.16-.6,0-1.24.41-1.7,3.27-3.61,5.35-6.61,6.4-8.24-1.96-1.35-6.09-3.71-11.13-3.71Z"/>
      <path class="cls-18" d="m241.65,222.91c-.09-.68-.21-1.4-.33-2.1-.13-.7-.26-1.41-.42-2.11-.31-1.4-.66-2.8-1.18-4.16,1.04,1.03,1.96,2.21,2.84,3.4.44.6.87,1.21,1.28,1.82.42.62.82,1.23,1.23,1.89l.02.03c.54.88.26,2.03-.61,2.57-.88.54-2.03.26-2.57-.61-.14-.23-.23-.48-.26-.73Z"/>
      <path class="cls-11" d="m263.41,120.54c0,.36,0,.74-.01,1.12-.46,17.76-15.94,27.32-26.87,29.6l-36.88-76.96v-1.37c2.46-3.14,6.89-5.25,11.63-6.06,4.9-.84,10.12-.29,13.87,1.96,9.11,5.46,9.56,15.48,17.3,20.49,5.41,3.5,20.85,12.28,20.96,31.21Z"/>
      <g class="cls-5">
        <path class="cls-14" d="m263.41,120.91c0,.36,0,.74-.01,1.12-.31,11.92-7.38,20.15-15.31,24.96,6.44-4.96,11.63-12.45,11.89-22.62,0-.38.01-.75.01-1.12-.11-18.94-15.55-27.72-20.96-31.21-7.74-5.01-8.2-15.03-17.3-20.49-3.74-2.24-8.97-2.8-13.87-1.96-2.44.41-4.79,1.17-6.83,2.24,2.56-2.33,6.3-3.91,10.25-4.58,4.9-.84,10.12-.29,13.87,1.96,9.11,5.46,9.56,15.48,17.3,20.49,5.41,3.5,20.85,12.28,20.96,31.21Z"/>
      </g>
      <g class="cls-4">
        <path class="cls-18" d="m263.41,120.54c0,.36,0,.74-.01,1.12-.46,17.76-15.94,27.32-26.87,29.6l-36.88-76.96v-1.37c2.46-3.14,6.89-5.25,11.63-6.06,3.2,1.77,6.17,3.89,8.77,6.07,7.58,6.34,12.5,15.22,18.81,22.83,2.72,3.27,5.72,6.35,7.84,10.03,2.48,4.31,3.8,9.53,7.69,12.64,2.5,2,5.89,2.67,9.02,2.1Z"/>
      </g>
      <path class="cls-11" d="m157.94,80.74l-7.17,85.04c-4.44.7-9.98.56-15.46-.92-8.14-2.21-16.14-7.39-20.16-17.22-7.47-18.25,4.22-32.37,8.11-37.66,5.46-7.43,2.33-16.96,8.9-25.3,4.31-5.47,13.7-8.26,20.8-6.88,1.65.32,3.18.87,4.49,1.66l.49,1.27Z"/>
      <g class="cls-4">
        <path class="cls-18" d="m157.94,80.74l-7.17,85.04c-4.44.7-9.98.56-15.46-.92-2.84-2.35-5.24-5.25-7.04-8.47-3.84-6.86-5.05-15.02-4.18-22.84.64-5.74,2.34-11.31,4.03-16.83.84-2.74,1.68-5.48,2.53-8.22,1.03-3.37,2.07-6.75,3.11-10.13.81-2.64,1.63-5.3,2.96-7.73,2.41-4.41,6.38-7.8,10.76-10.25,1.77-.98,3.6-1.83,5.48-2.58,1.65.32,3.18.87,4.49,1.66l.49,1.27Z"/>
      </g>
      <g class="cls-5">
        <path class="cls-14" d="m157.93,80.32l-.08.94c-7.22-2.4-18.06.36-22.79,6.36-6.58,8.34-3.45,17.87-8.91,25.3-3.89,5.3-15.57,19.42-8.11,37.66.95,2.31,2.12,4.37,3.46,6.19-2.59-2.53-4.79-5.68-6.38-9.56-7.46-18.24,4.22-32.37,8.11-37.66,5.46-7.43,2.33-16.96,8.91-25.3,5.32-6.75,18.35-9.4,25.3-5.22l.48,1.28Z"/>
      </g>
      <path class="cls-18" d="m236.53,153.07c-.69,0-1.33-.39-1.64-1.03l-36.88-76.96c-.23-.48-.23-1.01-.05-1.47-.24-.59-.16-1.28.26-1.81,5.62-7.16,19.69-9.44,27.87-4.53,5.19,3.11,7.82,7.65,10.14,11.65,2.01,3.46,3.91,6.73,7.21,8.87.28.18.59.38.92.59,6.39,4.07,21.37,13.6,20.86,33.32-.22,8.42-3.7,15.99-10.09,21.9-5.01,4.63-11.65,8.07-18.23,9.44-.12.03-.25.04-.37.04Zm-35.15-79.38l36.16,75.45c8.85-2.32,23.6-10.51,24.04-27.54.45-17.66-13.3-26.41-19.17-30.15-.34-.22-.65-.42-.94-.6-4.04-2.61-6.25-6.42-8.39-10.1-2.3-3.97-4.48-7.72-8.87-10.35-6.42-3.85-18.15-2.1-22.83,3.3Z"/>
      <path class="cls-18" d="m145.33,168.02c-4.99,0-10.12-.96-14.67-2.8-8.06-3.25-14.01-9.09-17.2-16.89-7.47-18.26,3.14-32.48,7.68-38.55.23-.31.45-.61.65-.87,2.33-3.17,2.94-6.9,3.59-10.86.75-4.56,1.6-9.74,5.35-14.49,5.91-7.49,19.87-10.35,27.66-5.65.58.35.89.97.88,1.6.34.36.52.86.48,1.39l-7.17,85.04c-.07.84-.7,1.51-1.53,1.65-1.86.29-3.78.44-5.72.44Zm3.84-88.75c-5.82,0-12.37,2.46-15.58,6.54-3.17,4.02-3.87,8.3-4.61,12.83-.69,4.2-1.41,8.55-4.25,12.42-.2.28-.43.57-.67.9-4.16,5.58-13.92,18.64-7.22,34.99,6.45,15.76,23.15,18.18,32.24,17.21l7.03-83.37c-1.93-1.04-4.36-1.52-6.93-1.52Z"/>
      <path class="cls-7" d="m249.05,138.73c-1.37,36.88-50.55,45.08-50.55,45.08,0,0-54.19,9.11-68.19-28.26-10.18-27.17,4.77-42.08,6.26-51.43,1.48-9.36,11.07-33.1,40.98-37.79,7.72-1.21,14.51-.85,20.43.52,18.52,4.29,28.47,18.46,31.48,24.98,3.41,7.38,16.18,15.25,19.05,35.68.47,3.38.68,7.1.53,11.22Z"/>
      <path class="cls-11" d="m248.52,127.51c-6.68,5.18-15.07,8.26-24.18,8.26-21.82,0-39.5-17.69-39.5-39.5,0-11.68,5.07-22.19,13.14-29.42,18.52,4.29,28.47,18.46,31.48,24.98,3.41,7.38,16.18,15.25,19.05,35.68Z"/>
      <g class="cls-5">
        <path class="cls-14" d="m249.05,137.79c0,.15-.01.31-.02.46-.09-1.94-.26-3.78-.51-5.53-2.87-20.44-15.64-28.3-19.05-35.68-2.68-5.8-10.85-17.65-25.65-23.21,0,.01,0,.03,0,.04-.31,1.08-2.41,1.43-4.72.78-2.28-.64-3.89-2.02-3.62-3.1-5.31-.93-11.27-1.06-17.91-.01-29.91,4.7-39.5,28.44-40.98,37.79-1.04,6.55-8.69,15.83-9.68,30.14-1.22-17.87,8.49-28.84,9.68-36.29,1.48-9.36,11.07-33.1,40.98-37.79,7.72-1.21,14.51-.85,20.43.52,18.52,4.29,28.47,18.46,31.48,24.98,3.41,7.38,16.18,15.25,19.05,35.68.47,3.38.68,7.1.53,11.22Z"/>
      </g>
      <g class="cls-4">
        <path class="cls-18" d="m249.41,139.46c-1.37,36.88-50.55,45.08-50.55,45.08,0,0-54.19,9.11-68.19-28.26-3.66-9.77-4.07-17.96-3.02-24.87.35,4.45,1.38,9.32,3.38,14.67,14,37.36,68.19,28.26,68.19,28.26,0,0,45.31-7.55,50.15-40.77.09,1.87.11,3.83.03,5.89Z"/>
      </g>
      <path class="cls-18" d="m184.41,186.62c-4.45,0-9.62-.28-15.03-1.12-20.7-3.24-34.8-13.37-40.77-29.3-7.79-20.78-1.25-34.9,3.08-44.24,1.47-3.18,2.74-5.92,3.09-8.11,1.83-11.57,13.07-34.69,42.5-39.31,7.42-1.16,14.52-.98,21.12.55,22.56,5.23,31.75,23.88,32.73,25.99.94,2.04,2.8,4.26,4.94,6.84,5.15,6.18,12.19,14.64,14.26,29.35.51,3.63.69,7.51.54,11.54h0c-.58,15.77-9.83,28.88-26.75,37.91-12.58,6.72-24.81,8.81-25.32,8.9-.37.06-6.16,1.01-14.39,1.01Zm2.28-119.2c-2.88,0-5.84.24-8.85.71-27.36,4.3-37.78,25.61-39.47,36.28-.43,2.7-1.8,5.65-3.38,9.07-4.31,9.32-10.22,22.08-2.97,41.44,5.56,14.83,18.31,23.91,37.92,26.98,14.83,2.32,28.13.14,28.26.12.12-.02,12.22-2.1,24.28-8.56,15.88-8.51,24.2-20.21,24.74-34.79h0c.14-3.82-.03-7.48-.51-10.9-1.92-13.68-8.32-21.36-13.45-27.53-2.31-2.78-4.31-5.17-5.45-7.65-3.26-7.05-13.29-20.03-30.24-23.97-3.48-.81-7.12-1.21-10.88-1.21Zm62.35,71.31h0,0Z"/>
      <path class="cls-18" d="m181.32,128.81l13.57-1.53c1.53-.17,2.55,1.56,1.64,2.81l-6.06,8.4c-.62.86-1.86.99-2.64.27l-7.51-6.87c-1.13-1.03-.52-2.91,1-3.08Z"/>
      <g>
        <path class="cls-18" d="m189.18,134.62c.87,1.92,1.06,4.14.7,6.28-.37,2.15-1.31,4.22-2.65,5.97-1.35,1.76-3.12,3.18-5.08,4.19-1.96,1.03-4.09,1.64-6.28,1.94-2.15.25-4.41.12-6.55-.45-2.14-.56-4.17-1.59-5.88-3-.41-.37-.82-.75-1.22-1.13-.37-.41-.73-.83-1.08-1.26-.31-.45-.65-.89-.94-1.36-.26-.48-.53-.96-.75-1.46-.85-2.01-1.15-4.26-.6-6.34.05-.17.22-.28.4-.23.09.02.16.08.2.16h0c.99,1.82,1.89,3.38,2.93,4.8.26.35.54.69.79,1.04l.84.98c.3.3.62.59.92.89l.98.82c1.35,1.03,2.87,1.84,4.48,2.36,1.63.52,3.34.72,5.08.55,1.69-.19,3.37-.73,4.83-1.61,1.47-.88,2.74-2.03,3.84-3.33,1.1-1.3,2.01-2.77,2.73-4.38.74-1.62,1.26-3.37,1.69-5.35h0c.04-.18.21-.28.38-.25.1.02.18.09.22.18Z"/>
        <path class="cls-18" d="m218.91,131.3c.88,1.95,1.06,4.21.68,6.38-.12.54-.25,1.08-.4,1.62-.2.52-.38,1.05-.61,1.56-.26.49-.5,1-.79,1.48-.32.46-.62.94-.97,1.38-1.4,1.77-3.23,3.17-5.23,4.16-1,.5-2.05.9-3.12,1.2-.54.13-1.08.31-1.62.38l-.81.14-.4.07c-.2.02-.41.04-.61.05h.17c-.15,0-.34.02-.47.02h-.39s-.78.04-.78.04c-.13,0-.26.01-.39.01l-.41-.02-.81-.05c-1.08-.09-2.16-.29-3.2-.58-2.1-.59-4.08-1.63-5.74-3.05-.41-.36-.8-.75-1.19-1.12-.36-.41-.7-.83-1.05-1.25-.31-.45-.62-.89-.91-1.34-.26-.48-.5-.96-.72-1.45-.82-1.99-1.1-4.2-.56-6.24.05-.17.22-.28.4-.23.09.02.16.08.2.16h0c.97,1.79,1.86,3.33,2.88,4.72.26.34.53.68.77,1.02.29.31.55.65.82.96l.9.88c.32.27.63.55.96.81,1.32,1.02,2.8,1.83,4.38,2.37.79.27,1.61.46,2.45.57l.63.06.31.03c.11,0,.22,0,.33,0h.66s.33,0,.33,0h.25s.16-.02.16-.02h.01s.08-.01.13-.01l.33-.05.67-.1c.46-.04.85-.21,1.28-.31.84-.24,1.64-.6,2.39-1.03,1.51-.86,2.82-2.02,3.94-3.33.29-.32.53-.68.81-1.02.26-.35.49-.72.74-1.08l.66-1.14c.19-.4.38-.8.59-1.2.75-1.64,1.28-3.42,1.72-5.42h0c.04-.18.21-.29.38-.25.1.02.18.09.22.18Z"/>
      </g>
      <path class="cls-18" d="m204.73,147.9l-4.64,22.48-14.12.91-9.15-20.29c7.6-1.45,12.92-8.53,12.04-16.34.89,7.99,7.91,13.79,15.86,13.24Z"/>
      <path class="cls-18" d="m185.98,173.11c-.71,0-1.36-.42-1.66-1.07l-9.15-20.29c-.23-.51-.21-1.09.04-1.59s.73-.84,1.28-.95c6.68-1.27,11.33-7.57,10.58-14.34,0,0,0,0,0,0-.11-1,.61-1.9,1.61-2.01,1-.11,1.9.61,2.01,1.61,0,0,0,0,0,0,.79,7,6.9,12.11,13.92,11.62.57-.04,1.12.19,1.5.62.37.43.53,1.01.41,1.57l-4.64,22.48c-.17.8-.85,1.4-1.67,1.45l-14.12.91s-.08,0-.12,0Zm-6.6-20.9l7.75,17.18,11.47-.74,3.9-18.93c-5.3-.37-9.99-3.23-12.79-7.51-1.75,4.62-5.5,8.37-10.33,10Z"/>
      <path class="cls-16" d="m194.35,180.07h0c-3.87.51-7.41-2.22-7.91-6.08l-1.24-9.48c-.51-3.87,2.22-7.41,6.08-7.91h0c3.87-.51,7.41,2.22,7.91,6.08l1.24,9.48c.51,3.87-2.22,7.41-6.08,7.91Z"/>
      <path class="cls-18" d="m193.41,181.95c-1.94,0-3.83-.64-5.39-1.84-1.88-1.45-3.09-3.54-3.39-5.89l-1.24-9.48c-.63-4.85,2.8-9.32,7.65-9.96,4.85-.63,9.32,2.8,9.96,7.65l1.24,9.48c.63,4.85-2.8,9.32-7.65,9.96,0,0,0,0,0,0-.39.05-.78.08-1.17.08Zm.93-1.88h0,0Zm-2.15-21.72c-.23,0-.45.01-.68.04-2.86.37-4.89,3.01-4.51,5.87l1.24,9.48c.18,1.39.89,2.62,2,3.47,1.11.85,2.48,1.22,3.87,1.04h0c2.86-.37,4.89-3.01,4.51-5.87l-1.24-9.48c-.34-2.63-2.6-4.56-5.19-4.56Z"/>
      <path class="cls-18" d="m181.99,274.98c-.01-.4,0-.88.03-1.33.02-.46.05-.91.09-1.37.07-.91.17-1.83.22-2.76.06-.93.1-1.87.1-2.81.03-.95-.03-1.9-.05-2.9h0c0-.12.09-.22.21-.22.08,0,.14.04.18.1.53.85.98,1.77,1.32,2.73.34.96.61,1.94.79,2.94.18,1,.31,2.02.31,3.04,0,.51-.03,1.02-.09,1.53-.06.52-.15,1-.32,1.55-.23.75-1.02,1.17-1.77.94-.59-.18-.98-.72-1.01-1.31v-.13Z"/>
      <path class="cls-18" d="m190.88,273.74c-.04-.37-.05-.83-.05-1.25-.01-.43,0-.86,0-1.29l.09-2.62c.02-.88.03-1.77.01-2.67,0-.91-.05-1.81-.05-2.76h0c0-.12.09-.22.21-.22.07,0,.14.04.18.09,1.05,1.6,1.74,3.41,2.19,5.28.22.93.4,1.88.45,2.84.03.48.03.96,0,1.45-.03.49-.09.95-.22,1.49-.19.76-.96,1.22-1.73,1.03-.59-.15-1-.65-1.07-1.22l-.02-.15Z"/>
      <path class="cls-18" d="m225.97,254.11c-.26-.44-.41-.81-.56-1.22-.15-.4-.26-.81-.34-1.23-.18-.83-.24-1.68-.26-2.52-.02-1.68.16-3.37.68-4.97.04-.11.16-.17.27-.14.07.02.11.07.13.13h0c.27.8.48,1.57.73,2.33.22.76.47,1.5.7,2.24.24.73.51,1.45.72,2.17.11.36.22.71.31,1.07.09.35.19.74.23,1.04l.02.2c.1.78-.46,1.49-1.24,1.58-.58.07-1.11-.22-1.39-.68Z"/>
      <path class="cls-18" d="m235.76,252.93c-.2-.23-.32-.39-.46-.59-.13-.19-.25-.38-.36-.58-.22-.39-.4-.8-.56-1.22-.31-.83-.49-1.7-.61-2.57-.11-.87-.16-1.75-.1-2.62.05-.87.18-1.73.42-2.56.03-.11.15-.18.26-.15.07.02.12.07.14.13h0c.3.81.54,1.59.84,2.33.27.75.59,1.48.89,2.18.31.71.67,1.38.98,2.06.16.34.32.67.47,1.01.08.16.15.34.22.5.06.16.15.35.18.46l.08.37c.17.75-.3,1.5-1.06,1.67-.52.12-1.03-.07-1.36-.44Z"/>
      <g>
        <ellipse class="cls-18" cx="166.57" cy="121.45" rx="9.7" ry="6.61" transform="translate(25.81 272.06) rotate(-83.03)"/>
        <ellipse class="cls-14" cx="168.39" cy="119.87" rx="2.83" ry="1.93" transform="translate(28.98 272.48) rotate(-83.03)"/>
      </g>
      <g>
        <ellipse class="cls-18" cx="206.15" cy="116.27" rx="6.61" ry="9.7" transform="translate(-21.63 52) rotate(-13.67)"/>
        <ellipse class="cls-14" cx="204.16" cy="114.91" rx="1.93" ry="2.83" transform="translate(-21.37 51.49) rotate(-13.67)"/>
      </g>
    </g>
    <g>
      <path class="cls-10" d="m111.76,127.57s16.85-23.68,25.5-19.13c8.65,4.55-1.82,45.99-1.82,45.99l-23.68-26.87Z"/>
      <path class="cls-10" d="m79.54,121.98l-31.64,16.78s1.05-9.25,3.16-19.24c2.41-11.41,6.19-23.79,11.37-24.43,4.87-.61,9.16,6.17,12.23,13.08,3.04,6.84,4.88,13.82,4.88,13.82Z"/>
      <path class="cls-10" d="m134.19,266.43c-37.36-3.96-69.79-24.41-89.89-53.93.9-1.26,1.83-2.57,2.75-3.94,2.31-3.4,4.64-7.11,6.8-10.98,2.27-4.08,4.35-8.35,6-12.64l56.01,5.01,2.88,12.79,4.4,19.54s8.26,8.26,11.18,22.8c1.22,6.07,1.51,13.23-.13,21.34Z"/>
      <g class="cls-4">
        <path class="cls-18" d="m134.19,266.43c-37.36-3.96-69.79-24.41-89.89-53.93.9-1.26,1.83-2.57,2.75-3.94.2.41.43.81.69,1.19,3.37,4.99,8.41,8.88,14.16,10.71,5.39,1.71,11.45,1.79,16.09,5.02,4.72,3.28,7.06,9.25,11.85,12.45,6.12,4.08,14.18,2.49,21.52,1.93.97-.08,2.01-.11,2.86.37.82.46,1.3,1.33,1.84,2.1,3.93,5.62,12.8,6.91,18.16,2.63.04.04.07.08.1.12,1.22,6.07,1.51,13.23-.13,21.34Z"/>
      </g>
      <path class="cls-18" d="m134.19,268.26c-.06,0-.13,0-.19-.01-36.96-3.92-70.2-23.86-91.2-54.71-.43-.63-.42-1.47.03-2.09,3.62-5.03,6.79-9.99,9.44-14.74,2.42-4.34,4.4-8.52,5.89-12.41.29-.76,1.05-1.23,1.86-1.16l56.01,5.01c.79.07,1.44.64,1.61,1.41l7.18,31.84c2.57,2.78,16.45,19.24,11.17,45.4-.17.86-.93,1.46-1.78,1.46Zm-87.67-55.73c20.11,28.91,51.38,47.74,86.19,51.91,4.35-25.3-10.7-40.7-10.86-40.86-.24-.24-.41-.55-.49-.89l-6.99-31.03-53.33-4.77c-1.48,3.68-3.36,7.57-5.6,11.59-2.53,4.54-5.53,9.26-8.92,14.05Z"/>
      <path class="cls-15" d="m118.74,202.74c-7.34,7.31-21.31,11-36.49,8.67-12.09-1.85-22.31-7.12-28.4-13.83,2.27-4.08,4.35-8.35,6-12.64l56.01,5.01,2.88,12.79Z"/>
      <path class="cls-18" d="m91.33,213.94c-3.05,0-6.19-.24-9.36-.72-12.1-1.86-22.84-7.11-29.47-14.41-.53-.58-.62-1.43-.24-2.11,2.42-4.34,4.4-8.52,5.89-12.41.29-.76,1.05-1.23,1.86-1.16l56.01,5.01c.79.07,1.44.64,1.61,1.41l2.88,12.79c.14.61-.05,1.25-.49,1.69-6.4,6.38-16.92,9.91-28.69,9.91Zm-35.24-16.64c6.13,6.2,15.68,10.67,26.44,12.32,13.62,2.09,26.89-.84,34.21-7.48l-2.36-10.48-53.33-4.77c-1.34,3.32-3,6.81-4.96,10.42Z"/>
      <circle class="cls-13" cx="83.98" cy="215.46" r="7.74"/>
      <g class="cls-5">
        <path class="cls-14" d="m91.72,215.46c0,.99-.19,1.94-.53,2.81-.36-3.94-3.67-7.03-7.7-7.03-3.28,0-6.09,2.05-7.21,4.94-.03-.23-.04-.47-.04-.71,0-4.28,3.47-7.74,7.74-7.74s7.74,3.47,7.74,7.74Z"/>
      </g>
      <g class="cls-4">
        <path class="cls-18" d="m91.72,215.46c0,4.28-3.47,7.74-7.74,7.74s-7.74-3.47-7.74-7.74c0-1.09.23-2.14.64-3.08.87,3.32,3.89,5.77,7.49,5.77,3.18,0,5.92-1.92,7.1-4.66.16.63.25,1.29.25,1.97Z"/>
      </g>
      <path class="cls-18" d="m83.98,225.02c-5.27,0-9.56-4.29-9.56-9.56s4.29-9.56,9.56-9.56,9.56,4.29,9.56,9.56-4.29,9.56-9.56,9.56Zm0-15.48c-3.26,0-5.92,2.66-5.92,5.92s2.66,5.92,5.92,5.92,5.92-2.66,5.92-5.92-2.66-5.92-5.92-5.92Z"/>
      <path class="cls-10" d="m84.37,248.66c-.56,4.04-2.24,7.69-5.4,10.06-10.93,8.2-17.05-12.28-13.99-22.76l-5.41-5.07s.1-.13.3-.35c1.23-1.37,6.24-6.24,14.09-5.06,6.48.97,11.8,13.24,10.4,23.18Z"/>
      <g class="cls-4">
        <path class="cls-18" d="m84.37,248.66c-.56,4.04-2.24,7.69-5.4,10.06-10.93,8.2-17.05-12.28-13.99-22.76l-5.41-5.07s.1-.13.3-.35c2.82.14,6.46,1.11,9.71,4.44,0,0-2.93,16.4,4.32,18.74,4.25,1.38,8.06-2.02,10.47-5.06Z"/>
      </g>
      <g class="cls-5">
        <path class="cls-14" d="m80.8,257.02c4.01-10.3-1.9-26.26-9.33-27.38-4.65-.7-8.31.73-10.77,2.3l-1.12-1.05s5.28-6.78,14.39-5.41c8.54,1.28,15.08,22.2,6.83,31.55Z"/>
      </g>
      <path class="cls-18" d="m74.09,262.25c-1.52,0-2.99-.47-4.35-1.41-5.9-4.09-8.42-16.42-6.6-24.35l-4.7-4.4c-.62-.58-.7-1.54-.17-2.22.24-.31,5.99-7.52,15.94-6.03,4.76.71,9.11,6.23,11.09,14.04,1.86,7.38,1.44,17.07-5.33,22.15-1.96,1.47-3.96,2.21-5.87,2.21Zm-12.18-31.43l4.2,3.94c.45.42.63,1.07.46,1.67-2.11,7.22.53,18.58,5.05,21.71,1.89,1.31,3.97,1.07,6.37-.73,5.48-4.11,5.64-12.64,4.11-18.7-1.6-6.32-5.04-11.09-8.38-11.59-5.92-.89-10.01,2.03-11.81,3.71Z"/>
      <path class="cls-10" d="m123.23,264.78l-12.58-3.17s-4.82,8.95-12.56,4.85c-2.99-1.58-4.92-5.62-5.57-10.3-1.37-9.72,2.75-22.19,14.22-21.12,8.93.84,13.1,11.81,15,20.18,1.2,5.3,1.48,9.56,1.48,9.56Z"/>
      <g class="cls-4">
        <path class="cls-18" d="m123.23,264.78l-12.58-3.17s-4.82,8.95-12.56,4.85c-2.99-1.58-4.92-5.62-5.57-10.3.13.19,4.28,6.17,9.18,6.15,4.98-.02,10.23-3.97,11.12-8.58,0,0,2.76,6.89,8.92,1.51h0c1.2,5.3,1.48,9.55,1.48,9.55Z"/>
      </g>
      <g class="cls-5">
        <path class="cls-14" d="m123.23,264.78l-.58-.15c-1.28-8.16-5.14-23.9-15.9-24.91-9.19-.86-13.66,6.97-14.38,15.12-.83-9.49,3.42-20.84,14.38-19.81,14.57,1.37,16.48,29.74,16.48,29.74Z"/>
      </g>
      <path class="cls-18" d="m102.11,269.19c-1.49,0-3.09-.37-4.78-1.27-6.37-3.37-8.07-14.89-5.61-23.12,2.37-7.93,7.9-12.08,15.19-11.4,15.79,1.48,17.89,30.05,17.97,31.27.04.53-.18,1.04-.59,1.38-.41.34-.95.46-1.46.33l-11.39-2.87c-1.76,2.61-5.06,5.68-9.32,5.68Zm3.28-32.56c-6.74,0-9.47,5.63-10.51,9.12-2.27,7.61-.33,16.97,3.99,19.26,6.18,3.27,10.17-3.87,10.34-4.18.36-.66,1.12-1,1.85-.81l10.29,2.59c-.81-6.54-4.02-24.92-14.75-25.92-.42-.04-.82-.06-1.21-.06Z"/>
      <path class="cls-18" d="m108.62,261.45c.24-.3.51-.7.76-1.07.25-.38.49-.76.72-1.15.46-.78.9-1.59,1.27-2.43.74-1.67,1.33-3.45,1.29-5.36.32.9.48,1.88.55,2.86.06.99.01,1.98-.09,2.97-.1.99-.27,1.97-.48,2.95-.1.49-.22.97-.36,1.46-.14.49-.26.95-.45,1.49l-.03.07c-.34.96-1.4,1.47-2.37,1.12s-1.47-1.4-1.12-2.37c.07-.2.17-.38.3-.53Z"/>
      <g>
        <path class="cls-18" d="m135.44,156.26c-.52,0-1.02-.22-1.37-.62l-23.68-26.87c-.56-.63-.61-1.57-.12-2.26.18-.25,4.36-6.1,9.69-11.5,7.65-7.74,13.76-10.49,18.14-8.19,2.81,1.48,6.2,5.84,3.29,26.57-1.53,10.9-4.17,21.38-4.19,21.48-.17.66-.68,1.16-1.34,1.32-.14.03-.29.05-.43.05Zm-21.35-28.8l20.39,23.13c.89-3.92,2.34-10.74,3.32-17.72,2.68-19.08-.38-22.29-1.38-22.81-4.78-2.52-15.61,8.32-22.32,17.4Z"/>
        <path class="cls-18" d="m131.34,142.14c-.5,0-.99-.21-1.34-.59l-10.47-11.38c-.57-.62-.64-1.54-.18-2.24.09-.13,2.14-3.2,4.69-6.16,3.98-4.62,6.94-6.35,9.3-5.47,2.6.97,3.13,4.92,1.85,13.64-.8,5.42-2.03,10.59-2.08,10.8-.16.65-.66,1.17-1.31,1.34-.15.04-.31.06-.46.06Zm-8.15-13.37l7.14,7.76c1.68-7.98,2.38-15.13,1.59-16.81-1.43.19-5.34,4.25-8.72,9.05Z"/>
      </g>
      <path class="cls-18" d="m135.44,156.26c-.52,0-1.02-.22-1.37-.62l-23.68-26.87c-.56-.63-.61-1.57-.12-2.26.18-.25,4.36-6.1,9.69-11.5,7.65-7.74,13.76-10.49,18.14-8.19,2.81,1.48,6.2,5.84,3.29,26.57-1.53,10.9-4.17,21.38-4.19,21.48-.17.66-.68,1.16-1.34,1.32-.14.03-.29.05-.43.05Zm-21.35-28.8l20.39,23.13c.89-3.92,2.34-10.74,3.32-17.72,2.68-19.08-.38-22.29-1.38-22.81-4.78-2.52-15.61,8.32-22.32,17.4Z"/>
      <g>
        <path class="cls-18" d="m47.9,140.58c-.36,0-.72-.11-1.03-.32-.56-.38-.86-1.04-.78-1.71.01-.11,1.25-10.84,3.66-21.58,4.59-20.42,9.3-23.31,12.45-23.7,4.91-.61,9.65,4.12,14.08,14.06,3.09,6.93,4.94,13.88,5.01,14.18.22.82-.16,1.68-.91,2.07l-31.64,16.78c-.27.14-.56.21-.85.21Zm15.12-43.71c-.13,0-.25,0-.37.02-1.12.14-5.12,2.06-9.34,20.86-1.55,6.88-2.6,13.77-3.15,17.75l27.24-14.45c-3.01-10.62-9.09-24.18-14.37-24.18Z"/>
        <path class="cls-18" d="m56.72,128.82c-.37,0-.74-.11-1.05-.33-.55-.39-.84-1.05-.76-1.72.03-.22.7-5.48,1.87-10.84,1.87-8.6,3.77-12.11,6.53-12.11h0c2.53,0,4.68,2.67,6.78,8.4,1.34,3.66,2.18,7.26,2.22,7.42.19.82-.21,1.66-.96,2.04l-13.82,6.96c-.26.13-.54.19-.82.19Zm6.73-21.29c-1.33,1.32-3.2,8.24-4.44,16.28l9.41-4.74c-1.46-5.65-3.66-10.8-4.98-11.54Z"/>
      </g>
      <path class="cls-18" d="m47.9,140.58c-.36,0-.72-.11-1.03-.32-.56-.38-.86-1.04-.78-1.71.01-.11,1.25-10.84,3.66-21.58,4.59-20.42,9.3-23.31,12.45-23.7,4.91-.61,9.65,4.12,14.08,14.06,3.09,6.93,4.94,13.88,5.01,14.18.22.82-.16,1.68-.91,2.07l-31.64,16.78c-.27.14-.56.21-.85.21Zm15.12-43.71c-.13,0-.25,0-.37.02-1.12.14-5.12,2.06-9.34,20.86-1.55,6.88-2.6,13.77-3.15,17.75l27.24-14.45c-3.01-10.62-9.09-24.18-14.37-24.18Z"/>
      <g>
        <path class="cls-8" d="m120.86,128.94s8.2-12.29,11.84-10.93c3.64,1.37-1.37,22.31-1.37,22.31l-10.47-11.38Z"/>
        <path class="cls-8" d="m70.54,120.04s-3.33-14.4-7.22-14.4-6.6,21.36-6.6,21.36l13.82-6.96Z"/>
      </g>
      <path class="cls-18" d="m131.34,141.5c-.32,0-.64-.13-.87-.38l-10.47-11.38c-.37-.4-.41-1-.11-1.45,2.04-3.07,9.04-12.95,13.23-11.38,1.57.59,2.96,2.58,1.43,12.94-.8,5.4-2.06,10.69-2.07,10.75-.1.42-.43.76-.85.87-.1.03-.2.04-.3.04Zm-8.97-12.67l8.32,9.04c.42-1.94,1.02-4.93,1.48-7.99,1.47-9.69.12-10.77.11-10.78-1.54-.58-6.32,4.53-9.91,9.72Z"/>
      <path class="cls-18" d="m56.72,128.18c-.24,0-.48-.07-.68-.22-.36-.25-.54-.68-.49-1.11,0-.05.7-5.46,1.86-10.79,2.22-10.22,4.23-11.6,5.9-11.6h0c4.48,0,7.54,11.73,8.37,15.32.12.53-.13,1.07-.62,1.32l-13.82,6.96c-.17.08-.35.13-.53.13Zm6.59-21.36s-1.64.54-3.68,10.12c-.65,3.03-1.14,6.04-1.43,8l10.97-5.52c-1.53-6.13-4.2-12.59-5.86-12.59Z"/>
      <g class="cls-4">
        <path class="cls-18" d="m79.54,121.98l-31.64,16.78s1.05-9.25,3.16-19.24c5.63-4.15,14.69-9.86,23.6-11.36,3.04,6.84,4.88,13.82,4.88,13.82Z"/>
      </g>
      <g class="cls-4">
        <path class="cls-18" d="m112.44,126.26l23.85,26.72s2.22-9.04,3.71-19.15c-3.84-5.84-10.35-14.34-18.19-18.84-5.23,5.36-9.37,11.27-9.37,11.27Z"/>
      </g>
      <path class="cls-10" d="m138.55,170.23c-4.1,27.61-28.47,37.67-56.08,33.57-27.61-4.1-48.01-20.79-43.92-48.41,4.1-27.61,29.8-46.68,57.42-42.58,27.61,4.1,46.68,29.8,42.58,57.42Z"/>
      <g class="cls-5">
        <path class="cls-14" d="m137.68,170.09c-.13.86-.27,1.7-.44,2.52,2.6-26.63-16.13-50.91-42.89-54.88-4.03-.6-8.01-.7-11.89-.36h0c.14,1.29-1.87,2.57-4.5,2.86-2.15.24-4.05-.26-4.74-1.16-17.76,5.01-32,19.59-35.83,38.65.08-.82.18-1.64.31-2.47,4.09-27.61,29.8-46.67,57.41-42.58,27.61,4.09,46.68,29.8,42.58,57.42Z"/>
      </g>
      <g class="cls-4">
        <path class="cls-18" d="m139.8,170.37c-4.09,27.61-28.46,37.67-56.08,33.57-26.54-3.94-46.42-19.52-44.28-45.24,1.84,21.38,20.35,34.39,44.28,37.95,27.61,4.09,51.98-5.96,56.08-33.57.19-1.27.33-2.55.42-3.81.26,3.63.13,7.35-.42,11.11Z"/>
      </g>
      <path class="cls-18" d="m94.08,206.51c-3.82,0-7.79-.3-11.88-.91-14.69-2.18-26.75-7.68-34.88-15.91-8.93-9.04-12.59-20.99-10.57-34.57,4.24-28.56,30.92-48.35,59.48-44.11,28.56,4.24,48.35,30.92,44.11,59.48h0c-2.01,13.58-8.98,23.95-20.15,30.01-7.34,3.98-16.22,6-26.12,6Zm-5.56-92.43c-23.73,0-44.58,17.41-48.16,41.58-4.29,28.89,19.08,42.88,42.38,46.34,23.3,3.46,49.72-3.14,54.01-32.04,3.94-26.58-14.47-51.4-41.05-55.35-2.41-.36-4.81-.53-7.18-.53Zm50.03,56.15h0,0Z"/>
      <path class="cls-18" d="m84.84,160.09l8.29.69c.94.08,1.34,1.23.65,1.87l-4.61,4.3c-.47.44-1.23.37-1.61-.15l-3.67-4.99c-.55-.75.04-1.8.96-1.72Z"/>
      <g>
        <path class="cls-18" d="m70.84,164.11c.56,1.2,1.04,2.17,1.58,3.03.53.86,1.1,1.63,1.74,2.31.63.68,1.33,1.32,2.14,1.8.82.48,1.73.78,2.72.84h.3s.38,0,.38,0c.26,0,.49-.05.72-.07.47-.07.92-.2,1.36-.36.87-.34,1.68-.8,2.42-1.38.75-.57,1.39-1.26,2.02-2.02.65-.77,1.29-1.59,2.17-2.67h0c.12-.16.35-.19.5-.06.04.03.07.07.09.11.67,1.3.65,2.81.2,4.16-.47,1.35-1.35,2.56-2.43,3.53-1.09.96-2.4,1.67-3.8,2.05-.7.2-1.41.33-2.13.38-.36.02-.73.06-1.06.04l-.51-.02h-.27s-.33-.03-.33-.03c-1.38-.15-2.81-.51-4.11-1.13-1.31-.61-2.51-1.49-3.41-2.63-.9-1.14-1.51-2.5-1.7-3.91-.18-1.4.03-2.85.78-4.03.1-.16.31-.21.47-.1.06.04.1.09.13.15h0Z"/>
        <path class="cls-18" d="m88.99,165.64c.55,1.18,1.02,2.13,1.55,2.99.52.85,1.08,1.61,1.7,2.29.62.68,1.3,1.3,2.09,1.8.79.49,1.69.81,2.63.89l.14.02s.01,0,.02,0h.19s.37,0,.37,0c.25.02.48-.04.73-.06.48-.06.94-.18,1.39-.34.89-.33,1.72-.79,2.47-1.37.76-.57,1.42-1.27,2.06-2.04.66-.78,1.31-1.61,2.2-2.71h0c.12-.16.35-.19.5-.06.04.03.07.07.09.11.68,1.32.65,2.85.18,4.22-.49,1.37-1.4,2.58-2.5,3.55-1.12.96-2.47,1.66-3.9,2.02-.71.19-1.44.3-2.17.34-.36,0-.73.05-1.09.02l-.53-.03h-.27c-.14-.03-.29-.05-.43-.07l.14.02c-1.39-.18-2.77-.56-4.05-1.18-1.28-.62-2.44-1.51-3.32-2.64-.87-1.13-1.45-2.48-1.63-3.86-.17-1.38.05-2.81.79-3.96.1-.16.31-.21.47-.1.06.04.1.09.13.15h0Z"/>
      </g>
      <path class="cls-18" d="m86.54,194.9c-.22,0-.44-.01-.66-.03-3.48-.36-6.32-3.48-7.8-8.58-1.01-3.46-1.31-7.53-.88-11.76.03-.28.06-.54.09-.81.12-.95.95-1.65,1.91-1.6,3.96.22,7.33-2.69,7.67-6.65,0,0,0,0,0,0,.09-1,.97-1.75,1.97-1.66,1,.08,1.75.97,1.66,1.97,0,0,0,0,0,0-.33,3.97,2.51,7.41,6.47,7.83.97.1,1.68.95,1.62,1.93-.02.38-.06.77-.1,1.16-.43,4.2-1.53,8.09-3.2,11.28-2.33,4.44-5.49,6.93-8.76,6.93Zm-5.79-19.18c-.26,3.43.03,6.8.83,9.55,1.03,3.54,2.78,5.77,4.68,5.97,1.91.2,4.08-1.66,5.81-4.96,1.36-2.59,2.32-5.91,2.74-9.38-2.9-.8-5.25-2.71-6.63-5.22-1.78,2.25-4.43,3.75-7.42,4.04Z"/>
      <path class="cls-18" d="m86.54,194.9c-.22,0-.44-.01-.66-.03-3.48-.36-6.32-3.48-7.8-8.58-.13-.45-.08-.94.14-1.36,1.62-3.08,4.79-4.99,8.27-4.99,4.1,0,7.78,2.74,8.95,6.67.13.45.09.94-.13,1.36-2.33,4.44-5.49,6.93-8.76,6.93Zm-4.73-8.88c1.05,3.11,2.68,5.04,4.44,5.22,1.77.18,3.77-1.4,5.43-4.27-.9-2.03-2.95-3.39-5.21-3.39-1.88,0-3.61.92-4.67,2.44Z"/>
      <path class="cls-18" d="m94.08,206.51c-3.82,0-7.79-.3-11.88-.91-14.69-2.18-26.75-7.68-34.88-15.91-8.93-9.04-12.59-20.99-10.57-34.57,4.24-28.56,30.92-48.35,59.48-44.11,28.56,4.24,48.35,30.92,44.11,59.48h0c-2.01,13.58-8.98,23.95-20.15,30.01-7.34,3.98-16.22,6-26.12,6Zm-5.56-92.43c-23.73,0-44.58,17.41-48.16,41.58-4.29,28.89,19.08,42.88,42.38,46.34,23.3,3.46,49.72-3.14,54.01-32.04,3.94-26.58-14.47-51.4-41.05-55.35-2.41-.36-4.81-.53-7.18-.53Zm50.03,56.15h0,0Z"/>
      <path class="cls-18" d="m84.84,160.09l8.29.69c.94.08,1.34,1.23.65,1.87l-4.61,4.3c-.47.44-1.23.37-1.61-.15l-3.67-4.99c-.55-.75.04-1.8.96-1.72Z"/>
      <path class="cls-18" d="m96.78,175.42c-.02.36-.05.72-.09,1.09-.41,4.08-1.51,7.76-3,10.61-2.03,3.88-4.8,6.22-7.61,5.93-2.8-.29-5.03-3.11-6.24-7.27-.9-3.11-1.23-6.96-.82-11.07.03-.26.05-.51.09-.77,4.91.28,9.17-3.4,9.59-8.32-.42,4.94,3.19,9.28,8.09,9.81Z"/>
      <path class="cls-16" d="m93.68,187.12c-2.03,3.88-4.8,6.22-7.61,5.93-2.8-.29-5.03-3.11-6.24-7.27,1.26-2.39,3.77-4.02,6.65-4.02,3.4,0,6.28,2.26,7.2,5.36Z"/>
      <path class="cls-18" d="m86.54,194.9c-.22,0-.44-.01-.66-.03-3.48-.36-6.32-3.48-7.8-8.58-1.01-3.46-1.31-7.53-.88-11.76.03-.28.06-.54.09-.81.12-.95.95-1.65,1.91-1.6,3.96.22,7.33-2.69,7.67-6.65,0,0,0,0,0,0,.09-1,.97-1.75,1.97-1.66,1,.08,1.75.97,1.66,1.97,0,0,0,0,0,0-.33,3.97,2.51,7.41,6.47,7.83.97.1,1.68.95,1.62,1.93-.02.38-.06.77-.1,1.16-.43,4.2-1.53,8.09-3.2,11.28-2.33,4.44-5.49,6.93-8.76,6.93Zm-5.79-19.18c-.26,3.43.03,6.8.83,9.55,1.03,3.54,2.78,5.77,4.68,5.97,1.91.2,4.08-1.66,5.81-4.96,1.36-2.59,2.32-5.91,2.74-9.38-2.9-.8-5.25-2.71-6.63-5.22-1.78,2.25-4.43,3.75-7.42,4.04Z"/>
      <g>
        <path class="cls-18" d="m47.1,159.9c-1.46-.31-2.83-.67-4.18-1.02-1.35-.36-2.68-.7-4.01-1.03-1.33-.34-2.65-.6-4-.88-1.36-.28-2.72-.43-4.2-.71,1.34-.66,2.83-1.02,4.32-1.08,1.49-.05,3,.08,4.43.45,1.44.36,2.83.89,4.13,1.59,1.29.71,2.52,1.55,3.52,2.68Z"/>
        <path class="cls-18" d="m47.31,170.32c-1.49.11-2.9.14-4.3.17-1.4.03-2.77.06-4.13.11-1.37.04-2.72.15-4.09.26-1.38.1-2.73.33-4.24.48,1.1-1.01,2.44-1.76,3.86-2.22,1.42-.46,2.9-.75,4.38-.78,1.48-.05,2.96.08,4.4.39,1.43.33,2.85.8,4.12,1.61Z"/>
        <path class="cls-18" d="m51,179.71c-1.32.7-2.6,1.29-3.87,1.89-1.27.59-2.51,1.17-3.74,1.77-1.24.58-2.43,1.23-3.64,1.89-1.22.65-2.37,1.4-3.69,2.14.6-1.36,1.53-2.59,2.63-3.59,1.11-.99,2.35-1.85,3.7-2.48,1.34-.64,2.74-1.12,4.19-1.42,1.44-.28,2.93-.42,4.42-.19Z"/>
      </g>
      <g>
        <path class="cls-18" d="m130.77,167.51c1.31-.74,2.75-1.14,4.2-1.39,1.45-.24,2.94-.28,4.42-.15,1.48.11,2.95.48,4.34,1.02,1.39.54,2.69,1.36,3.73,2.43-1.49-.22-2.83-.52-4.21-.7-1.36-.18-2.71-.37-4.07-.48-1.36-.12-2.73-.23-4.12-.33-1.4-.1-2.8-.21-4.29-.4Z"/>
        <path class="cls-18" d="m127.16,177.29c1.47-.35,2.96-.34,4.42-.18,1.46.17,2.91.54,4.29,1.07,1.39.52,2.7,1.27,3.89,2.17,1.19.9,2.21,2.05,2.92,3.36-1.38-.63-2.58-1.28-3.85-1.83-1.26-.55-2.5-1.1-3.78-1.58-1.27-.49-2.56-.97-3.87-1.45-1.31-.49-2.64-.97-4.01-1.56Z"/>
        <path class="cls-18" d="m120.62,184.97c1.48.27,2.84.88,4.12,1.62,1.27.75,2.44,1.66,3.5,2.71,1.06,1.03,1.96,2.25,2.68,3.55.72,1.31,1.19,2.77,1.32,4.25-1.01-1.13-1.84-2.21-2.79-3.23-.93-1.01-1.84-2.01-2.82-2.97-.97-.96-1.95-1.92-2.96-2.89-1.01-.97-2.02-1.95-3.04-3.04Z"/>
      </g>
      <path class="cls-18" d="m97.46,267.19c-.09-.14-.12-.2-.17-.29-.04-.08-.08-.16-.12-.24-.06-.16-.13-.32-.17-.48-.1-.32-.15-.64-.19-.96-.08-.64-.03-1.27.05-1.88.08-.61.23-1.21.4-1.79.19-.58.42-1.14.72-1.68.05-.09.16-.12.25-.07.04.03.07.07.09.11h0c.07.3.13.6.18.88.07.29.11.57.16.85.11.56.2,1.11.32,1.64l.35,1.53c.06.24.11.49.15.72l.06.34c.01.05.02.11.02.16,0,.04.02.12,0,.1.29.58.05,1.29-.53,1.58-.58.29-1.29.05-1.58-.53Z"/>
      <path class="cls-18" d="m103.73,267.31c-.3-.67-.39-1.25-.45-1.89-.05-.63,0-1.25.08-1.87.17-1.24.49-2.45,1.08-3.56.05-.09.15-.12.24-.07.05.02.08.07.09.11h0c.15.61.25,1.19.37,1.77.11.57.23,1.13.34,1.69.11.55.25,1.09.34,1.63.09.52.18,1.1.17,1.57v.17c-.01.65-.55,1.18-1.2,1.17-.48,0-.88-.29-1.06-.7Z"/>
      <path class="cls-18" d="m67.69,256.08c-.08.04-.02-.03-.01-.05l.07-.12c.05-.09.1-.19.16-.28.11-.2.24-.41.36-.63.24-.44.53-.9.77-1.4.26-.49.5-1.02.75-1.55.12-.27.25-.54.38-.81.12-.28.26-.55.41-.83h0c.05-.09.16-.12.24-.08.05.03.08.07.09.12.15.62.22,1.24.25,1.87.01.63,0,1.26-.1,1.9-.09.64-.23,1.29-.51,1.91-.13.31-.3.62-.51.92-.11.15-.23.29-.36.44-.06.07-.15.14-.22.21-.1.08-.14.12-.34.26-.52.4-1.26.3-1.65-.22-.4-.52-.3-1.26.22-1.65Z"/>
      <path class="cls-18" d="m72.9,259.55c-.07.02,0-.04.02-.07l.11-.12.24-.28c.16-.2.34-.42.51-.64.34-.46.7-.95,1.03-1.49.34-.54.64-1.11.96-1.7l.46-.91c.15-.31.31-.62.48-.93h0c.05-.09.15-.12.24-.07.05.03.08.08.09.13.05.35.07.71.09,1.07.01.36,0,.71-.01,1.08-.06.72-.15,1.44-.35,2.15-.19.72-.45,1.44-.87,2.11-.21.34-.45.66-.75.96-.15.15-.31.29-.49.43-.09.07-.19.13-.29.2-.12.07-.18.11-.41.21-.58.29-1.29.06-1.58-.52-.29-.58-.06-1.29.52-1.58Z"/>
      <g>
        <ellipse class="cls-18" cx="72.01" cy="149.81" rx="9.11" ry="6.21" transform="translate(-92.02 176.72) rotate(-73.65)"/>
        <ellipse class="cls-14" cx="73.94" cy="148.63" rx="2.66" ry="1.81" transform="translate(-89.5 177.72) rotate(-73.64)"/>
      </g>
      <path class="cls-18" d="m114.9,150.86c-1.17.16-2.36.37-3.48.66-1.13.29-2.21.66-3.23,1.11-.52.21-1,.49-1.49.73l-.7.43c-.24.14-.46.29-.68.46-.91.61-1.68,1.39-2.44,2.19l-1.62-2.5c.36-.09.6-.12.89-.16.28-.04.55-.06.82-.08.54-.04,1.08-.03,1.62,0,1.07.07,2.14.28,3.15.62,1,.36,1.98.8,2.83,1.42.88.57,1.62,1.32,2.27,2.1.19.23.16.57-.06.76-.17.14-.4.16-.59.07l-.06-.03c-.43-.21-.82-.46-1.23-.66-.42-.19-.82-.39-1.25-.54-.83-.32-1.69-.56-2.55-.68-.85-.15-1.72-.2-2.58-.16-.43.01-.85.06-1.27.11-.21.03-.42.06-.62.1-.1.02-.2.04-.29.06l-.14.03-.1.03h-.04c-.83.23-1.68-.26-1.9-1.09-.14-.51,0-1.04.32-1.41.89-1.04,1.85-2.05,3.01-2.81.55-.42,1.18-.71,1.78-1.05.63-.27,1.25-.56,1.91-.73,1.3-.4,2.63-.61,3.96-.63,1.33,0,2.63.14,3.92.57.28.09.44.4.34.68-.07.2-.24.34-.44.36h-.06Z"/>
    </g>
  </g>
  <text class="cls-6" transform="translate(20.44 377.72)"><tspan x="0" y="0">Bal</tspan><tspan class="cls-2" x="169.74" y="0">t</tspan><tspan x="215.84" y="0">o</tspan></text>
  <text class="cls-19" transform="translate(28.08 413.24)"><tspan class="cls-3" x="0" y="0">A</tspan><tspan x="16.32" y="0">dopciones </tspan><tspan class="cls-1" x="132.67" y="0">r</tspan><tspan x="141.09" y="0">esponsables</tspan></text>
</svg>