<svg viewBox="0 0 14 17" fill="none" xmlns="http://www.w3.org/2000/svg">
<path d="M12.5 2.33331C13.3125 2.33331 14 3.02081 14 3.83331V5.33331H0V3.83331C0 3.02081 0.65625 2.33331 1.5 2.33331H3V1.33331C3 0.802063 3.4375 0.333313 4 0.333313C4.53125 0.333313 5 0.802063 5 1.33331V2.33331H9V1.33331C9 0.802063 9.4375 0.333313 10 0.333313C10.5312 0.333313 11 0.802063 11 1.33331V2.33331H12.5ZM0 14.8333V6.33331H14V14.8333C14 15.6771 13.3125 16.3333 12.5 16.3333H1.5C0.65625 16.3333 0 15.6771 0 14.8333Z" />
</svg>
