<svg  viewBox="0 0 18 18" fill="none" xmlns="http://www.w3.org/2000/svg">
<path d="M16.0938 8.98956L11.9688 10.3333H15.0312C14.7188 10.6771 15.1562 10.2396 13.5938 11.8021L8.96875 13.3333H12.0312C9.71875 15.6458 5.96875 15.5521 4.34375 15.0521L2.28125 17.1146C1.96875 17.4271 1.5 17.4271 1.21875 17.1146C0.90625 16.8333 0.90625 16.3646 1.21875 16.0521L9.3125 7.95831C9.5 7.77081 9.5 7.45831 9.3125 7.27081C9.125 7.05206 8.8125 7.05206 8.59375 7.27081L3.03125 12.8333C2.8125 10.9271 3.125 8.11456 5.03125 6.23956C5.78125 5.45831 5.25 6.02081 7.6875 3.55206C10.5312 0.739563 13.625 0.802063 15.5938 2.73956C17.1562 4.33331 17.5 6.64581 16.0938 8.98956Z" />
</svg>
