<svg viewBox="0 0 42 32" fill="none" xmlns="http://www.w3.org/2000/svg">
<path d="M17 21C17 23.8125 13.375 26 9 26C4.5625 26 1 23.8125 1 21C1 20.0625 0.875 20.5625 6.3125 9.6875C6.8125 8.5625 7.9375 8 9 8C10.0625 8 11.125 8.5625 11.625 9.6875C17.0625 20.5 17 20 17 21ZM8.9375 11L4.4375 20H13.5L9 11H8.9375ZM33.4375 29C34.3125 29 34.9375 29.6875 34.9375 30.5C34.9375 31.375 34.3125 32 33.5 32H8.5C7.625 32 7 31.375 7 30.5C7 29.6875 7.625 29 8.5 29H19.5V9.75C17.75 9.25 16.4375 7.8125 16.0625 6H8.5C7.625 6 7 5.375 7 4.5C7 3.6875 7.625 3 8.5 3H16.375C17.1875 1.25 18.9375 0 21 0C23 0 24.75 1.25 25.5625 3H33.5C34.3125 3 34.9375 3.6875 34.9375 4.5C34.9375 5.375 34.3125 6 33.5 6H25.875C25.5 7.8125 24.1875 9.25 22.5 9.75V29H33.4375ZM21 7C22.0625 7 23 6.125 23 5C23 3.9375 22.0625 3 21 3C19.875 3 19 3.9375 19 5C19 6.125 19.875 7 21 7ZM40.9375 21C40.9375 23.8125 37.375 26 33 26C28.5625 26 25 23.8125 25 21C25 20.0625 24.875 20.5625 30.3125 9.6875C30.8125 8.5625 31.9375 8 33 8C34.0625 8 35.125 8.5625 35.625 9.6875C41.0625 20.5 40.9375 20 40.9375 21ZM28.4375 20H37.5L33 11H32.9375C31.8125 13.375 28.4375 20 28.4375 20Z" fill="currentColor"/>
</svg>
