<svg viewBox="0 0 27 32" fill="none" xmlns="http://www.w3.org/2000/svg">
<path d="M22 4C24.4375 4 26.5 6.0625 26.5 8.5V19.5C26.5 22.6875 25 25.625 22.5 27.5V30.5C22.5 31.375 21.8125 32 21 32C20.125 32 19.5 31.375 19.5 30.5V26.6875C19.5 26.1875 19.75 25.6875 20.1875 25.4375C22.25 24.125 23.5 21.9375 23.5 19.5V16.75C23 16.9375 22.5 17 22 17C21.0625 17 20.1875 16.75 19.5 16.25C18.75 16.75 17.875 17 17 17C16.5 17 16.125 16.9375 15.6875 16.8125C15.0625 18.6875 13.3125 20 11.25 20H8C7.125 20 6.5 19.375 6.5 18.5C6.5 17.6875 7.125 17 8 17H11.25C12.1875 17 13 16.25 13 15.25C13 14.3125 12.1875 13.5 11.25 13.5H6C4.5625 13.5 3.5 14.625 3.5 16V21.5625C3.5 22.3125 3.8125 23.0625 4.4375 23.5L6.5625 25.1875C6.6875 25.25 7.5 25.625 7.5 26.5625V30.5C7.5 31.375 6.8125 32 6 32C5.125 32 4.5 31.375 4.5 30.5V27.375L2.5625 25.875C1.25 24.875 0.5 23.25 0.5 21.5625V16C0.5 14.25 1.3125 12.6875 2.625 11.6875C2.5625 11.3125 2.5 10.9375 2.5 10.5V6.5C2.5 4.0625 4.5 2 7 2C7.375 2 7.75 2.0625 8.125 2.1875C8.9375 0.875 10.375 0 12 0C13.5625 0 15 0.875 15.8125 2.1875C16.1875 2.0625 16.5625 2 17 2C18.5625 2 20 2.875 20.8125 4.1875C21.1875 4.0625 21.5625 4 22 4ZM10.5 4.5V10.5H11.25C12 10.5 12.6875 10.75 13.375 11.0625C13.4375 10.875 13.5 10.75 13.5 10.5V4.5C13.5 3.6875 12.8125 3 12 3C11.125 3 10.5 3.6875 10.5 4.5ZM5.5 10.5C5.5 10.5625 5.5 10.5625 5.5 10.5625C5.625 10.5625 5.8125 10.5 6 10.5H8.5V6.5C8.5 5.6875 7.8125 5 7 5C6.125 5 5.5 5.6875 5.5 6.5V10.5ZM18.5 12.5V6.5C18.5 5.6875 17.8125 5 17 5C16.125 5 15.5 5.6875 15.5 6.5V12.5C15.5 13.375 16.125 14 17 14C17.8125 14 18.5 13.375 18.5 12.5ZM22 14C22.8125 14 23.5 13.375 23.5 12.5V8.5C23.5 7.6875 22.8125 7 22 7C21.125 7 20.5 7.6875 20.5 8.5V12.5C20.5 13.375 21.125 14 22 14Z" fill="currentColor"/>
</svg>
