<svg viewBox="0 0 36 32" fill="none" xmlns="http://www.w3.org/2000/svg">
<path d="M15.625 12C10.3125 12 6 7.3125 6 1.5C6 0.6875 6.625 0 7.5 0H9.8125C13.25 0 16.25 2 18 4.9375C19.6875 2 22.6875 0 26.125 0H28.5C29.3125 0 30 0.6875 30 1.5C30 7.3125 25.625 12 20.3125 12H19.5V14.5C19.5 15.375 18.8125 16 18 16C17.125 16 16.5 15.375 16.5 14.5V12H15.625ZM26.125 3C22.9375 3 20.25 5.625 19.625 9H20.3125C23.5 9 26.25 6.4375 26.8125 3H26.125ZM9.8125 3H9.125C9.75 6.4375 12.4375 9 15.625 9H16.3125C15.6875 5.625 13 3 9.8125 3ZM34.4375 19.5C35.4375 20.375 36 21.625 35.9375 22.875C35.9375 24.1875 35.3125 25.375 34.25 26.125L28 30.875C27 31.625 25.75 32 24.5 32H1.5C0.625 32 0 31.375 0 30.5C0 29.6875 0.625 29 1.5 29H24.5C25.125 29 25.6875 28.8125 26.1875 28.4375L32.5 23.75C33.125 23.25 33.1875 22.375 32.5 21.8125C32.0625 21.4375 31.25 21.4375 30.75 21.8125L26.9375 24.6875C26.4375 25.0625 25.875 25.25 25.25 25.25H16.8125C16.375 25.25 16 24.875 16 24.4375V24.375C16 23.9375 16.375 23.5625 16.8125 23.5625H20.5625C22.4375 23.5625 22.375 21 20.625 21H11.625C10.5 21 9.4375 21.375 8.5625 22.0625L6 24H1.5C0.625 24 0 23.375 0 22.5C0 21.6875 0.625 21 1.5 21H4.9375L6.75 19.6875C8.125 18.625 9.875 18 11.625 18H20.625C23.0625 18 24.9375 19.875 24.9375 22.25H25.1875L28.9375 19.4375C30.125 18.5 32.5 17.875 34.4375 19.5Z" fill="currentColor"/>
</svg>
