<svg viewBox="0 0 38 32" fill="none" xmlns="http://www.w3.org/2000/svg">
<path d="M21 25C21 25.5625 20.5 26 20 26H18C17.4375 26 17 25.5625 17 25C17 24.5 17.4375 24 18 24H20C20.5 24 21 24.5 21 25ZM14 24C14.5 24 15 24.5 15 25C15 25.5625 14.5 26 14 26H11C10.4375 26 10 25.5625 10 25C10 24.5 10.4375 24 11 24H14ZM9.75 16.25C9.75 13.9375 11.625 12 14 12C16.3125 12 18.25 13.9375 18.25 16.25C18.25 18.625 16.3125 20.5 14 20.5C11.625 20.5 9.75 18.625 9.75 16.25ZM12.75 16.25C12.75 17 13.25 17.5 14 17.5C14.6875 17.5 15.25 17 15.25 16.25C15.25 15.5625 14.6875 15 14 15C13.25 15 12.75 15.5625 12.75 16.25ZM28.25 16.25C28.25 18.625 26.3125 20.5 24 20.5C23.9375 20.5 23.9375 20.5 23.9375 20.5C21.625 20.5 19.6875 18.625 19.6875 16.25C19.6875 13.9375 21.625 12 23.9375 12V12.0625C23.9375 12.0625 23.9375 12 24 12C26.3125 12 28.25 13.9375 28.25 16.25ZM25.1875 16.25C25.1875 15.5625 24.625 15.0625 23.9375 15.0625C23.25 15.0625 22.75 15.5625 22.75 16.25C22.75 17 23.25 17.5 23.9375 17.5C24.625 17.5 25.1875 17 25.1875 16.25ZM27 24C27.5 24 28 24.5 28 25C28 25.5625 27.5 26 27 26H24C23.4375 26 23 25.5625 23 25C23 24.5 23.4375 24 24 24H27ZM33 11V27C33 29.8125 30.75 32 28 32H10C7.1875 32 5 29.8125 5 27V11C5 8.25 7.1875 6 10 6H17.5V1.5C17.5 0.6875 18.125 0 19 0C19.8125 0 20.5 0.6875 20.5 1.5V6H28C30.75 6 33 8.25 33 11ZM30 11C30 9.9375 29.0625 9 28 9H10C8.875 9 8 9.9375 8 11V13V26V27C8 28.125 8.875 29 10 29H28C29.0625 29 30 28.125 30 27V26V13V11ZM36 12C37.0625 12 38 12.9375 38 14V22C38 23.125 37.0625 24 36 24H35V12H36ZM0 14C0 12.9375 0.875 12 2 12H3V24H2C0.875 24 0 23.125 0 22V14Z" fill="currentColor"/>
</svg>
