<svg viewBox="0 0 30 30" fill="none" xmlns="http://www.w3.org/2000/svg">
<path d="M22.125 17C22.625 17 23 17.4375 22.9375 17.9375C22.5 21.6875 19.3125 24.5 15.375 24.5H14.5625C10.625 24.5 7.4375 21.6875 7 17.9375C6.9375 17.4375 7.3125 17 7.8125 17H22.125ZM9.9375 13C8.875 13 7.9375 12.125 7.9375 11C7.9375 9.9375 8.875 9 9.9375 9C11.0625 9 12 9.9375 12 11C12 12.125 11.0625 13 9.9375 13ZM20 9.25C21.5625 9.25 23.4375 10.3125 23.6875 11.9375C23.8125 12.625 23 13.0625 22.4375 12.5625L21.875 12.0625C20.9375 11.25 19 11.25 18.0625 12.0625L17.4375 12.5625C16.9375 13.0625 16.125 12.625 16.25 11.9375C16.5 10.3125 18.375 9.25 20 9.25ZM15 0C23.25 0 30 6.75 30 15C30 23.3125 23.25 30 15 30C6.6875 30 0 23.3125 0 15C0 6.75 6.6875 0 15 0ZM15 27C21.5625 27 27 21.625 27 15C27 8.4375 21.5625 3 15 3C8.375 3 3 8.4375 3 15C3 21.625 8.375 27 15 27Z" fill="currentColor"/>
</svg>
