<svg viewBox="0 0 41 32" fill="none" xmlns="http://www.w3.org/2000/svg">
<path d="M12.5 22C16.875 22 20.5 25.625 20.5 30C20.5 31.125 19.5625 32 18.5 32H2.5C1.375 32 0.5 31.125 0.5 30C0.5 25.625 4.0625 22 8.5 22H12.5ZM3.5625 29H17.375C16.875 26.75 14.875 25 12.5 25H8.5C6.0625 25 4.0625 26.75 3.5625 29ZM10.5 20C7.125 20 4.5 17.375 4.5 14C4.5 10.6875 7.125 8 10.5 8C13.8125 8 16.5 10.6875 16.5 14C16.5 17.375 13.8125 20 10.5 20ZM10.5 11C8.8125 11 7.5 12.375 7.5 14C7.5 15.6875 8.8125 17 10.5 17C12.125 17 13.5 15.6875 13.5 14C13.5 12.375 12.125 11 10.5 11ZM37 0C38.875 0 40.5 1.625 40.5 3.5V22.5C40.5 24.4375 38.875 26 37 26H22.5C21.625 26 21 25.375 21 24.5C21 23.6875 21.625 23 22.5 23H24.5V21C24.5 19.9375 25.375 19 26.5 19H31.5C32.5625 19 33.5 19.9375 33.5 21V23H37C37.25 23 37.5 22.8125 37.5 22.5V3.5C37.5 3.25 37.25 3 37 3H14C13.6875 3 13.5 3.25 13.5 3.5V5C13.5 5.875 12.8125 6.5 12 6.5C11.125 6.5 10.5 5.875 10.5 5V3.5C10.5 1.625 12.0625 0 14 0H37Z" fill="currentColor"/>
</svg>
