<svg viewBox="0 0 138 44" fill="none" xmlns="http://www.w3.org/2000/svg">
<path fill-rule="evenodd" clip-rule="evenodd" d="M45.0635 20.7344C48.3701 18.6381 49.3049 15.72 58.5842 11.4604C75.5155 3.67897 92.7756 7.16719 106.92 18.1853C107.075 18.3027 109.811 20.8685 109.845 20.9021C109.049 16.5418 102.124 9.56534 98.0385 6.68085C85.9893 -1.77138 69.5255 -1.83846 57.3031 6.34545C53.3733 8.96161 46.7081 15.2169 45.0635 20.7344Z" fill="#F4A900"/>
<path fill-rule="evenodd" clip-rule="evenodd" d="M71.793 22.3609L71.8103 23.4678C71.8103 23.4678 74.3378 22.4616 74.5629 25.4131L74.6322 43.089L78.0773 43.1561L78.2158 20.2479C77.9041 20.2479 77.2982 20.1976 76.8827 20.2814L71.793 22.3609Z" fill="#111111"/>
<path d="M96.7398 20.986C98.1074 21.5897 99.25 22.4115 100.202 23.468C101.154 24.5245 101.864 25.7655 102.366 27.1575C102.868 28.5494 103.111 30.042 103.111 31.6351C103.111 33.2283 102.868 34.7209 102.366 36.1128C101.864 37.5047 101.137 38.7458 100.202 39.8023C99.25 40.8588 98.1074 41.6973 96.7398 42.2843C95.3721 42.888 93.866 43.1731 92.2213 43.1731C90.5594 43.1731 89.0532 42.8712 87.7029 42.2843C86.3352 41.6806 85.1926 40.8588 84.2405 39.8023C83.2883 38.7458 82.5785 37.5047 82.0764 36.1128C81.5744 34.7209 81.332 33.2283 81.332 31.6351C81.332 30.042 81.5744 28.5662 82.0764 27.1575C82.5785 25.7655 83.3056 24.5245 84.2405 23.468C85.1926 22.4115 86.3352 21.573 87.7029 20.986C89.0705 20.3823 90.5767 20.0972 92.2213 20.0972C93.866 20.0972 95.3721 20.399 96.7398 20.986ZM89.1398 23.9376C88.2569 24.4071 87.5298 25.0276 86.9758 25.7991C86.4045 26.5873 85.989 27.4761 85.712 28.4823C85.435 29.4885 85.2965 30.5451 85.2965 31.6351C85.2965 32.7252 85.435 33.765 85.712 34.7712C85.989 35.7774 86.4045 36.6662 86.9758 37.4544C87.5471 38.2426 88.2569 38.8799 89.1398 39.3327C90.0227 39.8023 91.0441 40.0203 92.2213 40.0203C93.3986 40.0203 94.42 39.7855 95.3029 39.3327C96.1858 38.8631 96.9129 38.2426 97.4669 37.4544C98.0382 36.6662 98.4537 35.7606 98.7307 34.7712C99.0077 33.765 99.1462 32.7252 99.1462 31.6351C99.1462 30.5451 99.0077 29.5053 98.7307 28.4991C98.4537 27.4929 98.0382 26.604 97.4669 25.8158C96.8956 25.0276 96.1858 24.3904 95.3029 23.9376C94.42 23.468 93.3986 23.25 92.2213 23.25C91.0441 23.25 90.0054 23.468 89.1398 23.9376Z" fill="#F4A900"/>
<path d="M104.998 26.7047H108.443V29.0525L108.512 29.1196C109.066 28.2308 109.793 27.5432 110.676 27.0401C111.576 26.537 112.563 26.2854 113.637 26.2854C115.472 26.2854 116.891 26.755 117.93 27.6941C118.969 28.6332 119.471 29.9749 119.471 31.719V42.6868H115.835V32.6581C115.818 31.4171 115.541 30.5115 115.021 29.9413C114.502 29.3711 113.706 29.0693 112.615 29.0693C111.421 29.0693 110.468 29.4718 109.724 30.2767C108.997 31.0817 108.616 32.0712 108.616 33.2786V42.7035H104.98V26.7047H104.998Z" fill="#F4A900"/>
<path d="M124.889 35.5928C124.889 36.9345 125.27 38.0581 126.032 38.9637C126.794 39.8693 127.884 40.3221 129.321 40.3221C131.364 40.3221 132.697 39.4332 133.338 37.6724H136.783C136.402 39.3829 135.519 40.7078 134.151 41.6637C132.784 42.6196 131.174 43.1059 129.321 43.1059C126.794 43.1059 124.82 42.3345 123.4 40.7916C121.981 39.2488 121.271 37.2196 121.271 34.704C121.271 33.5804 121.461 32.4903 121.825 31.4841C122.189 30.4611 122.725 29.5723 123.435 28.7841C124.145 27.9959 124.976 27.3922 125.963 26.9394C126.949 26.5033 128.04 26.2686 129.235 26.2686C130.394 26.2686 131.468 26.4866 132.437 26.9226C133.407 27.3586 134.238 27.9456 134.948 28.717C135.657 29.4717 136.177 30.3605 136.54 31.35C136.904 32.3394 137.077 33.3624 137.077 34.4357C137.077 34.8214 137.06 35.2239 137.008 35.6096H124.889V35.5928ZM133.372 33.2785C133.303 32.1046 132.905 31.1152 132.143 30.2767C131.381 29.4549 130.412 29.0357 129.235 29.0357C128.005 29.0357 126.984 29.4381 126.17 30.2431C125.357 31.0481 124.941 32.0543 124.889 33.2618H133.372V33.2785Z" fill="#F4A900"/>
<path d="M8.74261 20.7678H12.9841L21.744 42.8208H17.4679L15.3385 36.9847H6.24967L4.12028 42.8208H0L8.74261 20.7678ZM7.34033 34.0499H14.2825L10.872 24.5747H10.7681L7.34033 34.0499Z" fill="#111111"/>
<path d="M33.2913 32.2053C33.1355 31.2662 32.7373 30.5283 32.0622 29.9917C31.387 29.4718 30.556 29.2035 29.5346 29.2035C28.9979 29.2035 28.4786 29.2873 27.9592 29.455C27.4398 29.6227 26.9551 29.9078 26.505 30.3271C26.0549 30.7463 25.6913 31.3501 25.4143 32.1215C25.1373 32.8929 24.9988 33.8488 24.9988 35.006C24.9988 35.7103 25.0854 36.3812 25.2585 37.0184C25.4316 37.6557 25.6913 38.2427 26.0375 38.7625C26.3838 39.2824 26.8339 39.7017 27.3879 40.0203C27.9419 40.3222 28.5997 40.4899 29.3615 40.4899C30.4175 40.4899 31.3004 40.1712 31.9929 39.5172C32.6854 38.8632 33.1182 37.9743 33.2913 36.8507H36.9269C36.5806 38.9302 35.7669 40.5234 34.4685 41.6135C33.1701 42.7203 31.4735 43.2737 29.3615 43.2737C26.8512 43.2737 24.8949 42.5023 23.4754 40.9762C22.0558 39.4501 21.3633 37.4544 21.3633 35.0395C21.3633 32.524 22.0731 30.4612 23.4754 28.868C24.8776 27.2581 26.8858 26.4531 29.5 26.4531C31.5255 26.4531 33.2221 26.9395 34.607 27.9289C35.992 28.9184 36.771 30.3438 36.9269 32.2221H33.2913V32.2053Z" fill="#111111"/>
<path d="M49.7723 32.2053C49.6165 31.2662 49.2183 30.5283 48.5431 29.9917C47.8679 29.4718 47.037 29.2035 46.0155 29.2035C45.4789 29.2035 44.9595 29.2873 44.4401 29.455C43.9208 29.6227 43.436 29.9078 42.9859 30.3271C42.5358 30.7463 42.1723 31.3501 41.8953 32.1215C41.6183 32.8929 41.4798 33.8488 41.4798 35.006C41.4798 35.7103 41.5663 36.3812 41.7395 37.0184C41.9126 37.6557 42.1723 38.2427 42.5185 38.7625C42.8647 39.2824 43.3149 39.7017 43.8688 40.0203C44.4228 40.3222 45.0807 40.4899 45.8424 40.4899C46.8985 40.4899 47.7814 40.1712 48.4739 39.5172C49.1663 38.8632 49.5991 37.9743 49.7723 36.8507H53.4078C53.0616 38.9302 52.2479 40.5234 50.9495 41.6135C49.6511 42.7203 47.9545 43.2737 45.8424 43.2737C43.3322 43.2737 41.3759 42.5023 39.9563 40.9762C38.5367 39.4501 37.8442 37.4544 37.8442 35.0395C37.8442 32.524 38.554 30.4612 39.9563 28.868C41.3586 27.2581 43.3668 26.4531 45.9809 26.4531C48.0064 26.4531 49.703 26.9395 51.088 27.9289C52.473 28.9184 53.252 30.3438 53.4078 32.2221H49.7723V32.2053Z" fill="#111111"/>
<path d="M57.961 35.7437C57.961 37.0853 58.3419 38.209 59.1036 39.1146C59.8653 40.0202 60.956 40.4729 62.3929 40.4729C64.4357 40.4729 65.7688 39.5841 66.4093 37.8232H69.8544C69.4735 39.5338 68.5906 40.8587 67.223 41.8146C65.8553 42.7705 64.2453 43.2568 62.3929 43.2568C59.8653 43.2568 57.8917 42.4854 56.4722 40.9425C55.0526 39.3996 54.3428 37.3704 54.3428 34.8549C54.3428 33.7313 54.5332 32.6412 54.8968 31.635C55.2603 30.612 55.797 29.7232 56.5068 28.935C57.2166 28.1468 58.0476 27.543 59.0343 27.0902C60.0211 26.6542 61.1118 26.4194 62.3063 26.4194C63.4662 26.4194 64.5396 26.6374 65.5091 27.0735C66.4785 27.5095 67.3095 28.0965 68.0193 28.8679C68.7291 29.6226 69.2485 30.5114 69.612 31.5008C69.9756 32.4903 70.1487 33.5133 70.1487 34.5866C70.1487 34.9723 70.1314 35.3748 70.0795 35.7605H57.961V35.7437ZM66.4439 33.4294C66.3747 32.2555 65.9765 31.2661 65.2148 30.4275C64.453 29.6058 63.4836 29.1865 62.3063 29.1865C61.0772 29.1865 60.0558 29.589 59.2421 30.394C58.4284 31.199 58.0129 32.2052 57.961 33.4127H66.4439V33.4294Z" fill="#111111"/>
</svg>
