<svg viewBox="0 0 14 15" fill="none" xmlns="http://www.w3.org/2000/svg">
<path d="M12.8438 9.40625L7.84375 14.1562C7.59375 14.4062 7.28125 14.5 7 14.5C6.6875 14.5 6.375 14.4062 6.125 14.1562L1.125 9.40625C0.625 8.9375 0.59375 8.15625 1.09375 7.65625C1.5625 7.15625 2.34375 7.125 2.84375 7.59375L5.75 10.3438V1.75C5.75 1.0625 6.28125 0.5 7 0.5C7.6875 0.5 8.25 1.0625 8.25 1.75V10.3438L11.125 7.59375C11.625 7.125 12.4062 7.15625 12.9062 7.65625C13.375 8.15625 13.3438 8.9375 12.8438 9.40625Z" fill="currentColor"/>
</svg>
