<svg width="14" height="15" viewBox="0 0 14 15" fill="none" xmlns="http://www.w3.org/2000/svg">
<path d="M12.9062 7.875C12.6562 8.125 12.3125 8.25 12 8.25C11.6875 8.25 11.375 8.15625 11.125 7.90625L8.25 5.1875V13.75C8.25 14.4688 7.6875 15 7 15C6.28125 15 5.75 14.4688 5.75 13.75V5.1875L2.84375 7.90625C2.34375 8.40625 1.5625 8.375 1.09375 7.875C0.59375 7.375 0.625 6.59375 1.125 6.09375L6.125 1.34375C6.59375 0.90625 7.375 0.90625 7.84375 1.34375L12.8438 6.09375C13.3438 6.59375 13.375 7.375 12.9062 7.875Z" fill="#444444"/>
</svg>
