<svg width="22" height="21" viewBox="0 0 22 21" fill="none" xmlns="http://www.w3.org/2000/svg">
<path d="M20.25 16.25C21.1875 17.25 21.1875 18.8125 20.25 19.8125C19.25 20.75 17.6875 20.75 16.6875 19.8125L11 14.0625L5.25 19.8125C4.25 20.75 2.6875 20.75 1.6875 19.8125C0.75 18.8125 0.75 17.25 1.6875 16.25L7.4375 10.5L1.6875 4.8125C0.75 3.8125 0.75 2.25 1.6875 1.25C2.6875 0.3125 4.25 0.3125 5.25 1.25L11 7L16.6875 1.25C17.6875 0.3125 19.25 0.3125 20.25 1.25C21.1875 2.25 21.1875 3.8125 20.25 4.8125L14.5 10.5L20.25 16.25Z" fill="currentColor"/>
</svg>
