<svg width="28" height="25" viewBox="0 0 28 25" fill="none" xmlns="http://www.w3.org/2000/svg">
<path d="M26 10.5C27.0625 10.5 28 11.4375 28 12.5C28 13.625 27.0625 14.5 26 14.5H2C0.875 14.5 0 13.625 0 12.5C0 11.4375 0.875 10.5 2 10.5H26ZM26 20.5C27.0625 20.5 28 21.4375 28 22.5C28 23.625 27.0625 24.5 26 24.5H2C0.875 24.5 0 23.625 0 22.5C0 21.4375 0.875 20.5 2 20.5H26ZM26 0.5C27.0625 0.5 28 1.4375 28 2.5C28 3.625 27.0625 4.5 26 4.5H2C0.875 4.5 0 3.625 0 2.5C0 1.4375 0.875 0.5 2 0.5H26Z" fill="#111111"/>
</svg>
